{
.appVersion = "1346";
DisplayStrings = (

glyphs = (
{
color = 5;
glyphname = "hamza-ar";
layers = (
{
anchors = (
{
name = bottom;
position = "{160, 14}";
},
{
name = top;
position = "{157, 309}";
}
);
layerId = "98B9451C-6456-42E9-9BE3-FFE7D6D9360C";
paths = (
{
closed = 1;
nodes = (
"43 0 OFFCURVE",
"261 62 OFFCURVE",
"274 75 CURVE SMOOTH",
"283 84 OFFCURVE",
"289 141 OFFCURVE",
"274 141 CURVE SMOOTH",
"258 141 OFFCURVE",
"227 125 OFFCURVE",
"207 125 CURVE SMOOTH",
"187 125 OFFCURVE",
"109 156 OFFCURVE",
"109 179 CURVE SMOOTH",
"109 196 OFFCURVE",
"122 209 OFFCURVE",
"142 209 CURVE SMOOTH",
"157 209 OFFCURVE",
"182 173 OFFCURVE",
"203 173 CURVE SMOOTH",
"219 173 OFFCURVE",
"256 208 OFFCURVE",
"256 222 CURVE SMOOTH",
"256 247 OFFCURVE",
"223 281 OFFCURVE",
"181 281 CURVE SMOOTH",
"135 281 OFFCURVE",
"34 196 OFFCURVE",
"34 149 CURVE SMOOTH",
"34 108 OFFCURVE",
"64 99 OFFCURVE",
"64 89 CURVE SMOOTH",
"64 78 OFFCURVE",
"34 62 OFFCURVE",
"27 53 CURVE SMOOTH",
"22 47 OFFCURVE",
"13 23 OFFCURVE",
"13 10 CURVE SMOOTH",
"13 3 OFFCURVE",
"19 0 OFFCURVE",
"24 0 CURVE SMOOTH"
);
}
);
width = 300;
},
{
anchors = (
{
name = bottom;
position = "{168, 34}";
},
{
name = top;
position = "{133, 322}";
}
);
associatedMasterId = "98B9451C-6456-42E9-9BE3-FFE7D6D9360C";
layerId = "8DDC4AAB-D5A2-4C15-87AA-51DDCD705FD5";
name = "Oct 6 20, 12:15";
paths = (
{
closed = 1;
nodes = (
"24 -28 OFFCURVE",
"106 18 OFFCURVE",
"162 40 CURVE SMOOTH",
"214 61 OFFCURVE",
"271 66 OFFCURVE",
"275 72 CURVE SMOOTH",
"283 85 OFFCURVE",
"290 148 OFFCURVE",
"275 148 CURVE SMOOTH",
"264 148 OFFCURVE",
"211 107 OFFCURVE",
"187 107 CURVE SMOOTH",
"149 107 OFFCURVE",
"117 159 OFFCURVE",
"116 191 CURVE SMOOTH",
"117 222 OFFCURVE",
"127 233 OFFCURVE",
"155 233 CURVE SMOOTH",
"177 233 OFFCURVE",
"188 214 OFFCURVE",
"211 214 CURVE SMOOTH",
"227 214 OFFCURVE",
"243 218 OFFCURVE",
"243 239 CURVE SMOOTH",
"243 277 OFFCURVE",
"200 291 OFFCURVE",
"152 291 CURVE SMOOTH",
"87 291 OFFCURVE",
"27 259 OFFCURVE",
"26 169 CURVE SMOOTH",
"27 113 OFFCURVE",
"70 85 OFFCURVE",
"70 72 CURVE SMOOTH",
"70 64 OFFCURVE",
"29 45 OFFCURVE",
"22 34 CURVE SMOOTH",
"11 15 OFFCURVE",
"6 -28 OFFCURVE",
"16 -28 CURVE SMOOTH"
);
}
);
visible = 1;
width = 300;
}
);
unicode = 0621;
},
{
color = 5;
glyphname = "alef-ar";
layers = (
{
layerId = "98B9451C-6456-42E9-9BE3-FFE7D6D9360C";
paths = (
{
closed = 1;
nodes = (
"140 -16 OFFCURVE",
"162 119 OFFCURVE",
"162 160 CURVE SMOOTH",
"162 300 OFFCURVE",
"149 574 OFFCURVE",
"117 686 CURVE SMOOTH",
"114 697 OFFCURVE",
"108 700 OFFCURVE",
"102 700 CURVE SMOOTH",
"87 700 OFFCURVE",
"50 627 OFFCURVE",
"50 604 CURVE SMOOTH",
"50 546 OFFCURVE",
"108 315 OFFCURVE",
"108 0 CURVE SMOOTH",
"108 -12 OFFCURVE",
"112 -16 OFFCURVE",
"122 -16 CURVE SMOOTH"
);
}
);
width = 202;
},
{
associatedMasterId = "98B9451C-6456-42E9-9BE3-FFE7D6D9360C";
layerId = "D1D59945-0184-4F2B-9F03-FB1FECCC306B";
name = "لل";
paths = (
{
closed = 1;
nodes = (
"286 0 OFFCURVE",
"340 55 OFFCURVE",
"340 70 CURVE SMOOTH",
"340 86 OFFCURVE",
"286 140 OFFCURVE",
"270 140 CURVE SMOOTH",
"254 140 OFFCURVE",
"200 86 OFFCURVE",
"200 70 CURVE SMOOTH",
"200 55 OFFCURVE",
"254 0 OFFCURVE",
"270 0 CURVE SMOOTH"
);
},
{
closed = 1;
nodes = (
"286 140 OFFCURVE",
"340 195 OFFCURVE",
"340 210 CURVE SMOOTH",
"340 226 OFFCURVE",
"286 280 OFFCURVE",
"270 280 CURVE SMOOTH",
"254 280 OFFCURVE",
"200 226 OFFCURVE",
"200 210 CURVE SMOOTH",
"200 195 OFFCURVE",
"254 140 OFFCURVE",
"270 140 CURVE SMOOTH"
);
},
{
closed = 1;
nodes = (
"286 280 OFFCURVE",
"340 335 OFFCURVE",
"340 350 CURVE SMOOTH",
"340 366 OFFCURVE",
"286 420 OFFCURVE",
"270 420 CURVE SMOOTH",
"254 420 OFFCURVE",
"200 366 OFFCURVE",
"200 350 CURVE SMOOTH",
"200 335 OFFCURVE",
"254 280 OFFCURVE",
"270 280 CURVE SMOOTH"
);
},
{
closed = 1;
nodes = (
"286 420 OFFCURVE",
"340 475 OFFCURVE",
"340 490 CURVE SMOOTH",
"340 506 OFFCURVE",
"286 560 OFFCURVE",
"270 560 CURVE SMOOTH",
"254 560 OFFCURVE",
"200 506 OFFCURVE",
"200 490 CURVE SMOOTH",
"200 475 OFFCURVE",
"254 420 OFFCURVE",
"270 420 CURVE SMOOTH"
);
},
{
closed = 1;
nodes = (
"286 420 OFFCURVE",
"340 475 OFFCURVE",
"340 490 CURVE SMOOTH",
"340 506 OFFCURVE",
"286 560 OFFCURVE",
"270 560 CURVE SMOOTH",
"254 560 OFFCURVE",
"200 506 OFFCURVE",
"200 490 CURVE SMOOTH",
"200 475 OFFCURVE",
"254 420 OFFCURVE",
"270 420 CURVE SMOOTH"
);
},
{
closed = 1;
nodes = (
"286 560 OFFCURVE",
"340 615 OFFCURVE",
"340 630 CURVE SMOOTH",
"340 646 OFFCURVE",
"286 700 OFFCURVE",
"270 700 CURVE SMOOTH",
"254 700 OFFCURVE",
"200 646 OFFCURVE",
"200 630 CURVE SMOOTH",
"200 615 OFFCURVE",
"254 560 OFFCURVE",
"270 560 CURVE SMOOTH"
);
},
{
closed = 1;
nodes = (
"286 700 OFFCURVE",
"340 755 OFFCURVE",
"340 770 CURVE SMOOTH",
"340 786 OFFCURVE",
"286 840 OFFCURVE",
"270 840 CURVE SMOOTH",
"254 840 OFFCURVE",
"200 786 OFFCURVE",
"200 770 CURVE SMOOTH",
"200 755 OFFCURVE",
"254 700 OFFCURVE",
"270 700 CURVE SMOOTH"
);
},
{
closed = 1;
nodes = (
"286 -140 OFFCURVE",
"340 -85 OFFCURVE",
"340 -70 CURVE SMOOTH",
"340 -54 OFFCURVE",
"286 0 OFFCURVE",
"270 0 CURVE SMOOTH",
"254 0 OFFCURVE",
"200 -54 OFFCURVE",
"200 -70 CURVE SMOOTH",
"200 -85 OFFCURVE",
"254 -140 OFFCURVE",
"270 -140 CURVE SMOOTH"
);
},
{
closed = 1;
nodes = (
"286 -280 OFFCURVE",
"340 -225 OFFCURVE",
"340 -210 CURVE SMOOTH",
"340 -194 OFFCURVE",
"286 -140 OFFCURVE",
"270 -140 CURVE SMOOTH",
"254 -140 OFFCURVE",
"200 -194 OFFCURVE",
"200 -210 CURVE SMOOTH",
"200 -225 OFFCURVE",
"254 -280 OFFCURVE",
"270 -280 CURVE SMOOTH"
);
},
{
closed = 1;
nodes = (
"286 -420 OFFCURVE",
"340 -365 OFFCURVE",
"340 -350 CURVE SMOOTH",
"340 -334 OFFCURVE",
"286 -280 OFFCURVE",
"270 -280 CURVE SMOOTH",
"254 -280 OFFCURVE",
"200 -334 OFFCURVE",
"200 -350 CURVE SMOOTH",
"200 -365 OFFCURVE",
"254 -420 OFFCURVE",
"270 -420 CURVE SMOOTH"
);
},
{
closed = 1;
nodes = (
"286 840 OFFCURVE",
"340 895 OFFCURVE",
"340 910 CURVE SMOOTH",
"340 926 OFFCURVE",
"286 980 OFFCURVE",
"270 980 CURVE SMOOTH",
"254 980 OFFCURVE",
"200 926 OFFCURVE",
"200 910 CURVE SMOOTH",
"200 895 OFFCURVE",
"254 840 OFFCURVE",
"270 840 CURVE SMOOTH"
);
},
{
closed = 1;
nodes = (
"286 -560 OFFCURVE",
"340 -505 OFFCURVE",
"340 -490 CURVE SMOOTH",
"340 -474 OFFCURVE",
"286 -420 OFFCURVE",
"270 -420 CURVE SMOOTH",
"254 -420 OFFCURVE",
"200 -474 OFFCURVE",
"200 -490 CURVE SMOOTH",
"200 -505 OFFCURVE",
"254 -560 OFFCURVE",
"270 -560 CURVE SMOOTH"
);
}
);
visible = 1;
width = 200;
},
{
associatedMasterId = "98B9451C-6456-42E9-9BE3-FFE7D6D9360C";
layerId = "BC3BD211-8872-49A1-A76A-16488A8B4CBC";
name = "Sep 7 20, 18:21";
paths = (
{
closed = 1;
nodes = (
"160 -16 OFFCURVE",
"190 100 OFFCURVE",
"190 151 CURVE SMOOTH",
"190 330 OFFCURVE",
"175 700 OFFCURVE",
"125 700 CURVE SMOOTH",
"106 700 OFFCURVE",
"70 619 OFFCURVE",
"70 605 CURVE SMOOTH",
"70 560 OFFCURVE",
"129 296 OFFCURVE",
"129 0 CURVE SMOOTH",
"129 -12 OFFCURVE",
"132 -16 OFFCURVE",
"142 -16 CURVE SMOOTH"
);
}
);
visible = 1;
width = 250;
}
);
unicode = 0627;
},
{
color = 5;
glyphname = "alef-ar.fina";
layers = (
{
layerId = "98B9451C-6456-42E9-9BE3-FFE7D6D9360C";
paths = (
{
closed = 1;
nodes = (
"115 100 OFFCURVE",
"113 450 OFFCURVE",
"113 673 CURVE SMOOTH",
"113 689 OFFCURVE",
"106 700 OFFCURVE",
"93 700 CURVE SMOOTH",
"72 700 OFFCURVE",
"40 606 OFFCURVE",
"40 581 CURVE SMOOTH",
"40 529 OFFCURVE",
"56 256 OFFCURVE",
"81 135 CURVE SMOOTH",
"102 34 OFFCURVE",
"137 0 OFFCURVE",
"218 0 CURVE",
"238 50 LINE",
"218 100 LINE"
);
}
);
width = 218;
},
{
associatedMasterId = "98B9451C-6456-42E9-9BE3-FFE7D6D9360C";
layerId = "6E4110B4-2481-4DB6-A2F8-9E685146BA49";
name = "Sep 7 20, 20:50";
paths = (
{
closed = 1;
nodes = (
"122 -16 OFFCURVE",
"144 119 OFFCURVE",
"144 160 CURVE SMOOTH",
"144 300 OFFCURVE",
"131 574 OFFCURVE",
"99 686 CURVE SMOOTH",
"96 697 OFFCURVE",
"90 700 OFFCURVE",
"84 700 CURVE SMOOTH",
"69 700 OFFCURVE",
"32 627 OFFCURVE",
"32 604 CURVE SMOOTH",
"32 546 OFFCURVE",
"90 315 OFFCURVE",
"90 0 CURVE SMOOTH",
"90 -12 OFFCURVE",
"94 -16 OFFCURVE",
"104 -16 CURVE SMOOTH"
);
}
);
visible = 1;
width = 219;
},
{
associatedMasterId = "98B9451C-6456-42E9-9BE3-FFE7D6D9360C";
layerId = "DD020344-5DA1-491F-9335-16456A3BD2FC";
name = "Sep 7 20, 20:50";
paths = (
{
closed = 1;
nodes = (
"178 100 OFFCURVE",
"147 151 OFFCURVE",
"127 340 CURVE SMOOTH",
"118 423 OFFCURVE",
"111 538 OFFCURVE",
"111 681 CURVE SMOOTH",
"111 693 OFFCURVE",
"101 700 OFFCURVE",
"91 700 CURVE SMOOTH",
"70 700 OFFCURVE",
"30 600 OFFCURVE",
"30 582 CURVE SMOOTH",
"30 541 OFFCURVE",
"54 348 OFFCURVE",
"60 280 CURVE SMOOTH",
"80 44 OFFCURVE",
"99 0 OFFCURVE",
"219 0 CURVE",
"219 100 LINE"
);
}
);
width = 219;
}
);
unicode = FE8E;
},
{
color = 5;
glyphname = "behDotless-ar";
layers = (
{
layerId = "98B9451C-6456-42E9-9BE3-FFE7D6D9360C";
paths = (
{
closed = 1;
nodes = (
"85 0 OFFCURVE",
"0 58 OFFCURVE",
"0 177 CURVE SMOOTH",
"0 247 OFFCURVE",
"40 312 OFFCURVE",
"53 312 CURVE SMOOTH",
"65 312 OFFCURVE",
"70 302 OFFCURVE",
"70 292 CURVE SMOOTH",
"70 282 OFFCURVE",
"60 250 OFFCURVE",
"60 217 CURVE SMOOTH",
"60 123 OFFCURVE",
"114 100 OFFCURVE",
"433 100 CURVE SMOOTH",
"509 100 OFFCURVE",
"772 100 OFFCURVE",
"772 145 CURVE SMOOTH",
"772 167 OFFCURVE",
"720 201 OFFCURVE",
"720 227 CURVE SMOOTH",
"720 258 OFFCURVE",
"745 325 OFFCURVE",
"762 325 CURVE SMOOTH",
"785 325 OFFCURVE",
"827 243 OFFCURVE",
"827 194 CURVE SMOOTH",
"827 -10 OFFCURVE",
"599 0 OFFCURVE",
"287 0 CURVE SMOOTH"
);
}
);
width = 827;
},
{
associatedMasterId = "98B9451C-6456-42E9-9BE3-FFE7D6D9360C";
layerId = "18DEBEEC-A656-4674-B208-31A9CE3A92FD";
name = "Sep 23 20, 13:37";
paths = (
{
closed = 1;
nodes = (
"614 50 LINE",
"634 100 LINE",
"754 100 OFFCURVE",
"771 112 OFFCURVE",
"771 132 CURVE SMOOTH",
"771 160 OFFCURVE",
"720 207 OFFCURVE",
"720 231 CURVE SMOOTH",
"720 258 OFFCURVE",
"744 329 OFFCURVE",
"761 329 CURVE SMOOTH",
"786 329 OFFCURVE",
"827 237 OFFCURVE",
"827 169 CURVE SMOOTH",
"827 107 OFFCURVE",
"779 0 OFFCURVE",
"634 0 CURVE"
);
}
);
visible = 1;
width = 827;
}
);
unicode = 066E;
},
{
color = 5;
glyphname = "behDotless-ar.fina";
layers = (
{
layerId = "98B9451C-6456-42E9-9BE3-FFE7D6D9360C";
paths = (
{
closed = 1;
nodes = (
"102 -10 OFFCURVE",
"10 54 OFFCURVE",
"10 183 CURVE SMOOTH",
"10 257 OFFCURVE",
"53 325 OFFCURVE",
"69 325 CURVE SMOOTH",
"80 325 OFFCURVE",
"85 318 OFFCURVE",
"85 305 CURVE SMOOTH",
"85 289 OFFCURVE",
"70 262 OFFCURVE",
"70 230 CURVE SMOOTH",
"70 123 OFFCURVE",
"191 100 OFFCURVE",
"336 100 CURVE SMOOTH",
"681 100 OFFCURVE",
"784 211 OFFCURVE",
"810 211 CURVE SMOOTH",
"828 211 OFFCURVE",
"831 201 OFFCURVE",
"831 185 CURVE SMOOTH",
"831 118 OFFCURVE",
"889 100 OFFCURVE",
"927 100 CURVE",
"947 50 LINE",
"927 0 LINE",
"798 0 OFFCURVE",
"791 95 OFFCURVE",
"772 95 CURVE SMOOTH",
"737 95 OFFCURVE",
"616 -10 OFFCURVE",
"270 -10 CURVE SMOOTH"
);
}
);
width = 927;
},
{
associatedMasterId = "98B9451C-6456-42E9-9BE3-FFE7D6D9360C";
layerId = "2A7AEA07-4C16-4BFD-81A4-D96B245B7F9B";
name = "Sep 23 20, 02:33";
paths = (
{
closed = 1;
nodes = (
"72 -10 OFFCURVE",
"0 64 OFFCURVE",
"0 183 CURVE SMOOTH",
"0 253 OFFCURVE",
"45 331 OFFCURVE",
"58 331 CURVE SMOOTH",
"70 331 OFFCURVE",
"75 321 OFFCURVE",
"75 311 CURVE SMOOTH",
"75 301 OFFCURVE",
"60 273 OFFCURVE",
"60 223 CURVE SMOOTH",
"60 129 OFFCURVE",
"114 100 OFFCURVE",
"433 100 CURVE SMOOTH",
"509 100 OFFCURVE",
"772 120 OFFCURVE",
"772 169 CURVE SMOOTH",
"772 197 OFFCURVE",
"730 242 OFFCURVE",
"730 268 CURVE SMOOTH",
"730 302 OFFCURVE",
"755 369 OFFCURVE",
"772 369 CURVE SMOOTH",
"793 369 OFFCURVE",
"827 280 OFFCURVE",
"827 232 CURVE SMOOTH",
"827 184 OFFCURVE",
"819 140 OFFCURVE",
"783 98 CURVE SMOOTH",
"734 40 OFFCURVE",
"622 -10 OFFCURVE",
"287 -10 CURVE SMOOTH"
);
}
);
visible = 1;
width = 917;
}
);
},
{
color = 5;
glyphname = "behDotless-ar.medi";
layers = (
{
anchors = (
{
name = bottom;
position = "{186, -20}";
},
{
name = top;
position = "{230, 234}";
}
);
layerId = "98B9451C-6456-42E9-9BE3-FFE7D6D9360C";
paths = (
{
closed = 1;
nodes = (
"158 0 OFFCURVE",
"161 66 OFFCURVE",
"136 66 CURVE SMOOTH",
"109 66 OFFCURVE",
"97 0 OFFCURVE",
"0 0 CURVE",
"-20 50 LINE",
"0 100 LINE",
"134 100 OFFCURVE",
"128 211 OFFCURVE",
"160 211 CURVE SMOOTH",
"175 211 OFFCURVE",
"180 203 OFFCURVE",
"180 180 CURVE SMOOTH",
"180 138 OFFCURVE",
"222 100 OFFCURVE",
"310 100 CURVE",
"330 50 LINE",
"310 0 LINE"
);
}
);
width = 310;
}
);
},
{
color = 5;
glyphname = "behDotless-ar.init";
layers = (
{
anchors = (
{
name = top;
position = "{115, 359}";
}
);
layerId = "98B9451C-6456-42E9-9BE3-FFE7D6D9360C";
paths = (
{
closed = 1;
nodes = (
"-20 50 LINE",
"0 100 LINE",
"120 100 OFFCURVE",
"137 126 OFFCURVE",
"137 146 CURVE SMOOTH",
"137 164 OFFCURVE",
"86 203 OFFCURVE",
"86 227 CURVE SMOOTH",
"86 254 OFFCURVE",
"110 325 OFFCURVE",
"127 325 CURVE SMOOTH",
"152 325 OFFCURVE",
"193 240 OFFCURVE",
"193 182 CURVE SMOOTH",
"193 90 OFFCURVE",
"145 0 OFFCURVE",
"0 0 CURVE"
);
}
);
width = 213;
},
{
anchors = (
{
name = top;
position = "{115, 359}";
}
);
associatedMasterId = "98B9451C-6456-42E9-9BE3-FFE7D6D9360C";
layerId = "14ED1F39-4F7F-413F-AC39-6303BB7B7265";
name = "Sep 23 20, 14:14";
paths = (
{
closed = 1;
nodes = (
"-550 -10 OFFCURVE",
"-635 58 OFFCURVE",
"-635 177 CURVE SMOOTH",
"-635 247 OFFCURVE",
"-595 312 OFFCURVE",
"-582 312 CURVE SMOOTH",
"-570 312 OFFCURVE",
"-565 302 OFFCURVE",
"-565 292 CURVE SMOOTH",
"-565 282 OFFCURVE",
"-575 250 OFFCURVE",
"-575 217 CURVE SMOOTH",
"-575 123 OFFCURVE",
"-521 100 OFFCURVE",
"-202 100 CURVE SMOOTH",
"-126 100 OFFCURVE",
"137 100 OFFCURVE",
"137 145 CURVE SMOOTH",
"137 167 OFFCURVE",
"85 205 OFFCURVE",
"85 231 CURVE SMOOTH",
"85 262 OFFCURVE",
"110 329 OFFCURVE",
"127 329 CURVE SMOOTH",
"150 329 OFFCURVE",
"192 243 OFFCURVE",
"192 194 CURVE SMOOTH",
"192 -10 OFFCURVE",
"-36 -10 OFFCURVE",
"-348 -10 CURVE SMOOTH"
);
}
);
visible = 1;
width = 213;
},
{
anchors = (
{
name = top;
position = "{115, 359}";
}
);
associatedMasterId = "98B9451C-6456-42E9-9BE3-FFE7D6D9360C";
layerId = "9624915E-CB20-49B3-AB7C-923920A9550E";
name = "Sep 23 20, 14:15";
paths = (
{
closed = 1;
nodes = (
"-20 50 LINE",
"0 100 LINE",
"120 100 OFFCURVE",
"137 112 OFFCURVE",
"137 132 CURVE SMOOTH",
"137 150 OFFCURVE",
"86 207 OFFCURVE",
"86 231 CURVE SMOOTH",
"86 258 OFFCURVE",
"110 329 OFFCURVE",
"127 329 CURVE SMOOTH",
"152 329 OFFCURVE",
"193 217 OFFCURVE",
"193 159 CURVE SMOOTH",
"193 107 OFFCURVE",
"145 0 OFFCURVE",
"0 0 CURVE"
);
}
);
width = 213;
}
);
},
{
color = 5;
glyphname = "hah-ar";
layers = (
{
layerId = "98B9451C-6456-42E9-9BE3-FFE7D6D9360C";
paths = (
{
closed = 1;
nodes = (
"75 168 OFFCURVE",
"97 199 OFFCURVE",
"124 199 CURVE SMOOTH",
"175 199 OFFCURVE",
"281 184 OFFCURVE",
"281 171 CURVE SMOOTH",
"281 144 OFFCURVE",
"20 76 OFFCURVE",
"20 -167 CURVE SMOOTH",
"20 -324 OFFCURVE",
"161 -450 OFFCURVE",
"304 -450 CURVE SMOOTH",
"366 -450 OFFCURVE",
"585 -377 OFFCURVE",
"585 -344 CURVE SMOOTH",
"585 -334 OFFCURVE",
"578 -330 OFFCURVE",
"567 -330 CURVE SMOOTH",
"364 -330 LINE SMOOTH",
"195 -330 OFFCURVE",
"94 -270 OFFCURVE",
"94 -130 CURVE SMOOTH",
"94 8 OFFCURVE",
"258 140 OFFCURVE",
"404 140 CURVE SMOOTH",
"449 140 OFFCURVE",
"484 132 OFFCURVE",
"507 132 CURVE SMOOTH",
"526 132 OFFCURVE",
"561 199 OFFCURVE",
"561 219 CURVE SMOOTH",
"561 226 OFFCURVE",
"552 233 OFFCURVE",
"541 233 CURVE SMOOTH",
"380 233 OFFCURVE",
"242 294 OFFCURVE",
"161 294 CURVE SMOOTH",
"124 294 OFFCURVE",
"54 204 OFFCURVE",
"54 181 CURVE SMOOTH",
"54 171 OFFCURVE",
"58 168 OFFCURVE",
"66 168 CURVE SMOOTH"
);
}
);
width = 585;
},
{
associatedMasterId = "98B9451C-6456-42E9-9BE3-FFE7D6D9360C";
layerId = "BAD98761-060E-455E-B569-2254DEE569B0";
name = "Sep 23 20, 18:34";
paths = (
{
closed = 1;
nodes = (
"56 200 OFFCURVE",
"60 190 OFFCURVE",
"68 190 CURVE SMOOTH",
"77 190 OFFCURVE",
"93 230 OFFCURVE",
"135 230 CURVE SMOOTH",
"206 230 OFFCURVE",
"339 202 OFFCURVE",
"339 190 CURVE SMOOTH",
"339 188 OFFCURVE",
"336 186 OFFCURVE",
"333 186 CURVE SMOOTH",
"281 179 OFFCURVE",
"83 76 OFFCURVE",
"79 -137 CURVE SMOOTH",
"78 -164 OFFCURVE",
"96 -350 OFFCURVE",
"324 -350 CURVE SMOOTH",
"392 -350 OFFCURVE",
"555 -282 OFFCURVE",
"555 -255 CURVE SMOOTH",
"555 -246 OFFCURVE",
"553 -241 OFFCURVE",
"543 -241 CURVE SMOOTH",
"505 -241 OFFCURVE",
"449 -250 OFFCURVE",
"384 -250 CURVE SMOOTH",
"205 -250 OFFCURVE",
"153 -180 OFFCURVE",
"153 -70 CURVE SMOOTH",
"153 68 OFFCURVE",
"303 147 OFFCURVE",
"449 147 CURVE SMOOTH",
"502 147 OFFCURVE",
"537 132 OFFCURVE",
"560 132 CURVE SMOOTH",
"579 132 OFFCURVE",
"620 201 OFFCURVE",
"620 221 CURVE SMOOTH",
"620 228 OFFCURVE",
"618 232 OFFCURVE",
"610 232 CURVE SMOOTH",
"597 232 OFFCURVE",
"574 228 OFFCURVE",
"555 228 CURVE SMOOTH",
"415 228 OFFCURVE",
"283 330 OFFCURVE",
"155 330 CURVE SMOOTH",
"118 330 OFFCURVE",
"56 244 OFFCURVE",
"56 210 CURVE SMOOTH"
);
}
);
width = 640;
},
{
associatedMasterId = "98B9451C-6456-42E9-9BE3-FFE7D6D9360C";
layerId = "FEB1BE45-B547-47E2-BA32-FE9228BC4AFB";
name = "Sep 24 20, 01:10";
paths = (
{
closed = 1;
nodes = (
"75 168 OFFCURVE",
"97 199 OFFCURVE",
"124 199 CURVE SMOOTH",
"175 199 OFFCURVE",
"281 184 OFFCURVE",
"281 171 CURVE SMOOTH",
"281 144 OFFCURVE",
"20 76 OFFCURVE",
"20 -167 CURVE SMOOTH",
"20 -324 OFFCURVE",
"161 -450 OFFCURVE",
"304 -450 CURVE SMOOTH",
"366 -450 OFFCURVE",
"585 -377 OFFCURVE",
"585 -344 CURVE SMOOTH",
"585 -334 OFFCURVE",
"578 -330 OFFCURVE",
"567 -330 CURVE SMOOTH",
"364 -330 LINE SMOOTH",
"185 -330 OFFCURVE",
"94 -260 OFFCURVE",
"94 -133 CURVE SMOOTH",
"94 8 OFFCURVE",
"258 140 OFFCURVE",
"404 140 CURVE SMOOTH",
"449 140 OFFCURVE",
"484 132 OFFCURVE",
"507 132 CURVE SMOOTH",
"526 132 OFFCURVE",
"561 199 OFFCURVE",
"561 219 CURVE SMOOTH",
"561 226 OFFCURVE",
"552 233 OFFCURVE",
"541 233 CURVE SMOOTH",
"380 233 OFFCURVE",
"242 294 OFFCURVE",
"161 294 CURVE SMOOTH",
"124 294 OFFCURVE",
"54 204 OFFCURVE",
"54 181 CURVE SMOOTH",
"54 171 OFFCURVE",
"58 168 OFFCURVE",
"66 168 CURVE SMOOTH"
);
}
);
visible = 1;
width = 585;
}
);
unicode = 062D;
},
{
color = 5;
glyphname = "hah-ar.fina";
layers = (
{
layerId = "98B9451C-6456-42E9-9BE3-FFE7D6D9360C";
paths = (
{
closed = 1;
nodes = (
"391 165 OFFCURVE",
"373 142 OFFCURVE",
"373 94 CURVE SMOOTH",
"373 24 OFFCURVE",
"417 0 OFFCURVE",
"504 0 CURVE",
"524 50 LINE",
"504 100 LINE",
"424 100 OFFCURVE",
"416 125 OFFCURVE",
"416 147 CURVE SMOOTH",
"416 156 OFFCURVE",
"416 165 OFFCURVE",
"408 165 CURVE SMOOTH"
);
},
{
closed = 1;
nodes = (
"68 168 OFFCURVE",
"90 199 OFFCURVE",
"117 199 CURVE SMOOTH",
"168 199 OFFCURVE",
"274 184 OFFCURVE",
"274 171 CURVE SMOOTH",
"274 144 OFFCURVE",
"13 76 OFFCURVE",
"13 -167 CURVE SMOOTH",
"13 -324 OFFCURVE",
"154 -450 OFFCURVE",
"297 -450 CURVE SMOOTH",
"359 -450 OFFCURVE",
"578 -377 OFFCURVE",
"578 -344 CURVE SMOOTH",
"578 -334 OFFCURVE",
"571 -330 OFFCURVE",
"560 -330 CURVE SMOOTH",
"357 -330 LINE SMOOTH",
"178 -330 OFFCURVE",
"87 -260 OFFCURVE",
"87 -133 CURVE SMOOTH",
"87 8 OFFCURVE",
"251 140 OFFCURVE",
"397 140 CURVE SMOOTH",
"432 140 OFFCURVE",
"447 132 OFFCURVE",
"470 132 CURVE SMOOTH",
"489 132 OFFCURVE",
"524 199 OFFCURVE",
"524 219 CURVE SMOOTH",
"524 226 OFFCURVE",
"515 233 OFFCURVE",
"504 233 CURVE SMOOTH",
"373 233 OFFCURVE",
"235 294 OFFCURVE",
"154 294 CURVE SMOOTH",
"117 294 OFFCURVE",
"47 204 OFFCURVE",
"47 181 CURVE SMOOTH",
"47 171 OFFCURVE",
"51 168 OFFCURVE",
"59 168 CURVE SMOOTH"
);
}
);
width = 504;
},
{
associatedMasterId = "98B9451C-6456-42E9-9BE3-FFE7D6D9360C";
layerId = "2F7733CA-9736-4E92-BD10-4BF749A69F09";
name = "Sep 23 20, 18:08";
paths = (
{
closed = 1;
nodes = (
"97 50 LINE",
"117 100 LINE",
"238 100 OFFCURVE",
"425 154 OFFCURVE",
"425 171 CURVE SMOOTH",
"425 175 OFFCURVE",
"423 177 OFFCURVE",
"418 179 CURVE SMOOTH",
"392 189 OFFCURVE",
"292 199 OFFCURVE",
"267 199 CURVE SMOOTH",
"240 199 OFFCURVE",
"220 169 OFFCURVE",
"208 169 CURVE SMOOTH",
"202 169 OFFCURVE",
"197 172 OFFCURVE",
"197 181 CURVE SMOOTH",
"197 199 OFFCURVE",
"263 294 OFFCURVE",
"305 294 CURVE SMOOTH",
"350 294 OFFCURVE",
"567 233 OFFCURVE",
"681 233 CURVE SMOOTH",
"691 233 OFFCURVE",
"704 229 OFFCURVE",
"704 218 CURVE SMOOTH",
"704 204 OFFCURVE",
"673 132 OFFCURVE",
"647 132 CURVE SMOOTH",
"622 132 OFFCURVE",
"596 140 OFFCURVE",
"548 140 CURVE SMOOTH",
"460 140 OFFCURVE",
"340 0 OFFCURVE",
"117 0 CURVE"
);
}
);
visible = 1;
width = 650;
}
);
unicode = FEA2;
},
{
color = 5;
glyphname = "hah-ar.medi";
layers = (
{
layerId = "98B9451C-6456-42E9-9BE3-FFE7D6D9360C";
paths = (
{
closed = 1;
nodes = (
"439 165 OFFCURVE",
"439 156 OFFCURVE",
"439 147 CURVE SMOOTH",
"439 125 OFFCURVE",
"467 100 OFFCURVE",
"547 100 CURVE",
"567 50 LINE",
"547 0 LINE",
"460 0 OFFCURVE",
"396 24 OFFCURVE",
"396 94 CURVE SMOOTH",
"396 142 OFFCURVE",
"414 165 OFFCURVE",
"431 165 CURVE SMOOTH"
);
},
{
closed = 1;
nodes = (
"-20 50 LINE",
"0 100 LINE",
"121 100 OFFCURVE",
"298 154 OFFCURVE",
"298 171 CURVE SMOOTH",
"298 175 OFFCURVE",
"296 177 OFFCURVE",
"291 179 CURVE SMOOTH",
"265 189 OFFCURVE",
"165 199 OFFCURVE",
"140 199 CURVE SMOOTH",
"113 199 OFFCURVE",
"93 169 OFFCURVE",
"81 169 CURVE SMOOTH",
"75 169 OFFCURVE",
"70 172 OFFCURVE",
"70 181 CURVE SMOOTH",
"70 199 OFFCURVE",
"136 294 OFFCURVE",
"178 294 CURVE SMOOTH",
"223 294 OFFCURVE",
"423 233 OFFCURVE",
"527 233 CURVE SMOOTH",
"537 233 OFFCURVE",
"550 229 OFFCURVE",
"550 218 CURVE SMOOTH",
"550 204 OFFCURVE",
"519 132 OFFCURVE",
"493 132 CURVE SMOOTH",
"468 132 OFFCURVE",
"449 140 OFFCURVE",
"421 140 CURVE SMOOTH",
"333 140 OFFCURVE",
"223 0 OFFCURVE",
"0 0 CURVE"
);
}
);
width = 547;
}
);
unicode = FEA4;
},
{
color = 5;
glyphname = "hah-ar.init";
layers = (
{
layerId = "98B9451C-6456-42E9-9BE3-FFE7D6D9360C";
paths = (
{
closed = 1;
nodes = (
"-20 50 LINE",
"0 100 LINE",
"121 100 OFFCURVE",
"258 154 OFFCURVE",
"258 171 CURVE SMOOTH",
"258 175 OFFCURVE",
"256 177 OFFCURVE",
"251 179 CURVE SMOOTH",
"225 189 OFFCURVE",
"125 199 OFFCURVE",
"100 199 CURVE SMOOTH",
"73 199 OFFCURVE",
"53 169 OFFCURVE",
"41 169 CURVE SMOOTH",
"35 169 OFFCURVE",
"30 172 OFFCURVE",
"30 181 CURVE SMOOTH",
"30 199 OFFCURVE",
"96 294 OFFCURVE",
"138 294 CURVE SMOOTH",
"183 294 OFFCURVE",
"400 233 OFFCURVE",
"514 233 CURVE SMOOTH",
"524 233 OFFCURVE",
"537 229 OFFCURVE",
"537 218 CURVE SMOOTH",
"537 204 OFFCURVE",
"506 132 OFFCURVE",
"480 132 CURVE SMOOTH",
"455 132 OFFCURVE",
"429 140 OFFCURVE",
"381 140 CURVE SMOOTH",
"293 140 OFFCURVE",
"223 0 OFFCURVE",
"0 0 CURVE"
);
}
);
width = 547;
},
{
associatedMasterId = "98B9451C-6456-42E9-9BE3-FFE7D6D9360C";
layerId = "0198DF01-22B9-40F5-93DA-E3A08636B5E3";
name = "Jul 19 20, 15:07";
paths = (
{
closed = 1;
nodes = (
"773 0 OFFCURVE",
"827 55 OFFCURVE",
"827 70 CURVE SMOOTH",
"827 86 OFFCURVE",
"773 140 OFFCURVE",
"757 140 CURVE SMOOTH",
"741 140 OFFCURVE",
"687 86 OFFCURVE",
"687 70 CURVE SMOOTH",
"687 55 OFFCURVE",
"741 0 OFFCURVE",
"757 0 CURVE SMOOTH"
);
},
{
closed = 1;
nodes = (
"773 140 OFFCURVE",
"827 195 OFFCURVE",
"827 210 CURVE SMOOTH",
"827 226 OFFCURVE",
"773 280 OFFCURVE",
"757 280 CURVE SMOOTH",
"741 280 OFFCURVE",
"687 226 OFFCURVE",
"687 210 CURVE SMOOTH",
"687 195 OFFCURVE",
"741 140 OFFCURVE",
"757 140 CURVE SMOOTH"
);
},
{
closed = 1;
nodes = (
"773 280 OFFCURVE",
"827 335 OFFCURVE",
"827 350 CURVE SMOOTH",
"827 366 OFFCURVE",
"773 420 OFFCURVE",
"757 420 CURVE SMOOTH",
"741 420 OFFCURVE",
"687 366 OFFCURVE",
"687 350 CURVE SMOOTH",
"687 335 OFFCURVE",
"741 280 OFFCURVE",
"757 280 CURVE SMOOTH"
);
},
{
closed = 1;
nodes = (
"773 420 OFFCURVE",
"827 475 OFFCURVE",
"827 490 CURVE SMOOTH",
"827 506 OFFCURVE",
"773 560 OFFCURVE",
"757 560 CURVE SMOOTH",
"741 560 OFFCURVE",
"687 506 OFFCURVE",
"687 490 CURVE SMOOTH",
"687 475 OFFCURVE",
"741 420 OFFCURVE",
"757 420 CURVE SMOOTH"
);
},
{
closed = 1;
nodes = (
"773 420 OFFCURVE",
"827 475 OFFCURVE",
"827 490 CURVE SMOOTH",
"827 506 OFFCURVE",
"773 560 OFFCURVE",
"757 560 CURVE SMOOTH",
"741 560 OFFCURVE",
"687 506 OFFCURVE",
"687 490 CURVE SMOOTH",
"687 475 OFFCURVE",
"741 420 OFFCURVE",
"757 420 CURVE SMOOTH"
);
},
{
closed = 1;
nodes = (
"773 560 OFFCURVE",
"827 615 OFFCURVE",
"827 630 CURVE SMOOTH",
"827 646 OFFCURVE",
"773 700 OFFCURVE",
"757 700 CURVE SMOOTH",
"741 700 OFFCURVE",
"687 646 OFFCURVE",
"687 630 CURVE SMOOTH",
"687 615 OFFCURVE",
"741 560 OFFCURVE",
"757 560 CURVE SMOOTH"
);
},
{
closed = 1;
nodes = (
"773 700 OFFCURVE",
"827 755 OFFCURVE",
"827 770 CURVE SMOOTH",
"827 786 OFFCURVE",
"773 840 OFFCURVE",
"757 840 CURVE SMOOTH",
"741 840 OFFCURVE",
"687 786 OFFCURVE",
"687 770 CURVE SMOOTH",
"687 755 OFFCURVE",
"741 700 OFFCURVE",
"757 700 CURVE SMOOTH"
);
},
{
closed = 1;
nodes = (
"773 -140 OFFCURVE",
"827 -85 OFFCURVE",
"827 -70 CURVE SMOOTH",
"827 -54 OFFCURVE",
"773 0 OFFCURVE",
"757 0 CURVE SMOOTH",
"741 0 OFFCURVE",
"687 -54 OFFCURVE",
"687 -70 CURVE SMOOTH",
"687 -85 OFFCURVE",
"741 -140 OFFCURVE",
"757 -140 CURVE SMOOTH"
);
},
{
closed = 1;
nodes = (
"773 -280 OFFCURVE",
"827 -225 OFFCURVE",
"827 -210 CURVE SMOOTH",
"827 -194 OFFCURVE",
"773 -140 OFFCURVE",
"757 -140 CURVE SMOOTH",
"741 -140 OFFCURVE",
"687 -194 OFFCURVE",
"687 -210 CURVE SMOOTH",
"687 -225 OFFCURVE",
"741 -280 OFFCURVE",
"757 -280 CURVE SMOOTH"
);
},
{
closed = 1;
nodes = (
"773 -420 OFFCURVE",
"827 -365 OFFCURVE",
"827 -350 CURVE SMOOTH",
"827 -334 OFFCURVE",
"773 -280 OFFCURVE",
"757 -280 CURVE SMOOTH",
"741 -280 OFFCURVE",
"687 -334 OFFCURVE",
"687 -350 CURVE SMOOTH",
"687 -365 OFFCURVE",
"741 -420 OFFCURVE",
"757 -420 CURVE SMOOTH"
);
},
{
closed = 1;
nodes = (
"773 840 OFFCURVE",
"827 895 OFFCURVE",
"827 910 CURVE SMOOTH",
"827 926 OFFCURVE",
"773 980 OFFCURVE",
"757 980 CURVE SMOOTH",
"741 980 OFFCURVE",
"687 926 OFFCURVE",
"687 910 CURVE SMOOTH",
"687 895 OFFCURVE",
"741 840 OFFCURVE",
"757 840 CURVE SMOOTH"
);
},
{
closed = 1;
nodes = (
"1103 783 OFFCURVE",
"1104 780 OFFCURVE",
"1108 776 CURVE SMOOTH",
"1113 772 OFFCURVE",
"1119 772 OFFCURVE",
"1125 777 CURVE SMOOTH",
"1150 798 OFFCURVE",
"1177 810 OFFCURVE",
"1207 812 CURVE SMOOTH",
"1255 815 OFFCURVE",
"1313 798 OFFCURVE",
"1381 759 CURVE",
"1272 702 OFFCURVE",
"1179 669 OFFCURVE",
"1102 663 CURVE SMOOTH",
"1032 657 OFFCURVE",
"961 658 OFFCURVE",
"890 665 CURVE SMOOTH",
"875 666 OFFCURVE",
"873 660 OFFCURVE",
"885 646 CURVE SMOOTH",
"903 625 OFFCURVE",
"936 606 OFFCURVE",
"981 590 CURVE SMOOTH",
"1002 583 OFFCURVE",
"1033 579 OFFCURVE",
"1072 580 CURVE SMOOTH",
"1131 581 OFFCURVE",
"1188 596 OFFCURVE",
"1245 622 CURVE SMOOTH",
"1327 660 OFFCURVE",
"1392 687 OFFCURVE",
"1442 704 CURVE SMOOTH",
"1512 727 OFFCURVE",
"1584 733 OFFCURVE",
"1656 720 CURVE SMOOTH",
"1667 718 OFFCURVE",
"1673 721 OFFCURVE",
"1677 729 CURVE SMOOTH",
"1705 790 LINE SMOOTH",
"1711 803 OFFCURVE",
"1707 809 OFFCURVE",
"1692 808 CURVE SMOOTH",
"1638 804 OFFCURVE",
"1585 807 OFFCURVE",
"1534 817 CURVE SMOOTH",
"1483 827 OFFCURVE",
"1440 838 OFFCURVE",
"1407 852 CURVE SMOOTH",
"1316 890 OFFCURVE",
"1257 909 OFFCURVE",
"1231 909 CURVE SMOOTH",
"1205 909 OFFCURVE",
"1179 894 OFFCURVE",
"1153 867 CURVE SMOOTH",
"1130 843 OFFCURVE",
"1114 817 OFFCURVE",
"1105 788 CURVE SMOOTH"
);
}
);
visible = 1;
width = 750;
}
);
unicode = FEA3;
},
{
color = 5;
glyphname = "dal-ar";
layers = (
{
layerId = "98B9451C-6456-42E9-9BE3-FFE7D6D9360C";
paths = (
{
closed = 1;
nodes = (
"72 0 OFFCURVE",
"30 9 OFFCURVE",
"30 90 CURVE SMOOTH",
"30 107 OFFCURVE",
"36 118 OFFCURVE",
"46 118 CURVE SMOOTH",
"58 118 OFFCURVE",
"64 100 OFFCURVE",
"82 100 CURVE SMOOTH",
"280 100 OFFCURVE",
"298 105 OFFCURVE",
"298 129 CURVE SMOOTH",
"298 212 OFFCURVE",
"150 296 OFFCURVE",
"150 332 CURVE SMOOTH",
"150 350 OFFCURVE",
"170 420 OFFCURVE",
"194 420 CURVE SMOOTH",
"223 420 OFFCURVE",
"348 267 OFFCURVE",
"348 156 CURVE SMOOTH",
"348 29 OFFCURVE",
"267 0 OFFCURVE",
"106 0 CURVE SMOOTH"
);
}
);
width = 378;
},
{
associatedMasterId = "98B9451C-6456-42E9-9BE3-FFE7D6D9360C";
layerId = "D2E7A9A2-C66D-4104-85E0-24E12A662C53";
name = "Sep 9 20, 06:21";
paths = (
{
closed = 1;
nodes = (
"80 0 OFFCURVE",
"60 9 OFFCURVE",
"60 90 CURVE SMOOTH",
"60 107 OFFCURVE",
"72 118 OFFCURVE",
"85 118 CURVE SMOOTH",
"103 118 OFFCURVE",
"109 100 OFFCURVE",
"140 100 CURVE SMOOTH",
"285 100 OFFCURVE",
"317 97 OFFCURVE",
"317 128 CURVE SMOOTH",
"317 164 OFFCURVE",
"145 306 OFFCURVE",
"145 346 CURVE SMOOTH",
"145 373 OFFCURVE",
"179 434 OFFCURVE",
"202 434 CURVE SMOOTH",
"235 434 OFFCURVE",
"387 234 OFFCURVE",
"387 156 CURVE SMOOTH",
"387 120 OFFCURVE",
"362 78 OFFCURVE",
"344 54 CURVE SMOOTH",
"311 10 OFFCURVE",
"203 0 OFFCURVE",
"114 0 CURVE SMOOTH"
);
}
);
width = 404;
}
);
unicode = 062F;
},
{
color = 5;
glyphname = "dal-ar.fina";
layers = (
{
layerId = "98B9451C-6456-42E9-9BE3-FFE7D6D9360C";
paths = (
{
closed = 1;
nodes = (
"446 100 OFFCURVE",
"369 238 OFFCURVE",
"369 394 CURVE SMOOTH",
"369 412 OFFCURVE",
"363 421 OFFCURVE",
"349 421 CURVE SMOOTH",
"333 421 OFFCURVE",
"286 348 OFFCURVE",
"286 325 CURVE SMOOTH",
"286 297 OFFCURVE",
"308 233 OFFCURVE",
"308 196 CURVE SMOOTH",
"308 105 OFFCURVE",
"137 100 OFFCURVE",
"91 100 CURVE SMOOTH",
"62 100 OFFCURVE",
"56 116 OFFCURVE",
"39 116 CURVE SMOOTH",
"23 116 OFFCURVE",
"20 101 OFFCURVE",
"20 88 CURVE SMOOTH",
"20 -1 OFFCURVE",
"39 0 OFFCURVE",
"71 0 CURVE SMOOTH",
"346 0 OFFCURVE",
"326 172 OFFCURVE",
"346 172 CURVE SMOOTH",
"361 172 OFFCURVE",
"391 0 OFFCURVE",
"533 0 CURVE",
"553 50 LINE",
"533 100 LINE"
);
}
);
width = 533;
},
{
associatedMasterId = "98B9451C-6456-42E9-9BE3-FFE7D6D9360C";
layerId = "4E02D24D-5E65-47AF-B9F2-92FA52CEB316";
name = "Oct 1 20, 16:49";
paths = (
{
closed = 1;
nodes = (
"398 100 OFFCURVE",
"369 325 OFFCURVE",
"369 394 CURVE SMOOTH",
"369 412 OFFCURVE",
"363 421 OFFCURVE",
"349 421 CURVE SMOOTH",
"332 421 OFFCURVE",
"283 348 OFFCURVE",
"283 326 CURVE SMOOTH",
"283 298 OFFCURVE",
"308 233 OFFCURVE",
"308 196 CURVE SMOOTH",
"308 105 OFFCURVE",
"137 105 OFFCURVE",
"91 105 CURVE SMOOTH",
"60 105 OFFCURVE",
"56 128 OFFCURVE",
"39 128 CURVE SMOOTH",
"23 128 OFFCURVE",
"20 113 OFFCURVE",
"20 100 CURVE SMOOTH",
"20 11 OFFCURVE",
"39 -12 OFFCURVE",
"71 -12 CURVE SMOOTH",
"346 -12 OFFCURVE",
"326 172 OFFCURVE",
"346 172 CURVE SMOOTH",
"361 172 OFFCURVE",
"391 0 OFFCURVE",
"533 0 CURVE",
"553 50 LINE",
"533 100 LINE"
);
}
);
width = 533;
}
);
unicode = FEAA;
},
{
color = 5;
glyphname = "reh-ar";
layers = (
{
layerId = "98B9451C-6456-42E9-9BE3-FFE7D6D9360C";
paths = (
{
closed = 1;
nodes = (
"124 -252 OFFCURVE",
"-11 -163 OFFCURVE",
"-11 -136 CURVE SMOOTH",
"-11 -127 OFFCURVE",
"-7 -123 OFFCURVE",
"1 -123 CURVE SMOOTH",
"30 -123 OFFCURVE",
"123 -151 OFFCURVE",
"199 -151 CURVE SMOOTH",
"235 -151 OFFCURVE",
"345 -13 OFFCURVE",
"345 36 CURVE SMOOTH",
"345 59 OFFCURVE",
"262 156 OFFCURVE",
"262 178 CURVE SMOOTH",
"262 207 OFFCURVE",
"290 282 OFFCURVE",
"306 282 CURVE SMOOTH",
"326 282 OFFCURVE",
"396 102 OFFCURVE",
"396 64 CURVE SMOOTH",
"396 -11 OFFCURVE",
"330 -252 OFFCURVE",
"207 -252 CURVE SMOOTH"
);
}
);
width = 406;
},
{
associatedMasterId = "98B9451C-6456-42E9-9BE3-FFE7D6D9360C";
layerId = "A11B7869-91C8-4857-A91A-691F55784D17";
name = "Sep 9 20, 07:26";
paths = (
{
closed = 1;
nodes = (
"133 -206 OFFCURVE",
"-30 -128 OFFCURVE",
"-30 -102 CURVE SMOOTH",
"-30 -85 OFFCURVE",
"-22 -77 OFFCURVE",
"-9 -77 CURVE SMOOTH",
"20 -77 OFFCURVE",
"118 -91 OFFCURVE",
"194 -91 CURVE SMOOTH",
"237 -91 OFFCURVE",
"304 62 OFFCURVE",
"304 111 CURVE SMOOTH",
"304 134 OFFCURVE",
"234 207 OFFCURVE",
"234 229 CURVE SMOOTH",
"234 251 OFFCURVE",
"277 335 OFFCURVE",
"292 335 CURVE SMOOTH",
"309 335 OFFCURVE",
"381 175 OFFCURVE",
"381 144 CURVE SMOOTH",
"381 69 OFFCURVE",
"314 -206 OFFCURVE",
"181 -206 CURVE SMOOTH"
);
}
);
width = 401;
},
{
associatedMasterId = "98B9451C-6456-42E9-9BE3-FFE7D6D9360C";
layerId = "E65A3175-4405-46E7-90AF-5C8FA4FBF377";
name = "Sep 9 20, 07:26";
paths = (
{
closed = 1;
nodes = (
"138 -294 OFFCURVE",
"-10 -212 OFFCURVE",
"-10 -176 CURVE SMOOTH",
"-10 -170 OFFCURVE",
"-8 -165 OFFCURVE",
"3 -165 CURVE SMOOTH",
"23 -165 OFFCURVE",
"138 -193 OFFCURVE",
"196 -193 CURVE SMOOTH",
"252 -193 OFFCURVE",
"353 -3 OFFCURVE",
"353 41 CURVE SMOOTH",
"353 53 OFFCURVE",
"352 57 OFFCURVE",
"349 57 CURVE SMOOTH",
"344 57 OFFCURVE",
"290 0 OFFCURVE",
"233 0 CURVE SMOOTH",
"185 0 OFFCURVE",
"143 34 OFFCURVE",
"143 100 CURVE SMOOTH",
"143 191 OFFCURVE",
"229 282 OFFCURVE",
"270 282 CURVE SMOOTH",
"329 282 OFFCURVE",
"395 145 OFFCURVE",
"395 58 CURVE SMOOTH",
"395 -19 OFFCURVE",
"336 -294 OFFCURVE",
"207 -294 CURVE SMOOTH"
);
},
{
closed = 1;
nodes = (
"229 185 OFFCURVE",
"180 145 OFFCURVE",
"180 129 CURVE SMOOTH",
"180 101 OFFCURVE",
"241 95 OFFCURVE",
"256 95 CURVE SMOOTH",
"288 95 OFFCURVE",
"329 107 OFFCURVE",
"329 117 CURVE SMOOTH",
"329 132 OFFCURVE",
"280 185 OFFCURVE",
"259 185 CURVE SMOOTH"
);
}
);
width = 401;
},
{
associatedMasterId = "98B9451C-6456-42E9-9BE3-FFE7D6D9360C";
layerId = "EF0D9BD3-D812-45B1-8ABA-EBCAADD8C2B6";
name = "Oct 1 20, 22:41";
paths = (
{
closed = 1;
nodes = (
"131 -254 OFFCURVE",
"0 -169 OFFCURVE",
"0 -136 CURVE SMOOTH",
"0 -130 OFFCURVE",
"2 -125 OFFCURVE",
"13 -125 CURVE SMOOTH",
"33 -125 OFFCURVE",
"121 -153 OFFCURVE",
"179 -153 CURVE SMOOTH",
"235 -153 OFFCURVE",
"359 -3 OFFCURVE",
"359 41 CURVE SMOOTH",
"359 53 OFFCURVE",
"358 57 OFFCURVE",
"355 57 CURVE SMOOTH",
"350 57 OFFCURVE",
"296 0 OFFCURVE",
"239 0 CURVE SMOOTH",
"191 0 OFFCURVE",
"149 34 OFFCURVE",
"149 100 CURVE SMOOTH",
"149 191 OFFCURVE",
"235 282 OFFCURVE",
"276 282 CURVE SMOOTH",
"335 282 OFFCURVE",
"401 145 OFFCURVE",
"401 58 CURVE SMOOTH",
"401 -19 OFFCURVE",
"319 -254 OFFCURVE",
"190 -254 CURVE SMOOTH"
);
},
{
closed = 1;
nodes = (
"235 185 OFFCURVE",
"186 145 OFFCURVE",
"186 129 CURVE SMOOTH",
"186 101 OFFCURVE",
"247 100 OFFCURVE",
"262 100 CURVE SMOOTH",
"294 100 OFFCURVE",
"335 107 OFFCURVE",
"335 117 CURVE SMOOTH",
"335 132 OFFCURVE",
"286 185 OFFCURVE",
"265 185 CURVE SMOOTH"
);
}
);
visible = 1;
width = 401;
}
);
unicode = 0631;
},
{
color = 5;
glyphname = "reh-ar.fina";
layers = (
{
layerId = "98B9451C-6456-42E9-9BE3-FFE7D6D9360C";
paths = (
{
closed = 1;
nodes = (
"130 -254 OFFCURVE",
"20 -162 OFFCURVE",
"20 -136 CURVE SMOOTH",
"20 -128 OFFCURVE",
"26 -125 OFFCURVE",
"35 -125 CURVE SMOOTH",
"65 -125 OFFCURVE",
"116 -152 OFFCURVE",
"197 -152 CURVE SMOOTH",
"246 -152 OFFCURVE",
"343 0 OFFCURVE",
"343 40 CURVE SMOOTH",
"343 59 OFFCURVE",
"307 97 OFFCURVE",
"307 122 CURVE SMOOTH",
"307 152 OFFCURVE",
"339 211 OFFCURVE",
"356 211 CURVE SMOOTH",
"363 211 OFFCURVE",
"368 206 OFFCURVE",
"372 197 CURVE SMOOTH",
"396 139 OFFCURVE",
"412 100 OFFCURVE",
"440 100 CURVE SMOOTH",
"456 100 LINE",
"476 50 LINE",
"456 0 LINE",
"423 0 LINE",
"396 0 OFFCURVE",
"343 -254 OFFCURVE",
"206 -254 CURVE SMOOTH"
);
}
);
width = 456;
},
{
associatedMasterId = "98B9451C-6456-42E9-9BE3-FFE7D6D9360C";
layerId = "1EBEEB22-A5F1-4477-8803-5CEC83E2CDDA";
name = "Sep 9 20, 07:29";
paths = (
{
closed = 1;
nodes = (
"139 -206 OFFCURVE",
"-30 -128 OFFCURVE",
"-30 -102 CURVE SMOOTH",
"-30 -83 OFFCURVE",
"-21 -76 OFFCURVE",
"-7 -76 CURVE SMOOTH",
"23 -76 OFFCURVE",
"107 -92 OFFCURVE",
"192 -92 CURVE SMOOTH",
"239 -92 OFFCURVE",
"304 66 OFFCURVE",
"304 111 CURVE SMOOTH",
"304 136 OFFCURVE",
"235 205 OFFCURVE",
"235 228 CURVE SMOOTH",
"235 253 OFFCURVE",
"275 335 OFFCURVE",
"292 335 CURVE SMOOTH",
"330 335 OFFCURVE",
"360 100 OFFCURVE",
"436 100 CURVE",
"436 0 LINE",
"410 0 OFFCURVE",
"380 26 OFFCURVE",
"360 26 CURVE SMOOTH",
"333 26 OFFCURVE",
"311 -206 OFFCURVE",
"177 -206 CURVE SMOOTH"
);
}
);
width = 436;
},
{
associatedMasterId = "98B9451C-6456-42E9-9BE3-FFE7D6D9360C";
layerId = "BC2AA40A-EA7E-4144-B6BA-19B88DF843DA";
name = "Sep 15 20, 21:34";
paths = (
{
closed = 1;
nodes = (
"123 -254 OFFCURVE",
"-8 -169 OFFCURVE",
"-8 -136 CURVE SMOOTH",
"-8 -130 OFFCURVE",
"-6 -125 OFFCURVE",
"5 -125 CURVE SMOOTH",
"25 -125 OFFCURVE",
"113 -153 OFFCURVE",
"171 -153 CURVE SMOOTH",
"227 -153 OFFCURVE",
"351 -3 OFFCURVE",
"351 41 CURVE SMOOTH",
"351 53 OFFCURVE",
"350 57 OFFCURVE",
"347 57 CURVE SMOOTH",
"342 57 OFFCURVE",
"288 0 OFFCURVE",
"231 0 CURVE SMOOTH",
"183 0 OFFCURVE",
"141 34 OFFCURVE",
"141 100 CURVE SMOOTH",
"141 191 OFFCURVE",
"227 282 OFFCURVE",
"268 282 CURVE SMOOTH",
"327 282 OFFCURVE",
"393 145 OFFCURVE",
"393 58 CURVE SMOOTH",
"393 -19 OFFCURVE",
"311 -254 OFFCURVE",
"182 -254 CURVE SMOOTH"
);
},
{
closed = 1;
nodes = (
"227 185 OFFCURVE",
"178 145 OFFCURVE",
"178 129 CURVE SMOOTH",
"178 101 OFFCURVE",
"239 100 OFFCURVE",
"254 100 CURVE SMOOTH",
"286 100 OFFCURVE",
"327 107 OFFCURVE",
"327 117 CURVE SMOOTH",
"327 132 OFFCURVE",
"278 185 OFFCURVE",
"257 185 CURVE SMOOTH"
);
}
);
visible = 1;
width = 436;
}
);
unicode = FEAE;
},
{
color = 5;
glyphname = "seen-ar";
layers = (
{
layerId = "98B9451C-6456-42E9-9BE3-FFE7D6D9360C";
paths = (
{
closed = 1;
nodes = (
"85 -320 OFFCURVE",
"20 -214 OFFCURVE",
"20 -136 CURVE SMOOTH",
"20 -4 OFFCURVE",
"76 100 OFFCURVE",
"96 100 CURVE SMOOTH",
"110 100 OFFCURVE",
"114 89 OFFCURVE",
"114 74 CURVE SMOOTH",
"114 54 OFFCURVE",
"88 2 OFFCURVE",
"88 -54 CURVE SMOOTH",
"88 -176 OFFCURVE",
"195 -220 OFFCURVE",
"346 -220 CURVE SMOOTH",
"463 -220 OFFCURVE",
"586 -167 OFFCURVE",
"586 -118 CURVE SMOOTH",
"586 -29 OFFCURVE",
"517 89 OFFCURVE",
"517 119 CURVE SMOOTH",
"517 139 OFFCURVE",
"567 211 OFFCURVE",
"591 211 CURVE SMOOTH",
"610 211 OFFCURVE",
"614 167 OFFCURVE",
"621 148 CURVE SMOOTH",
"633 116 OFFCURVE",
"653 100 OFFCURVE",
"686 100 CURVE SMOOTH",
"763 100 OFFCURVE",
"799 211 OFFCURVE",
"825 211 CURVE SMOOTH",
"836 211 OFFCURVE",
"841 202 OFFCURVE",
"841 189 CURVE SMOOTH",
"841 133 OFFCURVE",
"887 100 OFFCURVE",
"922 100 CURVE SMOOTH",
"965 100 OFFCURVE",
"991 121 OFFCURVE",
"991 140 CURVE SMOOTH",
"991 170 OFFCURVE",
"940 200 OFFCURVE",
"940 227 CURVE SMOOTH",
"940 260 OFFCURVE",
"965 325 OFFCURVE",
"981 325 CURVE SMOOTH",
"1007 325 OFFCURVE",
"1047 242 OFFCURVE",
"1047 175 CURVE SMOOTH",
"1047 71 OFFCURVE",
"990 0 OFFCURVE",
"903 0 CURVE SMOOTH",
"830 0 OFFCURVE",
"814 66 OFFCURVE",
"794 66 CURVE SMOOTH",
"777 66 OFFCURVE",
"768 0 OFFCURVE",
"668 0 CURVE SMOOTH",
"657 0 OFFCURVE",
"653 -10 OFFCURVE",
"653 -19 CURVE SMOOTH",
"653 -159 OFFCURVE",
"589 -320 OFFCURVE",
"292 -320 CURVE SMOOTH"
);
}
);
width = 1067;
},
{
associatedMasterId = "98B9451C-6456-42E9-9BE3-FFE7D6D9360C";
layerId = "355A69B8-B965-49B8-B65F-97D375A2CA53";
name = "Oct 6 20, 07:01";
paths = (
{
closed = 1;
nodes = (
"75 -320 OFFCURVE",
"10 -214 OFFCURVE",
"10 -136 CURVE SMOOTH",
"10 -4 OFFCURVE",
"66 100 OFFCURVE",
"86 100 CURVE SMOOTH",
"100 100 OFFCURVE",
"107 89 OFFCURVE",
"107 74 CURVE SMOOTH",
"107 54 OFFCURVE",
"85 2 OFFCURVE",
"85 -54 CURVE SMOOTH",
"85 -176 OFFCURVE",
"185 -220 OFFCURVE",
"336 -220 CURVE SMOOTH",
"453 -220 OFFCURVE",
"576 -167 OFFCURVE",
"576 -118 CURVE SMOOTH",
"576 -29 OFFCURVE",
"507 89 OFFCURVE",
"507 119 CURVE SMOOTH",
"507 139 OFFCURVE",
"557 211 OFFCURVE",
"581 211 CURVE SMOOTH",
"600 211 OFFCURVE",
"604 167 OFFCURVE",
"611 148 CURVE SMOOTH",
"623 116 OFFCURVE",
"643 100 OFFCURVE",
"676 100 CURVE SMOOTH",
"753 100 OFFCURVE",
"799 211 OFFCURVE",
"825 211 CURVE SMOOTH",
"836 211 OFFCURVE",
"841 202 OFFCURVE",
"841 189 CURVE SMOOTH",
"841 133 OFFCURVE",
"897 100 OFFCURVE",
"942 100 CURVE SMOOTH",
"995 100 OFFCURVE",
"1041 121 OFFCURVE",
"1041 140 CURVE SMOOTH",
"1041 170 OFFCURVE",
"990 200 OFFCURVE",
"990 227 CURVE SMOOTH",
"990 260 OFFCURVE",
"1015 325 OFFCURVE",
"1031 325 CURVE SMOOTH",
"1057 325 OFFCURVE",
"1097 242 OFFCURVE",
"1097 175 CURVE SMOOTH",
"1097 71 OFFCURVE",
"1020 0 OFFCURVE",
"933 0 CURVE SMOOTH",
"830 0 OFFCURVE",
"800 66 OFFCURVE",
"790 66 CURVE SMOOTH",
"773 66 OFFCURVE",
"748 0 OFFCURVE",
"658 0 CURVE SMOOTH",
"647 0 OFFCURVE",
"643 -10 OFFCURVE",
"643 -19 CURVE SMOOTH",
"643 -159 OFFCURVE",
"579 -320 OFFCURVE",
"282 -320 CURVE SMOOTH"
);
}
);
width = 1127;
},
{
associatedMasterId = "98B9451C-6456-42E9-9BE3-FFE7D6D9360C";
layerId = "699018AF-CF80-4690-A145-EEAE4A819EA4";
name = "Oct 6 20, 07:01";
paths = (
{
closed = 1;
nodes = (
"731 0 CURVE SMOOTH",
"655 0 OFFCURVE",
"643 66 OFFCURVE",
"632 66 CURVE SMOOTH",
"617 66 OFFCURVE",
"581 0 OFFCURVE",
"470 0 CURVE",
"450 50 LINE",
"470 100 LINE",
"601 100 OFFCURVE",
"635 211 OFFCURVE",
"662 211 CURVE SMOOTH",
"670 211 OFFCURVE",
"676 202 OFFCURVE",
"676 188 CURVE SMOOTH",
"676 135 OFFCURVE",
"694 100 OFFCURVE",
"743 100 CURVE SMOOTH",
"812 100 OFFCURVE",
"843 211 OFFCURVE",
"874 211 CURVE SMOOTH",
"884 211 OFFCURVE",
"891 204 OFFCURVE",
"891 188 CURVE SMOOTH",
"891 146 OFFCURVE",
"926 100 OFFCURVE",
"972 100 CURVE SMOOTH",
"1007 100 OFFCURVE",
"1041 118 OFFCURVE",
"1041 140 CURVE SMOOTH",
"1041 168 OFFCURVE",
"990 201 OFFCURVE",
"990 226 CURVE SMOOTH",
"990 257 OFFCURVE",
"1014 325 OFFCURVE",
"1031 325 CURVE SMOOTH",
"1054 325 OFFCURVE",
"1097 252 OFFCURVE",
"1097 176 CURVE SMOOTH",
"1097 51 OFFCURVE",
"1020 0 OFFCURVE",
"953 0 CURVE SMOOTH",
"878 0 OFFCURVE",
"859 66 OFFCURVE",
"846 66 CURVE SMOOTH",
"827 66 OFFCURVE",
"823 0 OFFCURVE"
);
}
);
visible = 1;
width = 1127;
}
);
unicode = 0633;
},
{
color = 5;
glyphname = "seen-ar.fina";
layers = (
{
layerId = "98B9451C-6456-42E9-9BE3-FFE7D6D9360C";
paths = (
{
closed = 1;
nodes = (
"10 -60 OFFCURVE",
"67 64 OFFCURVE",
"80 64 CURVE SMOOTH",
"88 64 OFFCURVE",
"94 51 OFFCURVE",
"94 44 CURVE SMOOTH",
"94 25 OFFCURVE",
"85 -19 OFFCURVE",
"85 -54 CURVE SMOOTH",
"85 -176 OFFCURVE",
"175 -230 OFFCURVE",
"326 -230 CURVE SMOOTH",
"443 -230 OFFCURVE",
"576 -167 OFFCURVE",
"576 -118 CURVE SMOOTH",
"576 -29 OFFCURVE",
"508 89 OFFCURVE",
"508 119 CURVE SMOOTH",
"508 139 OFFCURVE",
"558 211 OFFCURVE",
"582 211 CURVE SMOOTH",
"601 211 OFFCURVE",
"605 167 OFFCURVE",
"612 148 CURVE SMOOTH",
"624 116 OFFCURVE",
"640 100 OFFCURVE",
"677 100 CURVE SMOOTH",
"777 100 OFFCURVE",
"794 211 OFFCURVE",
"826 211 CURVE SMOOTH",
"836 211 OFFCURVE",
"843 204 OFFCURVE",
"843 188 CURVE SMOOTH",
"843 129 OFFCURVE",
"880 100 OFFCURVE",
"910 100 CURVE SMOOTH",
"945 100 OFFCURVE",
"968 211 OFFCURVE",
"996 211 CURVE SMOOTH",
"1010 211 OFFCURVE",
"1019 201 OFFCURVE",
"1019 182 CURVE SMOOTH",
"1019 116 OFFCURVE",
"1077 100 OFFCURVE",
"1147 100 CURVE",
"1167 50 LINE",
"1147 0 LINE",
"996 0 OFFCURVE",
"971 66 OFFCURVE",
"956 66 CURVE SMOOTH",
"941 66 OFFCURVE",
"927 0 OFFCURVE",
"866 0 CURVE SMOOTH",
"800 0 OFFCURVE",
"791 66 OFFCURVE",
"776 66 CURVE SMOOTH",
"760 66 OFFCURVE",
"738 0 OFFCURVE",
"658 0 CURVE SMOOTH",
"647 0 OFFCURVE",
"643 -10 OFFCURVE",
"643 -19 CURVE SMOOTH",
"643 -159 OFFCURVE",
"569 -330 OFFCURVE",
"272 -330 CURVE SMOOTH",
"65 -330 OFFCURVE",
"10 -214 OFFCURVE",
"10 -136 CURVE SMOOTH"
);
}
);
width = 1147;
},
{
associatedMasterId = "98B9451C-6456-42E9-9BE3-FFE7D6D9360C";
layerId = "7B3781B7-1326-47AD-989A-1EF8BA6DF864";
name = "Sep 23 20, 21:56";
paths = (
{
closed = 1;
nodes = (
"769 0 CURVE SMOOTH",
"709 0 OFFCURVE",
"702 66 OFFCURVE",
"688 66 CURVE SMOOTH",
"675 66 OFFCURVE",
"651 0 OFFCURVE",
"577 0 CURVE",
"557 50 LINE",
"577 100 LINE",
"686 100 OFFCURVE",
"729 211 OFFCURVE",
"763 211 CURVE SMOOTH",
"776 211 OFFCURVE",
"780 205 OFFCURVE",
"780 188 CURVE SMOOTH",
"780 139 OFFCURVE",
"789 100 OFFCURVE",
"828 100 CURVE SMOOTH",
"864 100 OFFCURVE",
"894 211 OFFCURVE",
"926 211 CURVE SMOOTH",
"936 211 OFFCURVE",
"943 204 OFFCURVE",
"943 188 CURVE SMOOTH",
"943 129 OFFCURVE",
"980 100 OFFCURVE",
"1011 100 CURVE SMOOTH",
"1045 100 OFFCURVE",
"1068 211 OFFCURVE",
"1096 211 CURVE SMOOTH",
"1110 211 OFFCURVE",
"1119 201 OFFCURVE",
"1119 182 CURVE SMOOTH",
"1119 116 OFFCURVE",
"1177 100 OFFCURVE",
"1247 100 CURVE",
"1267 50 LINE",
"1247 0 LINE",
"1096 0 OFFCURVE",
"1071 66 OFFCURVE",
"1056 66 CURVE SMOOTH",
"1041 66 OFFCURVE",
"1027 0 OFFCURVE",
"966 0 CURVE SMOOTH",
"903 0 OFFCURVE",
"885 66 OFFCURVE",
"870 66 CURVE SMOOTH",
"856 66 OFFCURVE",
"839 0 OFFCURVE"
);
}
);
visible = 1;
width = 1247;
},
{
associatedMasterId = "98B9451C-6456-42E9-9BE3-FFE7D6D9360C";
layerId = "FAD0F902-90AC-4240-823F-52B2D28219D5";
name = "Sep 23 20, 21:57";
paths = (
{
closed = 1;
nodes = (
"166 -330 OFFCURVE",
"111 -214 OFFCURVE",
"111 -136 CURVE SMOOTH",
"111 -60 OFFCURVE",
"168 64 OFFCURVE",
"181 64 CURVE SMOOTH",
"189 64 OFFCURVE",
"195 51 OFFCURVE",
"195 44 CURVE SMOOTH",
"195 25 OFFCURVE",
"186 -19 OFFCURVE",
"186 -54 CURVE SMOOTH",
"186 -176 OFFCURVE",
"276 -230 OFFCURVE",
"427 -230 CURVE SMOOTH",
"544 -230 OFFCURVE",
"677 -167 OFFCURVE",
"677 -118 CURVE SMOOTH",
"677 -29 OFFCURVE",
"608 89 OFFCURVE",
"608 119 CURVE SMOOTH",
"608 139 OFFCURVE",
"658 211 OFFCURVE",
"682 211 CURVE SMOOTH",
"701 211 OFFCURVE",
"705 167 OFFCURVE",
"712 148 CURVE SMOOTH",
"724 116 OFFCURVE",
"744 100 OFFCURVE",
"777 100 CURVE SMOOTH",
"854 100 OFFCURVE",
"900 211 OFFCURVE",
"926 211 CURVE SMOOTH",
"937 211 OFFCURVE",
"942 202 OFFCURVE",
"942 189 CURVE SMOOTH",
"942 133 OFFCURVE",
"998 100 OFFCURVE",
"1043 100 CURVE SMOOTH",
"1096 100 OFFCURVE",
"1142 121 OFFCURVE",
"1142 140 CURVE SMOOTH",
"1142 170 OFFCURVE",
"1091 200 OFFCURVE",
"1091 227 CURVE SMOOTH",
"1091 260 OFFCURVE",
"1116 325 OFFCURVE",
"1132 325 CURVE SMOOTH",
"1158 325 OFFCURVE",
"1198 242 OFFCURVE",
"1198 175 CURVE SMOOTH",
"1198 71 OFFCURVE",
"1121 0 OFFCURVE",
"1034 0 CURVE SMOOTH",
"931 0 OFFCURVE",
"901 66 OFFCURVE",
"891 66 CURVE SMOOTH",
"874 66 OFFCURVE",
"849 0 OFFCURVE",
"759 0 CURVE SMOOTH",
"748 0 OFFCURVE",
"744 -10 OFFCURVE",
"744 -19 CURVE SMOOTH",
"744 -159 OFFCURVE",
"670 -330 OFFCURVE",
"373 -330 CURVE SMOOTH"
);
}
);
visible = 1;
width = 1247;
}
);
unicode = FEB2;
},
{
color = 5;
glyphname = "seen-ar.medi";
layers = (
{
anchors = (
{
name = bottom;
position = "{317, -58}";
},
{
name = top;
position = "{358, 257}";
}
);
layerId = "98B9451C-6456-42E9-9BE3-FFE7D6D9360C";
paths = (
{
closed = 1;
nodes = (
"222 0 CURVE SMOOTH",
"162 0 OFFCURVE",
"155 66 OFFCURVE",
"141 66 CURVE SMOOTH",
"128 66 OFFCURVE",
"91 0 OFFCURVE",
"0 0 CURVE",
"-20 50 LINE",
"0 100 LINE",
"139 100 OFFCURVE",
"182 211 OFFCURVE",
"216 211 CURVE SMOOTH",
"229 211 OFFCURVE",
"233 205 OFFCURVE",
"233 188 CURVE SMOOTH",
"233 139 OFFCURVE",
"242 100 OFFCURVE",
"281 100 CURVE SMOOTH",
"317 100 OFFCURVE",
"347 211 OFFCURVE",
"379 211 CURVE SMOOTH",
"389 211 OFFCURVE",
"396 204 OFFCURVE",
"396 188 CURVE SMOOTH",
"396 129 OFFCURVE",
"433 100 OFFCURVE",
"464 100 CURVE SMOOTH",
"498 100 OFFCURVE",
"521 211 OFFCURVE",
"549 211 CURVE SMOOTH",
"563 211 OFFCURVE",
"572 201 OFFCURVE",
"572 182 CURVE SMOOTH",
"572 116 OFFCURVE",
"630 100 OFFCURVE",
"670 100 CURVE",
"690 50 LINE",
"670 0 LINE",
"549 0 OFFCURVE",
"524 66 OFFCURVE",
"509 66 CURVE SMOOTH",
"494 66 OFFCURVE",
"480 0 OFFCURVE",
"419 0 CURVE SMOOTH",
"356 0 OFFCURVE",
"338 66 OFFCURVE",
"323 66 CURVE SMOOTH",
"309 66 OFFCURVE",
"292 0 OFFCURVE"
);
}
);
width = 670;
},
{
anchors = (
{
name = bottom;
position = "{317, -58}";
},
{
name = top;
position = "{358, 257}";
}
);
associatedMasterId = "98B9451C-6456-42E9-9BE3-FFE7D6D9360C";
layerId = "0DF540FA-A5C3-476D-9C23-1A1974E01E0B";
name = "Oct 2 20, 21:34";
paths = (
{
closed = 1;
nodes = (
"192 0 CURVE SMOOTH",
"132 0 OFFCURVE",
"125 66 OFFCURVE",
"111 66 CURVE SMOOTH",
"98 66 OFFCURVE",
"74 0 OFFCURVE",
"0 0 CURVE",
"-20 50 LINE",
"0 100 LINE",
"109 100 OFFCURVE",
"152 211 OFFCURVE",
"186 211 CURVE SMOOTH",
"199 211 OFFCURVE",
"203 205 OFFCURVE",
"203 188 CURVE SMOOTH",
"203 139 OFFCURVE",
"212 100 OFFCURVE",
"251 100 CURVE SMOOTH",
"287 100 OFFCURVE",
"317 211 OFFCURVE",
"349 211 CURVE SMOOTH",
"359 211 OFFCURVE",
"366 204 OFFCURVE",
"366 188 CURVE SMOOTH",
"366 129 OFFCURVE",
"403 100 OFFCURVE",
"434 100 CURVE SMOOTH",
"468 100 OFFCURVE",
"491 211 OFFCURVE",
"519 211 CURVE SMOOTH",
"533 211 OFFCURVE",
"542 201 OFFCURVE",
"542 182 CURVE SMOOTH",
"542 116 OFFCURVE",
"600 100 OFFCURVE",
"670 100 CURVE",
"690 50 LINE",
"670 0 LINE",
"519 0 OFFCURVE",
"494 66 OFFCURVE",
"479 66 CURVE SMOOTH",
"464 66 OFFCURVE",
"450 0 OFFCURVE",
"389 0 CURVE SMOOTH",
"326 0 OFFCURVE",
"308 66 OFFCURVE",
"293 66 CURVE SMOOTH",
"279 66 OFFCURVE",
"262 0 OFFCURVE"
);
}
);
visible = 1;
width = 670;
},
{
anchors = (
{
name = bottom;
position = "{317, -58}";
},
{
name = top;
position = "{358, 257}";
}
);
associatedMasterId = "98B9451C-6456-42E9-9BE3-FFE7D6D9360C";
layerId = "6227E093-124C-495D-A526-CE2A790E6EE6";
name = "Oct 6 20, 06:49";
paths = (
{
closed = 1;
nodes = (
"279 66 OFFCURVE",
"262 0 OFFCURVE",
"192 0 CURVE SMOOTH",
"132 0 OFFCURVE",
"125 66 OFFCURVE",
"111 66 CURVE SMOOTH",
"98 66 OFFCURVE",
"74 0 OFFCURVE",
"0 0 CURVE",
"-20 50 LINE",
"0 100 LINE",
"109 100 OFFCURVE",
"152 211 OFFCURVE",
"186 211 CURVE SMOOTH",
"199 211 OFFCURVE",
"203 205 OFFCURVE",
"203 188 CURVE SMOOTH",
"203 139 OFFCURVE",
"212 100 OFFCURVE",
"251 100 CURVE SMOOTH",
"287 100 OFFCURVE",
"317 211 OFFCURVE",
"349 211 CURVE SMOOTH",
"359 211 OFFCURVE",
"366 204 OFFCURVE",
"366 188 CURVE SMOOTH",
"366 129 OFFCURVE",
"403 100 OFFCURVE",
"434 100 CURVE SMOOTH",
"468 100 OFFCURVE",
"491 211 OFFCURVE",
"519 211 CURVE SMOOTH",
"533 211 OFFCURVE",
"542 201 OFFCURVE",
"542 182 CURVE SMOOTH",
"542 116 OFFCURVE",
"600 100 OFFCURVE",
"670 100 CURVE",
"690 50 LINE",
"670 0 LINE",
"519 0 OFFCURVE",
"494 66 OFFCURVE",
"479 66 CURVE SMOOTH",
"464 66 OFFCURVE",
"450 0 OFFCURVE",
"389 0 CURVE SMOOTH",
"326 0 OFFCURVE",
"308 66 OFFCURVE",
"293 66 CURVE SMOOTH"
);
}
);
width = 670;
}
);
unicode = FEB4;
},
{
color = 5;
glyphname = "seen-ar.init";
layers = (
{
layerId = "98B9451C-6456-42E9-9BE3-FFE7D6D9360C";
paths = (
{
closed = 1;
nodes = (
"261 0 CURVE SMOOTH",
"185 0 OFFCURVE",
"173 66 OFFCURVE",
"162 66 CURVE SMOOTH",
"147 66 OFFCURVE",
"111 0 OFFCURVE",
"0 0 CURVE",
"-20 50 LINE",
"0 100 LINE",
"131 100 OFFCURVE",
"165 211 OFFCURVE",
"192 211 CURVE SMOOTH",
"200 211 OFFCURVE",
"206 202 OFFCURVE",
"206 188 CURVE SMOOTH",
"206 135 OFFCURVE",
"224 100 OFFCURVE",
"273 100 CURVE SMOOTH",
"342 100 OFFCURVE",
"373 211 OFFCURVE",
"404 211 CURVE SMOOTH",
"414 211 OFFCURVE",
"421 204 OFFCURVE",
"421 188 CURVE SMOOTH",
"421 146 OFFCURVE",
"456 100 OFFCURVE",
"502 100 CURVE SMOOTH",
"537 100 OFFCURVE",
"571 118 OFFCURVE",
"571 140 CURVE SMOOTH",
"571 168 OFFCURVE",
"520 201 OFFCURVE",
"520 226 CURVE SMOOTH",
"520 257 OFFCURVE",
"544 325 OFFCURVE",
"561 325 CURVE SMOOTH",
"584 325 OFFCURVE",
"627 252 OFFCURVE",
"627 176 CURVE SMOOTH",
"627 51 OFFCURVE",
"550 0 OFFCURVE",
"483 0 CURVE SMOOTH",
"408 0 OFFCURVE",
"389 66 OFFCURVE",
"376 66 CURVE SMOOTH",
"357 66 OFFCURVE",
"353 0 OFFCURVE"
);
}
);
width = 647;
},
{
associatedMasterId = "98B9451C-6456-42E9-9BE3-FFE7D6D9360C";
layerId = "8F3472B4-90C7-46A4-B26B-1D830496D3D2";
name = "Sep 23 20, 20:53";
paths = (
{
closed = 1;
nodes = (
"-425 -330 OFFCURVE",
"-480 -214 OFFCURVE",
"-480 -136 CURVE SMOOTH",
"-480 -60 OFFCURVE",
"-423 64 OFFCURVE",
"-410 64 CURVE SMOOTH",
"-402 64 OFFCURVE",
"-396 51 OFFCURVE",
"-396 44 CURVE SMOOTH",
"-396 25 OFFCURVE",
"-405 -19 OFFCURVE",
"-405 -54 CURVE SMOOTH",
"-405 -176 OFFCURVE",
"-315 -230 OFFCURVE",
"-164 -230 CURVE SMOOTH",
"-47 -230 OFFCURVE",
"86 -167 OFFCURVE",
"86 -118 CURVE SMOOTH",
"86 -29 OFFCURVE",
"17 89 OFFCURVE",
"17 119 CURVE SMOOTH",
"17 139 OFFCURVE",
"67 211 OFFCURVE",
"91 211 CURVE SMOOTH",
"110 211 OFFCURVE",
"114 167 OFFCURVE",
"121 148 CURVE SMOOTH",
"133 116 OFFCURVE",
"153 100 OFFCURVE",
"186 100 CURVE SMOOTH",
"263 100 OFFCURVE",
"309 211 OFFCURVE",
"335 211 CURVE SMOOTH",
"346 211 OFFCURVE",
"351 202 OFFCURVE",
"351 189 CURVE SMOOTH",
"351 133 OFFCURVE",
"407 100 OFFCURVE",
"452 100 CURVE SMOOTH",
"505 100 OFFCURVE",
"551 121 OFFCURVE",
"551 140 CURVE SMOOTH",
"551 170 OFFCURVE",
"500 200 OFFCURVE",
"500 227 CURVE SMOOTH",
"500 260 OFFCURVE",
"525 325 OFFCURVE",
"541 325 CURVE SMOOTH",
"567 325 OFFCURVE",
"607 242 OFFCURVE",
"607 175 CURVE SMOOTH",
"607 71 OFFCURVE",
"530 0 OFFCURVE",
"443 0 CURVE SMOOTH",
"340 0 OFFCURVE",
"310 66 OFFCURVE",
"300 66 CURVE SMOOTH",
"283 66 OFFCURVE",
"258 0 OFFCURVE",
"168 0 CURVE SMOOTH",
"157 0 OFFCURVE",
"153 -10 OFFCURVE",
"153 -19 CURVE SMOOTH",
"153 -159 OFFCURVE",
"79 -330 OFFCURVE",
"-218 -330 CURVE SMOOTH"
);
}
);
width = 607;
},
{
associatedMasterId = "98B9451C-6456-42E9-9BE3-FFE7D6D9360C";
layerId = "D632EB3C-544C-42BB-BF18-9739D2CA2AFA";
name = "Oct 1 20, 16:41";
paths = (
{
closed = 1;
nodes = (
"201 0 CURVE SMOOTH",
"125 0 OFFCURVE",
"113 66 OFFCURVE",
"102 66 CURVE SMOOTH",
"87 66 OFFCURVE",
"79 0 OFFCURVE",
"0 0 CURVE",
"-20 50 LINE",
"0 100 LINE",
"71 100 OFFCURVE",
"105 211 OFFCURVE",
"132 211 CURVE SMOOTH",
"140 211 OFFCURVE",
"146 202 OFFCURVE",
"146 188 CURVE SMOOTH",
"146 135 OFFCURVE",
"164 100 OFFCURVE",
"213 100 CURVE SMOOTH",
"272 100 OFFCURVE",
"333 211 OFFCURVE",
"364 211 CURVE SMOOTH",
"374 211 OFFCURVE",
"381 204 OFFCURVE",
"381 188 CURVE SMOOTH",
"381 146 OFFCURVE",
"406 100 OFFCURVE",
"462 100 CURVE SMOOTH",
"497 100 OFFCURVE",
"551 118 OFFCURVE",
"551 140 CURVE SMOOTH",
"551 168 OFFCURVE",
"500 201 OFFCURVE",
"500 226 CURVE SMOOTH",
"500 257 OFFCURVE",
"524 325 OFFCURVE",
"541 325 CURVE SMOOTH",
"564 325 OFFCURVE",
"607 252 OFFCURVE",
"607 176 CURVE SMOOTH",
"607 51 OFFCURVE",
"510 0 OFFCURVE",
"443 0 CURVE SMOOTH",
"358 0 OFFCURVE",
"349 66 OFFCURVE",
"336 66 CURVE SMOOTH",
"317 66 OFFCURVE",
"283 0 OFFCURVE"
);
}
);
width = 607;
},
{
associatedMasterId = "98B9451C-6456-42E9-9BE3-FFE7D6D9360C";
layerId = "4DF1D192-1AA1-40A6-ABBD-6A8DD807A358";
name = "Oct 6 20, 06:56";
paths = (
{
closed = 1;
nodes = (
"201 0 CURVE SMOOTH",
"122 0 OFFCURVE",
"104 66 OFFCURVE",
"92 66 CURVE SMOOTH",
"80 66 OFFCURVE",
"69 0 OFFCURVE",
"0 0 CURVE",
"-20 50 LINE",
"0 100 LINE",
"66 100 OFFCURVE",
"102 211 OFFCURVE",
"132 211 CURVE SMOOTH",
"141 211 OFFCURVE",
"146 200 OFFCURVE",
"146 183 CURVE SMOOTH",
"146 147 OFFCURVE",
"168 100 OFFCURVE",
"213 100 CURVE SMOOTH",
"283 100 OFFCURVE",
"337 211 OFFCURVE",
"374 211 CURVE SMOOTH",
"387 211 OFFCURVE",
"391 196 OFFCURVE",
"391 182 CURVE SMOOTH",
"391 145 OFFCURVE",
"431 100 OFFCURVE",
"482 100 CURVE SMOOTH",
"512 100 OFFCURVE",
"551 115 OFFCURVE",
"551 140 CURVE SMOOTH",
"551 168 OFFCURVE",
"500 196 OFFCURVE",
"500 226 CURVE SMOOTH",
"500 245 OFFCURVE",
"519 325 OFFCURVE",
"541 325 CURVE SMOOTH",
"559 325 OFFCURVE",
"607 270 OFFCURVE",
"607 176 CURVE SMOOTH",
"607 69 OFFCURVE",
"547 0 OFFCURVE",
"463 0 CURVE SMOOTH",
"381 0 OFFCURVE",
"342 66 OFFCURVE",
"326 66 CURVE SMOOTH",
"310 66 OFFCURVE",
"280 0 OFFCURVE"
);
}
);
width = 607;
}
);
unicode = FEB3;
},
{
color = 5;
glyphname = "sad-ar";
layers = (
{
layerId = "98B9451C-6456-42E9-9BE3-FFE7D6D9360C";
paths = (
{
closed = 1;
nodes = (
"781 104 OFFCURVE",
"785 100 OFFCURVE",
"797 100 CURVE SMOOTH",
"1087 100 LINE SMOOTH",
"1098 100 OFFCURVE",
"1106 103 OFFCURVE",
"1106 114 CURVE SMOOTH",
"1106 129 OFFCURVE",
"1020 219 OFFCURVE",
"977 219 CURVE SMOOTH",
"912 219 OFFCURVE",
"781 128 OFFCURVE",
"781 112 CURVE SMOOTH"
);
},
{
closed = 1;
nodes = (
"10 -4 OFFCURVE",
"66 100 OFFCURVE",
"86 100 CURVE SMOOTH",
"100 100 OFFCURVE",
"107 89 OFFCURVE",
"107 74 CURVE SMOOTH",
"107 54 OFFCURVE",
"85 2 OFFCURVE",
"85 -54 CURVE SMOOTH",
"85 -176 OFFCURVE",
"185 -220 OFFCURVE",
"336 -220 CURVE SMOOTH",
"453 -220 OFFCURVE",
"576 -167 OFFCURVE",
"576 -118 CURVE SMOOTH",
"576 -29 OFFCURVE",
"507 89 OFFCURVE",
"507 119 CURVE SMOOTH",
"507 139 OFFCURVE",
"557 211 OFFCURVE",
"581 211 CURVE SMOOTH",
"600 211 OFFCURVE",
"604 167 OFFCURVE",
"611 148 CURVE SMOOTH",
"623 116 OFFCURVE",
"643 100 OFFCURVE",
"676 100 CURVE SMOOTH",
"692 100 OFFCURVE",
"716 109 OFFCURVE",
"726 120 CURVE SMOOTH",
"818 216 OFFCURVE",
"911 325 OFFCURVE",
"1023 325 CURVE SMOOTH",
"1072 325 OFFCURVE",
"1180 224 OFFCURVE",
"1180 141 CURVE SMOOTH",
"1180 95 OFFCURVE",
"1120 0 OFFCURVE",
"1040 0 CURVE SMOOTH",
"658 0 LINE SMOOTH",
"647 0 OFFCURVE",
"643 -10 OFFCURVE",
"643 -19 CURVE SMOOTH",
"643 -159 OFFCURVE",
"579 -320 OFFCURVE",
"282 -320 CURVE SMOOTH",
"75 -320 OFFCURVE",
"10 -214 OFFCURVE",
"10 -136 CURVE SMOOTH"
);
}
);
width = 1180;
},
{
associatedMasterId = "98B9451C-6456-42E9-9BE3-FFE7D6D9360C";
layerId = "8B3A236B-B684-4082-A57D-0E7779147C9A";
name = "Sep 23 20, 23:22";
paths = (
{
closed = 1;
nodes = (
"138 -350 OFFCURVE",
"110 -214 OFFCURVE",
"110 -136 CURVE SMOOTH",
"110 -67 OFFCURVE",
"177 84 OFFCURVE",
"190 84 CURVE SMOOTH",
"198 84 OFFCURVE",
"204 71 OFFCURVE",
"204 64 CURVE SMOOTH",
"204 45 OFFCURVE",
"185 -19 OFFCURVE",
"185 -54 CURVE SMOOTH",
"185 -176 OFFCURVE",
"275 -230 OFFCURVE",
"366 -230 CURVE SMOOTH",
"483 -230 OFFCURVE",
"616 -173 OFFCURVE",
"616 -124 CURVE SMOOTH",
"616 -35 OFFCURVE",
"517 132 OFFCURVE",
"517 162 CURVE SMOOTH",
"517 182 OFFCURVE",
"558 254 OFFCURVE",
"586 254 CURVE SMOOTH",
"607 254 OFFCURVE",
"634 100 OFFCURVE",
"668 100 CURVE SMOOTH",
"728 100 OFFCURVE",
"895 319 OFFCURVE",
"1055 319 CURVE SMOOTH",
"1131 319 OFFCURVE",
"1192 247 OFFCURVE",
"1192 204 CURVE SMOOTH",
"1192 79 OFFCURVE",
"1048 0 OFFCURVE",
"688 0 CURVE",
"677 -2 OFFCURVE",
"673 -10 OFFCURVE",
"673 -19 CURVE SMOOTH",
"673 -159 OFFCURVE",
"609 -350 OFFCURVE",
"312 -350 CURVE SMOOTH"
);
},
{
closed = 1;
nodes = (
"946 99 OFFCURVE",
"1112 128 OFFCURVE",
"1112 169 CURVE SMOOTH",
"1112 189 OFFCURVE",
"1022 218 OFFCURVE",
"989 218 CURVE SMOOTH",
"928 218 OFFCURVE",
"780 141 OFFCURVE",
"780 114 CURVE SMOOTH",
"780 103 OFFCURVE",
"789 99 OFFCURVE",
"800 99 CURVE SMOOTH"
);
}
);
width = 1140;
},
{
associatedMasterId = "98B9451C-6456-42E9-9BE3-FFE7D6D9360C";
layerId = "0F96E92C-CDE5-4565-A461-D3EC8136A9C2";
name = "Sep 23 20, 23:23";
paths = (
{
closed = 1;
nodes = (
"75 -320 OFFCURVE",
"10 -214 OFFCURVE",
"10 -136 CURVE SMOOTH",
"10 -4 OFFCURVE",
"66 100 OFFCURVE",
"86 100 CURVE SMOOTH",
"100 100 OFFCURVE",
"107 89 OFFCURVE",
"107 74 CURVE SMOOTH",
"107 54 OFFCURVE",
"85 2 OFFCURVE",
"85 -54 CURVE SMOOTH",
"85 -176 OFFCURVE",
"185 -220 OFFCURVE",
"336 -220 CURVE SMOOTH",
"453 -220 OFFCURVE",
"576 -167 OFFCURVE",
"576 -118 CURVE SMOOTH",
"576 -29 OFFCURVE",
"507 89 OFFCURVE",
"507 119 CURVE SMOOTH",
"507 139 OFFCURVE",
"557 211 OFFCURVE",
"581 211 CURVE SMOOTH",
"600 211 OFFCURVE",
"604 167 OFFCURVE",
"611 148 CURVE SMOOTH",
"623 116 OFFCURVE",
"643 100 OFFCURVE",
"676 100 CURVE SMOOTH",
"753 100 OFFCURVE",
"799 211 OFFCURVE",
"825 211 CURVE SMOOTH",
"836 211 OFFCURVE",
"841 202 OFFCURVE",
"841 189 CURVE SMOOTH",
"841 133 OFFCURVE",
"897 100 OFFCURVE",
"942 100 CURVE SMOOTH",
"995 100 OFFCURVE",
"1041 121 OFFCURVE",
"1041 140 CURVE SMOOTH",
"1041 170 OFFCURVE",
"990 200 OFFCURVE",
"990 227 CURVE SMOOTH",
"990 260 OFFCURVE",
"1015 325 OFFCURVE",
"1031 325 CURVE SMOOTH",
"1057 325 OFFCURVE",
"1097 242 OFFCURVE",
"1097 175 CURVE SMOOTH",
"1097 71 OFFCURVE",
"1020 0 OFFCURVE",
"933 0 CURVE SMOOTH",
"830 0 OFFCURVE",
"800 66 OFFCURVE",
"790 66 CURVE SMOOTH",
"773 66 OFFCURVE",
"748 0 OFFCURVE",
"658 0 CURVE SMOOTH",
"647 0 OFFCURVE",
"643 -10 OFFCURVE",
"643 -19 CURVE SMOOTH",
"643 -159 OFFCURVE",
"579 -320 OFFCURVE",
"282 -320 CURVE SMOOTH"
);
}
);
visible = 1;
width = 1127;
}
);
unicode = 0635;
},
{
color = 5;
glyphname = "sad-ar.fina";
layers = (
{
layerId = "98B9451C-6456-42E9-9BE3-FFE7D6D9360C";
paths = (
{
closed = 1;
nodes = (
"743 104 OFFCURVE",
"747 100 OFFCURVE",
"759 100 CURVE SMOOTH",
"1039 100 LINE SMOOTH",
"1050 100 OFFCURVE",
"1058 103 OFFCURVE",
"1058 114 CURVE SMOOTH",
"1058 129 OFFCURVE",
"982 219 OFFCURVE",
"939 219 CURVE SMOOTH",
"874 219 OFFCURVE",
"743 128 OFFCURVE",
"743 112 CURVE SMOOTH"
);
},
{
closed = 1;
nodes = (
"10 -4 OFFCURVE",
"66 100 OFFCURVE",
"86 100 CURVE SMOOTH",
"100 100 OFFCURVE",
"107 89 OFFCURVE",
"107 74 CURVE SMOOTH",
"107 54 OFFCURVE",
"85 2 OFFCURVE",
"85 -54 CURVE SMOOTH",
"85 -176 OFFCURVE",
"185 -220 OFFCURVE",
"336 -220 CURVE SMOOTH",
"453 -220 OFFCURVE",
"576 -167 OFFCURVE",
"576 -118 CURVE SMOOTH",
"576 -29 OFFCURVE",
"507 89 OFFCURVE",
"507 119 CURVE SMOOTH",
"507 139 OFFCURVE",
"557 211 OFFCURVE",
"581 211 CURVE SMOOTH",
"600 211 OFFCURVE",
"604 167 OFFCURVE",
"611 148 CURVE SMOOTH",
"623 116 OFFCURVE",
"631 100 OFFCURVE",
"654 100 CURVE SMOOTH",
"668 100 OFFCURVE",
"677 100 OFFCURVE",
"685 111 CURVE SMOOTH",
"759 212 OFFCURVE",
"873 325 OFFCURVE",
"985 325 CURVE SMOOTH",
"1069 325 OFFCURVE",
"1115 199 OFFCURVE",
"1135 112 CURVE SMOOTH",
"1137 103 OFFCURVE",
"1145 100 OFFCURVE",
"1162 100 CURVE",
"1182 50 LINE",
"1162 0 LINE",
"658 0 LINE SMOOTH",
"647 0 OFFCURVE",
"643 -10 OFFCURVE",
"643 -19 CURVE SMOOTH",
"643 -159 OFFCURVE",
"579 -320 OFFCURVE",
"282 -320 CURVE SMOOTH",
"75 -320 OFFCURVE",
"10 -214 OFFCURVE",
"10 -136 CURVE SMOOTH"
);
}
);
width = 1162;
}
);
unicode = FEBA;
},
{
color = 5;
glyphname = "sad-ar.medi";
layers = (
{
layerId = "98B9451C-6456-42E9-9BE3-FFE7D6D9360C";
paths = (
{
closed = 1;
nodes = (
"0 100 LINE",
"84 100 OFFCURVE",
"121 211 OFFCURVE",
"152 211 CURVE SMOOTH",
"167 211 OFFCURVE",
"170 201 OFFCURVE",
"170 178 CURVE SMOOTH",
"170 133 OFFCURVE",
"195 100 OFFCURVE",
"236 100 CURVE SMOOTH",
"245 100 OFFCURVE",
"251 102 OFFCURVE",
"257 111 CURVE SMOOTH",
"328 213 OFFCURVE",
"445 325 OFFCURVE",
"557 325 CURVE SMOOTH",
"641 325 OFFCURVE",
"687 199 OFFCURVE",
"707 112 CURVE SMOOTH",
"709 103 OFFCURVE",
"717 100 OFFCURVE",
"734 100 CURVE",
"754 50 LINE",
"734 0 LINE",
"220 0 LINE",
"127 0 OFFCURVE",
"131 70 OFFCURVE",
"117 70 CURVE SMOOTH",
"103 70 OFFCURVE",
"70 0 OFFCURVE",
"0 0 CURVE",
"-20 50 LINE"
);
},
{
closed = 1;
nodes = (
"315 104 OFFCURVE",
"319 100 OFFCURVE",
"331 100 CURVE SMOOTH",
"611 100 LINE SMOOTH",
"622 100 OFFCURVE",
"630 103 OFFCURVE",
"630 114 CURVE SMOOTH",
"630 129 OFFCURVE",
"554 219 OFFCURVE",
"511 219 CURVE SMOOTH",
"446 219 OFFCURVE",
"315 128 OFFCURVE",
"315 112 CURVE SMOOTH"
);
}
);
width = 734;
}
);
unicode = FEBC;
},
{
color = 5;
glyphname = "sad-ar.init";
layers = (
{
layerId = "98B9451C-6456-42E9-9BE3-FFE7D6D9360C";
paths = (
{
closed = 1;
nodes = (
"0 100 LINE",
"84 100 OFFCURVE",
"121 211 OFFCURVE",
"152 211 CURVE SMOOTH",
"167 211 OFFCURVE",
"170 201 OFFCURVE",
"170 178 CURVE SMOOTH",
"170 133 OFFCURVE",
"195 100 OFFCURVE",
"236 100 CURVE SMOOTH",
"245 100 OFFCURVE",
"251 102 OFFCURVE",
"257 111 CURVE SMOOTH",
"328 213 OFFCURVE",
"445 325 OFFCURVE",
"557 325 CURVE SMOOTH",
"606 325 OFFCURVE",
"714 224 OFFCURVE",
"714 141 CURVE SMOOTH",
"714 95 OFFCURVE",
"654 0 OFFCURVE",
"574 0 CURVE SMOOTH",
"220 0 LINE",
"127 0 OFFCURVE",
"131 70 OFFCURVE",
"117 70 CURVE SMOOTH",
"103 70 OFFCURVE",
"70 0 OFFCURVE",
"0 0 CURVE",
"-20 50 LINE"
);
},
{
closed = 1;
nodes = (
"315 104 OFFCURVE",
"319 100 OFFCURVE",
"331 100 CURVE SMOOTH",
"621 100 LINE SMOOTH",
"632 100 OFFCURVE",
"640 103 OFFCURVE",
"640 114 CURVE SMOOTH",
"640 129 OFFCURVE",
"554 219 OFFCURVE",
"511 219 CURVE SMOOTH",
"446 219 OFFCURVE",
"315 128 OFFCURVE",
"315 112 CURVE SMOOTH"
);
}
);
width = 714;
},
{
associatedMasterId = "98B9451C-6456-42E9-9BE3-FFE7D6D9360C";
layerId = "14FB576B-A3CF-4DEE-83DD-E4DC4783C5A3";
name = "Sep 9 20, 07:11";
paths = (
{
closed = 1;
nodes = (
"0 100 LINE",
"60 100 OFFCURVE",
"227 319 OFFCURVE",
"387 319 CURVE SMOOTH",
"463 319 OFFCURVE",
"524 247 OFFCURVE",
"524 204 CURVE SMOOTH",
"524 79 OFFCURVE",
"360 0 OFFCURVE",
"0 0 CURVE"
);
},
{
closed = 1;
nodes = (
"278 99 OFFCURVE",
"444 128 OFFCURVE",
"444 169 CURVE SMOOTH",
"444 189 OFFCURVE",
"354 218 OFFCURVE",
"321 218 CURVE SMOOTH",
"260 218 OFFCURVE",
"112 141 OFFCURVE",
"112 114 CURVE SMOOTH",
"112 103 OFFCURVE",
"121 99 OFFCURVE",
"132 99 CURVE SMOOTH"
);
}
);
width = 524;
},
{
associatedMasterId = "98B9451C-6456-42E9-9BE3-FFE7D6D9360C";
layerId = "09CB84B8-CDDF-447B-90E7-A52E6F2E04DC";
name = "Sep 16 20, 04:10";
paths = (
{
closed = 1;
nodes = (
"0 100 LINE",
"17 100 OFFCURVE",
"33 101 OFFCURVE",
"47 111 CURVE SMOOTH",
"124 160 OFFCURVE",
"252 319 OFFCURVE",
"387 319 CURVE SMOOTH",
"463 319 OFFCURVE",
"524 253 OFFCURVE",
"524 200 CURVE SMOOTH",
"524 106 OFFCURVE",
"483 0 OFFCURVE",
"280 0 CURVE SMOOTH",
"0 0 LINE"
);
},
{
closed = 1;
nodes = (
"291 100 LINE SMOOTH",
"378 100 OFFCURVE",
"444 143 OFFCURVE",
"444 169 CURVE SMOOTH",
"444 189 OFFCURVE",
"401 218 OFFCURVE",
"321 218 CURVE SMOOTH",
"260 218 OFFCURVE",
"112 132 OFFCURVE",
"112 114 CURVE SMOOTH",
"112 103 OFFCURVE",
"120 100 OFFCURVE",
"131 100 CURVE SMOOTH"
);
}
);
width = 524;
}
);
unicode = FEBB;
},
{
color = 5;
glyphname = "tah-ar";
layers = (
{
layerId = "98B9451C-6456-42E9-9BE3-FFE7D6D9360C";
paths = (
{
closed = 1;
nodes = (
"0 106 OFFCURVE",
"6 118 OFFCURVE",
"23 118 CURVE SMOOTH",
"58 118 OFFCURVE",
"120 100 OFFCURVE",
"252 100 CURVE SMOOTH",
"294 100 OFFCURVE",
"313 109 OFFCURVE",
"313 154 CURVE SMOOTH",
"313 307 OFFCURVE",
"280 458 OFFCURVE",
"264 556 CURVE SMOOTH",
"259 587 OFFCURVE",
"243 600 OFFCURVE",
"243 630 CURVE SMOOTH",
"243 652 OFFCURVE",
"274 700 OFFCURVE",
"291 700 CURVE SMOOTH",
"307 700 OFFCURVE",
"311 667 OFFCURVE",
"328 645 CURVE SMOOTH",
"344 623 OFFCURVE",
"365 609 OFFCURVE",
"365 599 CURVE SMOOTH",
"365 584 OFFCURVE",
"347 556 OFFCURVE",
"347 542 CURVE SMOOTH",
"347 543 OFFCURVE",
"382 150 OFFCURVE",
"388 150 CURVE SMOOTH",
"400 150 OFFCURVE",
"524 325 OFFCURVE",
"659 325 CURVE SMOOTH",
"725 325 OFFCURVE",
"816 201 OFFCURVE",
"816 148 CURVE SMOOTH",
"816 23 OFFCURVE",
"672 0 OFFCURVE",
"632 0 CURVE SMOOTH",
"182 0 LINE SMOOTH",
"156 0 OFFCURVE",
"0 74 OFFCURVE",
"0 92 CURVE SMOOTH"
);
},
{
closed = 1;
nodes = (
"718 100 LINE SMOOTH",
"735 100 OFFCURVE",
"742 103 OFFCURVE",
"742 113 CURVE SMOOTH",
"742 131 OFFCURVE",
"653 219 OFFCURVE",
"613 219 CURVE SMOOTH",
"556 219 OFFCURVE",
"417 132 OFFCURVE",
"417 111 CURVE SMOOTH",
"417 102 OFFCURVE",
"427 99 OFFCURVE",
"438 99 CURVE SMOOTH"
);
}
);
width = 816;
},
{
associatedMasterId = "98B9451C-6456-42E9-9BE3-FFE7D6D9360C";
layerId = "7A3B1A38-4F7B-4CE4-8BFA-C5095A0CE59E";
name = "Sep 24 20, 02:32";
paths = (
{
closed = 1;
nodes = (
"417 104 OFFCURVE",
"421 100 OFFCURVE",
"433 100 CURVE SMOOTH",
"723 100 LINE SMOOTH",
"734 100 OFFCURVE",
"742 103 OFFCURVE",
"742 114 CURVE SMOOTH",
"742 129 OFFCURVE",
"656 219 OFFCURVE",
"613 219 CURVE SMOOTH",
"548 219 OFFCURVE",
"417 128 OFFCURVE",
"417 112 CURVE SMOOTH"
);
},
{
closed = 1;
nodes = (
"-354 -4 OFFCURVE",
"-298 100 OFFCURVE",
"-278 100 CURVE SMOOTH",
"-264 100 OFFCURVE",
"-257 89 OFFCURVE",
"-257 74 CURVE SMOOTH",
"-257 54 OFFCURVE",
"-279 2 OFFCURVE",
"-279 -54 CURVE SMOOTH",
"-279 -176 OFFCURVE",
"-179 -220 OFFCURVE",
"-28 -220 CURVE SMOOTH",
"89 -220 OFFCURVE",
"212 -167 OFFCURVE",
"212 -118 CURVE SMOOTH",
"212 -29 OFFCURVE",
"143 89 OFFCURVE",
"143 119 CURVE SMOOTH",
"143 139 OFFCURVE",
"193 211 OFFCURVE",
"217 211 CURVE SMOOTH",
"236 211 OFFCURVE",
"240 167 OFFCURVE",
"247 148 CURVE SMOOTH",
"259 116 OFFCURVE",
"279 100 OFFCURVE",
"312 100 CURVE SMOOTH",
"328 100 OFFCURVE",
"352 109 OFFCURVE",
"362 120 CURVE SMOOTH",
"454 216 OFFCURVE",
"547 325 OFFCURVE",
"659 325 CURVE SMOOTH",
"708 325 OFFCURVE",
"816 224 OFFCURVE",
"816 141 CURVE SMOOTH",
"816 95 OFFCURVE",
"756 0 OFFCURVE",
"676 0 CURVE SMOOTH",
"294 0 LINE SMOOTH",
"283 0 OFFCURVE",
"279 -10 OFFCURVE",
"279 -19 CURVE SMOOTH",
"279 -159 OFFCURVE",
"215 -320 OFFCURVE",
"-82 -320 CURVE SMOOTH",
"-289 -320 OFFCURVE",
"-354 -214 OFFCURVE",
"-354 -136 CURVE SMOOTH"
);
}
);
visible = 1;
width = 816;
}
);
unicode = 0637;
},
{
color = 5;
glyphname = "tah-ar.fina";
layers = (
{
layerId = "98B9451C-6456-42E9-9BE3-FFE7D6D9360C";
paths = (
{
closed = 1;
nodes = (
"711 100 LINE SMOOTH",
"728 100 OFFCURVE",
"735 103 OFFCURVE",
"735 113 CURVE SMOOTH",
"735 131 OFFCURVE",
"646 219 OFFCURVE",
"606 219 CURVE SMOOTH",
"549 219 OFFCURVE",
"410 132 OFFCURVE",
"410 111 CURVE SMOOTH",
"410 102 OFFCURVE",
"420 99 OFFCURVE",
"431 99 CURVE SMOOTH"
);
},
{
closed = 1;
nodes = (
"0 126 OFFCURVE",
"6 133 OFFCURVE",
"33 133 CURVE SMOOTH",
"69 133 OFFCURVE",
"149 100 OFFCURVE",
"270 100 CURVE SMOOTH",
"291 100 OFFCURVE",
"300 112 OFFCURVE",
"300 154 CURVE SMOOTH",
"300 307 OFFCURVE",
"273 458 OFFCURVE",
"257 556 CURVE SMOOTH",
"252 587 OFFCURVE",
"236 600 OFFCURVE",
"236 630 CURVE SMOOTH",
"236 652 OFFCURVE",
"267 700 OFFCURVE",
"284 700 CURVE SMOOTH",
"300 700 OFFCURVE",
"304 667 OFFCURVE",
"321 645 CURVE SMOOTH",
"337 623 OFFCURVE",
"358 609 OFFCURVE",
"358 599 CURVE SMOOTH",
"358 584 OFFCURVE",
"340 556 OFFCURVE",
"340 542 CURVE SMOOTH",
"340 543 OFFCURVE",
"375 150 OFFCURVE",
"381 150 CURVE SMOOTH",
"393 150 OFFCURVE",
"516 325 OFFCURVE",
"651 325 CURVE SMOOTH",
"717 325 OFFCURVE",
"786 181 OFFCURVE",
"806 132 CURVE SMOOTH",
"812 117 OFFCURVE",
"822 100 OFFCURVE",
"836 100 CURVE",
"856 50 LINE",
"836 0 LINE",
"221 0 LINE SMOOTH",
"125 0 OFFCURVE",
"0 82 OFFCURVE",
"0 105 CURVE SMOOTH"
);
}
);
width = 836;
},
{
associatedMasterId = "98B9451C-6456-42E9-9BE3-FFE7D6D9360C";
layerId = "04A450B7-57DF-4BCE-80FE-CA261F3D88BA";
name = "Aug 19 20, 05:55";
paths = (
{
closed = 1;
nodes = (
"-304 106 OFFCURVE",
"-298 118 OFFCURVE",
"-281 118 CURVE SMOOTH",
"-246 118 OFFCURVE",
"-184 100 OFFCURVE",
"18 100 CURVE SMOOTH",
"60 100 OFFCURVE",
"79 109 OFFCURVE",
"79 154 CURVE SMOOTH",
"79 307 OFFCURVE",
"46 458 OFFCURVE",
"30 556 CURVE SMOOTH",
"25 587 OFFCURVE",
"9 600 OFFCURVE",
"9 630 CURVE SMOOTH",
"9 652 OFFCURVE",
"40 700 OFFCURVE",
"57 700 CURVE SMOOTH",
"73 700 OFFCURVE",
"77 667 OFFCURVE",
"94 645 CURVE SMOOTH",
"110 623 OFFCURVE",
"131 609 OFFCURVE",
"131 599 CURVE SMOOTH",
"131 584 OFFCURVE",
"113 556 OFFCURVE",
"113 542 CURVE SMOOTH",
"113 526 OFFCURVE",
"148 259 OFFCURVE",
"148 222 CURVE SMOOTH",
"148 204 OFFCURVE",
"149 150 OFFCURVE",
"154 150 CURVE SMOOTH",
"166 150 OFFCURVE",
"285 319 OFFCURVE",
"445 319 CURVE SMOOTH",
"521 319 OFFCURVE",
"582 247 OFFCURVE",
"582 204 CURVE SMOOTH",
"582 79 OFFCURVE",
"438 0 OFFCURVE",
"198 0 CURVE SMOOTH",
"-122 0 LINE SMOOTH",
"-148 0 OFFCURVE",
"-304 74 OFFCURVE",
"-304 92 CURVE SMOOTH"
);
},
{
closed = 1;
nodes = (
"170 103 OFFCURVE",
"179 99 OFFCURVE",
"190 99 CURVE SMOOTH",
"336 99 OFFCURVE",
"502 128 OFFCURVE",
"502 169 CURVE SMOOTH",
"502 189 OFFCURVE",
"412 218 OFFCURVE",
"379 218 CURVE SMOOTH",
"318 218 OFFCURVE",
"170 141 OFFCURVE",
"170 114 CURVE SMOOTH"
);
}
);
visible = 1;
width = 600;
}
);
unicode = FEC2;
},
{
color = 5;
glyphname = "tah-ar.medi";
layers = (
{
layerId = "98B9451C-6456-42E9-9BE3-FFE7D6D9360C";
paths = (
{
closed = 1;
nodes = (
"-20 50 LINE",
"0 100 LINE",
"42 100 OFFCURVE",
"64 112 OFFCURVE",
"64 154 CURVE SMOOTH",
"64 307 OFFCURVE",
"37 458 OFFCURVE",
"21 556 CURVE SMOOTH",
"16 587 OFFCURVE",
"0 600 OFFCURVE",
"0 630 CURVE SMOOTH",
"0 652 OFFCURVE",
"31 700 OFFCURVE",
"48 700 CURVE SMOOTH",
"64 700 OFFCURVE",
"68 667 OFFCURVE",
"85 645 CURVE SMOOTH",
"101 623 OFFCURVE",
"122 609 OFFCURVE",
"122 599 CURVE SMOOTH",
"122 584 OFFCURVE",
"104 556 OFFCURVE",
"104 542 CURVE SMOOTH",
"104 543 OFFCURVE",
"139 150 OFFCURVE",
"145 150 CURVE SMOOTH",
"157 150 OFFCURVE",
"280 325 OFFCURVE",
"415 325 CURVE SMOOTH",
"481 325 OFFCURVE",
"550 181 OFFCURVE",
"570 132 CURVE SMOOTH",
"576 117 OFFCURVE",
"586 100 OFFCURVE",
"600 100 CURVE",
"620 50 LINE",
"600 0 LINE",
"0 0 LINE"
);
},
{
closed = 1;
nodes = (
"475 100 LINE SMOOTH",
"492 100 OFFCURVE",
"499 103 OFFCURVE",
"499 113 CURVE SMOOTH",
"499 131 OFFCURVE",
"410 219 OFFCURVE",
"370 219 CURVE SMOOTH",
"313 219 OFFCURVE",
"174 132 OFFCURVE",
"174 111 CURVE SMOOTH",
"174 102 OFFCURVE",
"184 99 OFFCURVE",
"195 99 CURVE SMOOTH"
);
}
);
width = 600;
},
{
associatedMasterId = "98B9451C-6456-42E9-9BE3-FFE7D6D9360C";
layerId = "F7C13643-2A01-41E5-A44F-EEC5A9791883";
name = "Sep 24 20, 02:38";
paths = (
{
closed = 1;
nodes = (
"0 101 LINE",
"39 100 LINE",
"61 100 OFFCURVE",
"70 109 OFFCURVE",
"70 154 CURVE SMOOTH",
"70 307 OFFCURVE",
"37 458 OFFCURVE",
"21 556 CURVE SMOOTH",
"16 587 OFFCURVE",
"0 600 OFFCURVE",
"0 630 CURVE SMOOTH",
"0 652 OFFCURVE",
"31 700 OFFCURVE",
"48 700 CURVE SMOOTH",
"64 700 OFFCURVE",
"68 667 OFFCURVE",
"85 645 CURVE SMOOTH",
"101 623 OFFCURVE",
"122 609 OFFCURVE",
"122 599 CURVE SMOOTH",
"122 584 OFFCURVE",
"104 556 OFFCURVE",
"104 542 CURVE SMOOTH",
"104 526 OFFCURVE",
"139 259 OFFCURVE",
"139 222 CURVE SMOOTH",
"139 204 OFFCURVE",
"140 150 OFFCURVE",
"145 150 CURVE SMOOTH",
"157 150 OFFCURVE",
"276 319 OFFCURVE",
"436 319 CURVE SMOOTH",
"512 319 OFFCURVE",
"573 247 OFFCURVE",
"573 204 CURVE SMOOTH",
"573 119 OFFCURVE",
"580 100 OFFCURVE",
"605 100 CURVE",
"605 0 LINE",
"0 0 LINE"
);
},
{
closed = 1;
nodes = (
"161 103 OFFCURVE",
"170 99 OFFCURVE",
"181 99 CURVE SMOOTH",
"327 99 OFFCURVE",
"493 128 OFFCURVE",
"493 169 CURVE SMOOTH",
"493 189 OFFCURVE",
"403 218 OFFCURVE",
"370 218 CURVE SMOOTH",
"309 218 OFFCURVE",
"161 141 OFFCURVE",
"161 114 CURVE SMOOTH"
);
}
);
visible = 1;
width = 600;
}
);
unicode = FEC4;
},
{
color = 5;
glyphname = "tah-ar.init";
layers = (
{
layerId = "98B9451C-6456-42E9-9BE3-FFE7D6D9360C";
paths = (
{
closed = 1;
nodes = (
"-20 50 LINE",
"0 100 LINE",
"42 100 OFFCURVE",
"64 112 OFFCURVE",
"64 154 CURVE SMOOTH",
"64 307 OFFCURVE",
"37 458 OFFCURVE",
"21 556 CURVE SMOOTH",
"16 587 OFFCURVE",
"0 600 OFFCURVE",
"0 630 CURVE SMOOTH",
"0 652 OFFCURVE",
"31 700 OFFCURVE",
"48 700 CURVE SMOOTH",
"64 700 OFFCURVE",
"68 667 OFFCURVE",
"85 645 CURVE SMOOTH",
"101 623 OFFCURVE",
"122 609 OFFCURVE",
"122 599 CURVE SMOOTH",
"122 584 OFFCURVE",
"104 556 OFFCURVE",
"104 542 CURVE SMOOTH",
"104 543 OFFCURVE",
"139 150 OFFCURVE",
"145 150 CURVE SMOOTH",
"157 150 OFFCURVE",
"281 325 OFFCURVE",
"416 325 CURVE SMOOTH",
"482 325 OFFCURVE",
"573 201 OFFCURVE",
"573 148 CURVE SMOOTH",
"573 23 OFFCURVE",
"429 0 OFFCURVE",
"389 0 CURVE SMOOTH",
"0 0 LINE"
);
},
{
closed = 1;
nodes = (
"475 100 LINE SMOOTH",
"492 100 OFFCURVE",
"499 103 OFFCURVE",
"499 113 CURVE SMOOTH",
"499 131 OFFCURVE",
"410 219 OFFCURVE",
"370 219 CURVE SMOOTH",
"313 219 OFFCURVE",
"174 132 OFFCURVE",
"174 111 CURVE SMOOTH",
"174 102 OFFCURVE",
"184 99 OFFCURVE",
"195 99 CURVE SMOOTH"
);
}
);
width = 573;
}
);
unicode = FEC3;
},
{
color = 5;
glyphname = "ain-ar";
layers = (
{
layerId = "98B9451C-6456-42E9-9BE3-FFE7D6D9360C";
paths = (
{
closed = 1;
nodes = (
"317 343 OFFCURVE",
"254 353 OFFCURVE",
"217 353 CURVE SMOOTH",
"182 353 OFFCURVE",
"122 331 OFFCURVE",
"122 305 CURVE SMOOTH",
"122 269 OFFCURVE",
"194 194 OFFCURVE",
"253 194 CURVE SMOOTH",
"292 194 OFFCURVE",
"379 253 OFFCURVE",
"397 253 CURVE SMOOTH",
"406 253 OFFCURVE",
"413 249 OFFCURVE",
"413 234 CURVE SMOOTH",
"413 221 OFFCURVE",
"377 139 OFFCURVE",
"366 126 CURVE SMOOTH",
"356 114 OFFCURVE",
"34 50 OFFCURVE",
"34 -118 CURVE SMOOTH",
"34 -257 OFFCURVE",
"164 -330 OFFCURVE",
"313 -330 CURVE SMOOTH",
"438 -330 OFFCURVE",
"467 -318 OFFCURVE",
"504 -318 CURVE SMOOTH",
"516 -318 OFFCURVE",
"525 -321 OFFCURVE",
"525 -331 CURVE SMOOTH",
"525 -360 OFFCURVE",
"326 -450 OFFCURVE",
"238 -450 CURVE SMOOTH",
"119 -450 OFFCURVE",
"-40 -361 OFFCURVE",
"-40 -183 CURVE SMOOTH",
"-40 14 OFFCURVE",
"111 95 OFFCURVE",
"111 129 CURVE SMOOTH",
"111 159 OFFCURVE",
"39 182 OFFCURVE",
"39 242 CURVE SMOOTH",
"39 325 OFFCURVE",
"122 459 OFFCURVE",
"209 459 CURVE SMOOTH",
"273 459 OFFCURVE",
"348 379 OFFCURVE",
"348 361 CURVE SMOOTH",
"348 353 OFFCURVE",
"342 343 OFFCURVE",
"334 343 CURVE SMOOTH"
);
}
);
width = 535;
},
{
associatedMasterId = "98B9451C-6456-42E9-9BE3-FFE7D6D9360C";
layerId = "63659EF3-9E8E-4DAC-8068-BE2D124BF934";
name = "Sep 24 20, 01:25";
paths = (
{
closed = 1;
nodes = (
"11 168 OFFCURVE",
"33 199 OFFCURVE",
"60 199 CURVE SMOOTH",
"111 199 OFFCURVE",
"217 184 OFFCURVE",
"217 171 CURVE SMOOTH",
"217 144 OFFCURVE",
"-44 76 OFFCURVE",
"-44 -167 CURVE SMOOTH",
"-44 -324 OFFCURVE",
"97 -450 OFFCURVE",
"240 -450 CURVE SMOOTH",
"302 -450 OFFCURVE",
"521 -377 OFFCURVE",
"521 -344 CURVE SMOOTH",
"521 -334 OFFCURVE",
"514 -330 OFFCURVE",
"503 -330 CURVE SMOOTH",
"300 -330 LINE SMOOTH",
"121 -330 OFFCURVE",
"30 -260 OFFCURVE",
"30 -133 CURVE SMOOTH",
"30 8 OFFCURVE",
"194 140 OFFCURVE",
"340 140 CURVE SMOOTH",
"385 140 OFFCURVE",
"420 132 OFFCURVE",
"443 132 CURVE SMOOTH",
"462 132 OFFCURVE",
"497 199 OFFCURVE",
"497 219 CURVE SMOOTH",
"497 226 OFFCURVE",
"488 233 OFFCURVE",
"477 233 CURVE SMOOTH",
"316 233 OFFCURVE",
"178 294 OFFCURVE",
"97 294 CURVE SMOOTH",
"60 294 OFFCURVE",
"-10 204 OFFCURVE",
"-10 181 CURVE SMOOTH",
"-10 171 OFFCURVE",
"-6 168 OFFCURVE",
"2 168 CURVE SMOOTH"
);
}
);
width = 523;
},
{
associatedMasterId = "98B9451C-6456-42E9-9BE3-FFE7D6D9360C";
layerId = "82434AD6-E3CC-4328-A6DA-D58307B8FA4D";
name = "Oct 6 20, 06:51";
paths = (
{
closed = 1;
nodes = (
"293 343 OFFCURVE",
"230 361 OFFCURVE",
"193 361 CURVE SMOOTH",
"154 361 OFFCURVE",
"118 331 OFFCURVE",
"118 305 CURVE SMOOTH",
"118 269 OFFCURVE",
"190 194 OFFCURVE",
"249 194 CURVE SMOOTH",
"288 194 OFFCURVE",
"375 253 OFFCURVE",
"393 253 CURVE SMOOTH",
"402 253 OFFCURVE",
"409 249 OFFCURVE",
"409 234 CURVE SMOOTH",
"409 221 OFFCURVE",
"376 163 OFFCURVE",
"365 150 CURVE SMOOTH",
"355 138 OFFCURVE",
"30 50 OFFCURVE",
"30 -118 CURVE SMOOTH",
"30 -257 OFFCURVE",
"114 -330 OFFCURVE",
"298 -330 CURVE SMOOTH",
"500 -330 LINE",
"512 -330 OFFCURVE",
"521 -333 OFFCURVE",
"521 -343 CURVE SMOOTH",
"521 -372 OFFCURVE",
"322 -450 OFFCURVE",
"234 -450 CURVE SMOOTH",
"115 -450 OFFCURVE",
"-44 -337 OFFCURVE",
"-44 -183 CURVE SMOOTH",
"-44 14 OFFCURVE",
"107 95 OFFCURVE",
"107 129 CURVE SMOOTH",
"107 159 OFFCURVE",
"35 182 OFFCURVE",
"35 242 CURVE SMOOTH",
"35 325 OFFCURVE",
"143 438 OFFCURVE",
"185 438 CURVE SMOOTH",
"236 438 OFFCURVE",
"324 379 OFFCURVE",
"324 361 CURVE SMOOTH",
"324 353 OFFCURVE",
"318 343 OFFCURVE",
"310 343 CURVE SMOOTH"
);
}
);
visible = 1;
width = 523;
}
);
unicode = 0639;
},
{
color = 5;
glyphname = "ain-ar.fina";
layers = (
{
layerId = "98B9451C-6456-42E9-9BE3-FFE7D6D9360C";
paths = (
{
closed = 1;
nodes = (
"132 -330 OFFCURVE",
"35 -264 OFFCURVE",
"35 -160 CURVE SMOOTH",
"35 -15 OFFCURVE",
"195 97 OFFCURVE",
"295 97 CURVE SMOOTH",
"312 97 OFFCURVE",
"413 0 OFFCURVE",
"484 0 CURVE",
"484 100 LINE",
"439 100 OFFCURVE",
"365 128 OFFCURVE",
"365 161 CURVE SMOOTH",
"365 177 OFFCURVE",
"417 216 OFFCURVE",
"417 267 CURVE SMOOTH",
"417 311 OFFCURVE",
"335 325 OFFCURVE",
"263 325 CURVE SMOOTH",
"182 325 OFFCURVE",
"95 270 OFFCURVE",
"95 221 CURVE SMOOTH",
"95 215 OFFCURVE",
"101 212 OFFCURVE",
"105 212 CURVE SMOOTH",
"146 212 OFFCURVE",
"226 171 OFFCURVE",
"226 156 CURVE SMOOTH",
"226 122 OFFCURVE",
"-40 41 OFFCURVE",
"-40 -204 CURVE SMOOTH",
"-40 -368 OFFCURVE",
"101 -450 OFFCURVE",
"234 -450 CURVE SMOOTH",
"322 -450 OFFCURVE",
"521 -360 OFFCURVE",
"521 -331 CURVE SMOOTH",
"521 -321 OFFCURVE",
"512 -318 OFFCURVE",
"500 -318 CURVE SMOOTH",
"463 -318 OFFCURVE",
"434 -330 OFFCURVE",
"309 -330 CURVE SMOOTH"
);
}
);
width = 484;
},
{
associatedMasterId = "98B9451C-6456-42E9-9BE3-FFE7D6D9360C";
layerId = "EB073E0D-AB40-481C-AF84-4AEFFEBD1D28";
name = "Sep 24 20, 01:28";
paths = (
{
closed = 1;
nodes = (
"253 343 OFFCURVE",
"190 361 OFFCURVE",
"153 361 CURVE SMOOTH",
"114 361 OFFCURVE",
"78 331 OFFCURVE",
"78 305 CURVE SMOOTH",
"78 269 OFFCURVE",
"150 194 OFFCURVE",
"209 194 CURVE SMOOTH",
"248 194 OFFCURVE",
"335 253 OFFCURVE",
"353 253 CURVE SMOOTH",
"362 253 OFFCURVE",
"369 249 OFFCURVE",
"369 234 CURVE SMOOTH",
"369 221 OFFCURVE",
"336 163 OFFCURVE",
"325 150 CURVE SMOOTH",
"315 138 OFFCURVE",
"-10 50 OFFCURVE",
"-10 -118 CURVE SMOOTH",
"-10 -257 OFFCURVE",
"74 -330 OFFCURVE",
"258 -330 CURVE SMOOTH",
"460 -330 LINE SMOOTH",
"472 -330 OFFCURVE",
"481 -333 OFFCURVE",
"481 -343 CURVE SMOOTH",
"481 -372 OFFCURVE",
"282 -450 OFFCURVE",
"194 -450 CURVE SMOOTH",
"75 -450 OFFCURVE",
"-84 -337 OFFCURVE",
"-84 -183 CURVE SMOOTH",
"-84 14 OFFCURVE",
"67 95 OFFCURVE",
"67 129 CURVE SMOOTH",
"67 159 OFFCURVE",
"-5 182 OFFCURVE",
"-5 242 CURVE SMOOTH",
"-5 325 OFFCURVE",
"103 438 OFFCURVE",
"145 438 CURVE SMOOTH",
"196 438 OFFCURVE",
"284 379 OFFCURVE",
"284 361 CURVE SMOOTH",
"284 353 OFFCURVE",
"278 343 OFFCURVE",
"270 343 CURVE SMOOTH"
);
}
);
width = 460;
},
{
associatedMasterId = "98B9451C-6456-42E9-9BE3-FFE7D6D9360C";
layerId = "EBEEA246-1371-47B2-B390-D1FC389E6E9D";
name = "Oct 6 20, 07:10";
paths = (
{
closed = 1;
nodes = (
"339 -450 OFFCURVE",
"525 -371 OFFCURVE",
"525 -343 CURVE SMOOTH",
"525 -336 OFFCURVE",
"520 -330 OFFCURVE",
"504 -330 CURVE SMOOTH",
"290 -330 LINE SMOOTH",
"134 -330 OFFCURVE",
"35 -264 OFFCURVE",
"35 -118 CURVE SMOOTH",
"35 16 OFFCURVE",
"195 97 OFFCURVE",
"295 97 CURVE SMOOTH",
"312 97 OFFCURVE",
"413 0 OFFCURVE",
"484 0 CURVE",
"484 100 LINE",
"439 100 OFFCURVE",
"365 128 OFFCURVE",
"365 161 CURVE SMOOTH",
"365 177 OFFCURVE",
"417 216 OFFCURVE",
"417 267 CURVE SMOOTH",
"417 311 OFFCURVE",
"335 325 OFFCURVE",
"263 325 CURVE SMOOTH",
"182 325 OFFCURVE",
"95 270 OFFCURVE",
"95 221 CURVE SMOOTH",
"95 215 OFFCURVE",
"101 212 OFFCURVE",
"105 212 CURVE SMOOTH",
"146 212 OFFCURVE",
"226 171 OFFCURVE",
"226 156 CURVE SMOOTH",
"226 122 OFFCURVE",
"-40 105 OFFCURVE",
"-40 -184 CURVE SMOOTH",
"-40 -339 OFFCURVE",
"124 -450 OFFCURVE",
"236 -450 CURVE SMOOTH"
);
}
);
visible = 1;
width = 484;
}
);
unicode = FECA;
},
{
color = 5;
glyphname = "ain-ar.medi";
layers = (
{
backgroundImage = {
crop = "{{0, 0}, {765, 269}}";
imagePath = "../../../../Desktop/Screen Shot 2020-08-18 at 8.40.06 PM.png";
locked = "1";
transform = "{10, 0, 0, 10, -6421, -1457}";
};
layerId = "98B9451C-6456-42E9-9BE3-FFE7D6D9360C";
paths = (
{
closed = 1;
nodes = (
"-20 50 LINE",
"0 0 LINE",
"133 0 OFFCURVE",
"268 97 OFFCURVE",
"281 97 CURVE SMOOTH",
"298 97 OFFCURVE",
"399 0 OFFCURVE",
"490 0 CURVE",
"510 50 LINE",
"490 100 LINE",
"445 100 OFFCURVE",
"351 128 OFFCURVE",
"351 161 CURVE SMOOTH",
"351 177 OFFCURVE",
"403 216 OFFCURVE",
"403 267 CURVE SMOOTH",
"403 311 OFFCURVE",
"321 325 OFFCURVE",
"249 325 CURVE SMOOTH",
"168 325 OFFCURVE",
"81 270 OFFCURVE",
"81 221 CURVE SMOOTH",
"81 215 OFFCURVE",
"87 212 OFFCURVE",
"91 212 CURVE SMOOTH",
"132 212 OFFCURVE",
"212 171 OFFCURVE",
"212 156 CURVE SMOOTH",
"212 141 OFFCURVE",
"101 100 OFFCURVE",
"0 100 CURVE"
);
}
);
width = 490;
}
);
unicode = FECC;
},
{
color = 5;
glyphname = "ain-ar.init";
layers = (
{
layerId = "98B9451C-6456-42E9-9BE3-FFE7D6D9360C";
paths = (
{
closed = 1;
nodes = (
"83 0 OFFCURVE",
"330 66 OFFCURVE",
"364 100 CURVE SMOOTH",
"374 110 OFFCURVE",
"412 166 OFFCURVE",
"412 180 CURVE SMOOTH",
"412 192 OFFCURVE",
"405 198 OFFCURVE",
"396 198 CURVE SMOOTH",
"379 198 OFFCURVE",
"292 139 OFFCURVE",
"252 139 CURVE SMOOTH",
"178 139 OFFCURVE",
"122 227 OFFCURVE",
"122 249 CURVE SMOOTH",
"122 271 OFFCURVE",
"178 299 OFFCURVE",
"212 298 CURVE SMOOTH",
"265 297 OFFCURVE",
"312 289 OFFCURVE",
"331 289 CURVE SMOOTH",
"341 289 OFFCURVE",
"348 296 OFFCURVE",
"348 307 CURVE SMOOTH",
"348 328 OFFCURVE",
"271 403 OFFCURVE",
"209 403 CURVE SMOOTH",
"123 403 OFFCURVE",
"39 257 OFFCURVE",
"39 197 CURVE SMOOTH",
"39 167 OFFCURVE",
"74 128 OFFCURVE",
"74 113 CURVE SMOOTH",
"74 100 OFFCURVE",
"60 100 OFFCURVE",
"0 100 CURVE",
"-20 50 LINE",
"0 0 LINE"
);
}
);
width = 389;
},
{
associatedMasterId = "98B9451C-6456-42E9-9BE3-FFE7D6D9360C";
layerId = "12A1FBBC-CAFD-4C45-A4C2-BAEEEFF0DF57";
name = "Sep 24 20, 01:37";
paths = (
{
closed = 1;
nodes = (
"299 308 OFFCURVE",
"236 326 OFFCURVE",
"199 326 CURVE SMOOTH",
"160 326 OFFCURVE",
"124 296 OFFCURVE",
"124 270 CURVE SMOOTH",
"124 234 OFFCURVE",
"196 159 OFFCURVE",
"255 159 CURVE SMOOTH",
"294 159 OFFCURVE",
"381 218 OFFCURVE",
"399 218 CURVE SMOOTH",
"408 218 OFFCURVE",
"415 214 OFFCURVE",
"415 199 CURVE SMOOTH",
"415 186 OFFCURVE",
"382 128 OFFCURVE",
"371 115 CURVE SMOOTH",
"361 103 OFFCURVE",
"36 15 OFFCURVE",
"36 -153 CURVE SMOOTH",
"36 -292 OFFCURVE",
"120 -365 OFFCURVE",
"304 -365 CURVE SMOOTH",
"506 -365 LINE",
"518 -365 OFFCURVE",
"527 -368 OFFCURVE",
"527 -378 CURVE SMOOTH",
"527 -407 OFFCURVE",
"328 -485 OFFCURVE",
"240 -485 CURVE SMOOTH",
"121 -485 OFFCURVE",
"-38 -372 OFFCURVE",
"-38 -218 CURVE SMOOTH",
"-38 -21 OFFCURVE",
"113 60 OFFCURVE",
"113 94 CURVE SMOOTH",
"113 124 OFFCURVE",
"41 147 OFFCURVE",
"41 207 CURVE SMOOTH",
"41 290 OFFCURVE",
"149 403 OFFCURVE",
"191 403 CURVE SMOOTH",
"242 403 OFFCURVE",
"330 344 OFFCURVE",
"330 326 CURVE SMOOTH",
"330 318 OFFCURVE",
"324 308 OFFCURVE",
"316 308 CURVE SMOOTH"
);
}
);
width = 389;
},
{
associatedMasterId = "98B9451C-6456-42E9-9BE3-FFE7D6D9360C";
layerId = "D770DEFC-32F6-4A26-B53A-BA5BBF298E91";
name = "Oct 6 20, 07:10";
paths = (
{
closed = 1;
nodes = (
"379 216 OFFCURVE",
"288 158 OFFCURVE",
"238 158 CURVE SMOOTH",
"174 158 OFFCURVE",
"123 247 OFFCURVE",
"123 269 CURVE SMOOTH",
"123 291 OFFCURVE",
"158 326 OFFCURVE",
"192 325 CURVE SMOOTH",
"225 324 OFFCURVE",
"279 307 OFFCURVE",
"298 307 CURVE SMOOTH",
"308 307 OFFCURVE",
"315 314 OFFCURVE",
"315 325 CURVE SMOOTH",
"315 346 OFFCURVE",
"227 403 OFFCURVE",
"195 403 CURVE SMOOTH",
"131 403 OFFCURVE",
"41 267 OFFCURVE",
"41 207 CURVE SMOOTH",
"41 157 OFFCURVE",
"90 133 OFFCURVE",
"90 117 CURVE SMOOTH",
"90 101 OFFCURVE",
"40 100 OFFCURVE",
"0 100 CURVE",
"-20 50 LINE",
"0 0 LINE",
"83 0 OFFCURVE",
"323 94 OFFCURVE",
"357 127 CURVE SMOOTH",
"374 144 OFFCURVE",
"412 184 OFFCURVE",
"412 198 CURVE SMOOTH",
"412 210 OFFCURVE",
"405 216 OFFCURVE",
"396 216 CURVE SMOOTH"
);
}
);
width = 389;
},
{
associatedMasterId = "98B9451C-6456-42E9-9BE3-FFE7D6D9360C";
layerId = "7A1BDBD7-5F7A-43A0-B75D-8FC8884BE56D";
name = "Oct 6 20, 07:11";
paths = (
{
closed = 0;
nodes = (
"-40 -238 LINE SMOOTH",
"-40 -41 OFFCURVE",
"111 40 OFFCURVE",
"111 74 CURVE SMOOTH",
"111 104 OFFCURVE",
"39 127 OFFCURVE",
"39 187 CURVE SMOOTH",
"39 270 OFFCURVE",
"122 404 OFFCURVE",
"209 404 CURVE SMOOTH",
"273 404 OFFCURVE",
"348 324 OFFCURVE",
"348 306 CURVE SMOOTH",
"348 298 OFFCURVE",
"342 288 OFFCURVE",
"334 288 CURVE SMOOTH",
"317 288 OFFCURVE",
"254 298 OFFCURVE",
"217 298 CURVE SMOOTH",
"182 298 OFFCURVE",
"122 276 OFFCURVE",
"122 250 CURVE SMOOTH",
"122 214 OFFCURVE",
"194 139 OFFCURVE",
"253 139 CURVE SMOOTH",
"292 139 OFFCURVE",
"379 198 OFFCURVE",
"397 198 CURVE SMOOTH",
"406 198 OFFCURVE",
"413 194 OFFCURVE",
"413 179 CURVE SMOOTH",
"413 166 OFFCURVE",
"377 84 OFFCURVE",
"366 71 CURVE SMOOTH",
"356 59 OFFCURVE",
"34 -5 OFFCURVE",
"34 -173 CURVE SMOOTH"
);
}
);
visible = 1;
width = 389;
}
);
unicode = FECB;
},
{
color = 5;
glyphname = "feh-ar.fina";
layers = (
{
components = (
{
name = "dotabove-ar";
transform = "{1, 0, 0, 1, 458, -152}";
}
);
layerId = "98B9451C-6456-42E9-9BE3-FFE7D6D9360C";
paths = (
{
closed = 1;
nodes = (
"515 134 OFFCURVE",
"496 145 OFFCURVE",
"496 177 CURVE SMOOTH",
"496 209 OFFCURVE",
"520 213 OFFCURVE",
"554 213 CURVE SMOOTH",
"585 213 OFFCURVE",
"624 202 OFFCURVE",
"624 180 CURVE SMOOTH",
"624 158 OFFCURVE",
"572 134 OFFCURVE",
"559 134 CURVE SMOOTH"
);
},
{
closed = 1;
nodes = (
"0 66 OFFCURVE",
"41 -8 OFFCURVE",
"223 -8 CURVE SMOOTH",
"313 -8 OFFCURVE",
"470 40 OFFCURVE",
"496 40 CURVE SMOOTH",
"516 40 OFFCURVE",
"608 0 OFFCURVE",
"730 0 CURVE",
"730 100 LINE",
"707 100 OFFCURVE",
"614 105 OFFCURVE",
"614 114 CURVE SMOOTH",
"614 123 OFFCURVE",
"678 156 OFFCURVE",
"678 194 CURVE SMOOTH",
"678 246 OFFCURVE",
"609 306 OFFCURVE",
"574 306 CURVE SMOOTH",
"541 306 OFFCURVE",
"439 252 OFFCURVE",
"439 177 CURVE SMOOTH",
"439 156 OFFCURVE",
"451 126 OFFCURVE",
"451 115 CURVE SMOOTH",
"451 104 OFFCURVE",
"370 100 OFFCURVE",
"301 100 CURVE SMOOTH",
"77 100 OFFCURVE",
"46 142 OFFCURVE",
"46 202 CURVE SMOOTH",
"46 235 OFFCURVE",
"57 256 OFFCURVE",
"57 272 CURVE SMOOTH",
"57 284 OFFCURVE",
"54 290 OFFCURVE",
"44 290 CURVE SMOOTH",
"32 290 OFFCURVE",
"0 232 OFFCURVE",
"0 164 CURVE SMOOTH"
);
}
);
width = 730;
}
);
unicode = FED2;
},
{
color = 5;
glyphname = "fehDotless-ar";
layers = (
{
anchors = (
{
name = top;
position = "{552, 436}";
}
);
layerId = "98B9451C-6456-42E9-9BE3-FFE7D6D9360C";
paths = (
{
closed = 1;
nodes = (
"36 -7 OFFCURVE",
"0 81 OFFCURVE",
"0 148 CURVE SMOOTH",
"0 216 OFFCURVE",
"28 290 OFFCURVE",
"40 290 CURVE SMOOTH",
"48 290 OFFCURVE",
"53 284 OFFCURVE",
"53 275 CURVE SMOOTH",
"53 259 OFFCURVE",
"46 235 OFFCURVE",
"46 202 CURVE SMOOTH",
"46 142 OFFCURVE",
"77 100 OFFCURVE",
"301 100 CURVE SMOOTH",
"445 100 OFFCURVE",
"613 110 OFFCURVE",
"613 180 CURVE SMOOTH",
"613 188 OFFCURVE",
"611 192 OFFCURVE",
"604 192 CURVE SMOOTH",
"595 192 OFFCURVE",
"552 140 OFFCURVE",
"489 140 CURVE SMOOTH",
"448 140 OFFCURVE",
"403 172 OFFCURVE",
"403 235 CURVE SMOOTH",
"403 314 OFFCURVE",
"472 420 OFFCURVE",
"528 420 CURVE SMOOTH",
"603 420 OFFCURVE",
"654 264 OFFCURVE",
"654 193 CURVE SMOOTH",
"654 94 OFFCURVE",
"599 -7 OFFCURVE",
"323 -7 CURVE SMOOTH"
);
},
{
closed = 1;
nodes = (
"543 234 OFFCURVE",
"589 246 OFFCURVE",
"589 258 CURVE SMOOTH",
"589 272 OFFCURVE",
"542 325 OFFCURVE",
"518 325 CURVE SMOOTH",
"488 325 OFFCURVE",
"440 287 OFFCURVE",
"440 267 CURVE SMOOTH",
"440 249 OFFCURVE",
"486 234 OFFCURVE",
"522 234 CURVE SMOOTH"
);
}
);
width = 654;
},
{
associatedMasterId = "98B9451C-6456-42E9-9BE3-FFE7D6D9360C";
layerId = "DE8A37FC-25CE-4CE1-A6A7-6CBC7AD9577F";
name = "Sep 9 20, 01:45";
paths = (
{
closed = 1;
nodes = (
"330 50 LINE",
"350 100 LINE",
"535 100 OFFCURVE",
"612 135 OFFCURVE",
"612 179 CURVE SMOOTH",
"612 191 OFFCURVE",
"611 196 OFFCURVE",
"608 196 CURVE SMOOTH",
"603 196 OFFCURVE",
"549 140 OFFCURVE",
"492 140 CURVE SMOOTH",
"444 140 OFFCURVE",
"403 176 OFFCURVE",
"403 236 CURVE SMOOTH",
"403 327 OFFCURVE",
"484 420 OFFCURVE",
"529 420 CURVE SMOOTH",
"593 420 OFFCURVE",
"654 283 OFFCURVE",
"654 196 CURVE SMOOTH",
"654 49 OFFCURVE",
"538 0 OFFCURVE",
"350 0 CURVE"
);
},
{
closed = 1;
nodes = (
"488 325 OFFCURVE",
"440 285 OFFCURVE",
"440 269 CURVE SMOOTH",
"440 241 OFFCURVE",
"502 235 OFFCURVE",
"517 235 CURVE SMOOTH",
"549 235 OFFCURVE",
"589 247 OFFCURVE",
"589 257 CURVE SMOOTH",
"589 272 OFFCURVE",
"540 325 OFFCURVE",
"518 325 CURVE SMOOTH"
);
}
);
visible = 1;
width = 654;
}
);
unicode = 06A1;
},
{
color = 5;
glyphname = "fehDotless-ar.fina";
layers = (
{
layerId = "98B9451C-6456-42E9-9BE3-FFE7D6D9360C";
paths = (
{
closed = 1;
nodes = (
"569 275 OFFCURVE",
"563 199 OFFCURVE",
"500 199 CURVE SMOOTH",
"459 199 OFFCURVE",
"417 228 OFFCURVE",
"417 285 CURVE SMOOTH",
"417 344 OFFCURVE",
"462 445 OFFCURVE",
"506 445 CURVE SMOOTH",
"586 445 OFFCURVE",
"654 298 OFFCURVE",
"654 240 CURVE SMOOTH",
"654 93 OFFCURVE",
"602 -8 OFFCURVE",
"323 -8 CURVE SMOOTH",
"1 -8 OFFCURVE",
"0 66 OFFCURVE",
"0 164 CURVE SMOOTH",
"0 232 OFFCURVE",
"32 290 OFFCURVE",
"44 290 CURVE SMOOTH",
"54 290 OFFCURVE",
"57 284 OFFCURVE",
"57 272 CURVE SMOOTH",
"57 256 OFFCURVE",
"46 235 OFFCURVE",
"46 202 CURVE SMOOTH",
"46 142 OFFCURVE",
"77 100 OFFCURVE",
"301 100 CURVE SMOOTH",
"438 100 OFFCURVE",
"616 129 OFFCURVE",
"616 211 CURVE SMOOTH",
"616 244 OFFCURVE",
"598 275 OFFCURVE",
"584 275 CURVE SMOOTH"
);
},
{
closed = 1;
nodes = (
"523 296 OFFCURVE",
"543 306 OFFCURVE",
"543 320 CURVE SMOOTH",
"543 334 OFFCURVE",
"528 344 OFFCURVE",
"502 344 CURVE SMOOTH",
"474 344 OFFCURVE",
"459 334 OFFCURVE",
"459 320 CURVE SMOOTH",
"459 306 OFFCURVE",
"474 296 OFFCURVE",
"502 296 CURVE SMOOTH"
);
}
);
width = 600;
}
);
},
{
color = 5;
glyphname = "fehDotless-ar.medi";
layers = (
{
anchors = (
{
name = bottom;
position = "{133, 0}";
}
);
layerId = "98B9451C-6456-42E9-9BE3-FFE7D6D9360C";
paths = (
{
closed = 1;
nodes = (
"-20 50 LINE",
"0 0 LINE",
"91 0 OFFCURVE",
"110 33 OFFCURVE",
"123 33 CURVE SMOOTH",
"142 33 OFFCURVE",
"193 0 OFFCURVE",
"330 0 CURVE",
"350 50 LINE",
"330 100 LINE",
"253 100 LINE SMOOTH",
"233 100 OFFCURVE",
"224 103 OFFCURVE",
"224 107 CURVE SMOOTH",
"224 114 OFFCURVE",
"288 158 OFFCURVE",
"288 202 CURVE SMOOTH",
"288 272 OFFCURVE",
"221 325 OFFCURVE",
"168 325 CURVE SMOOTH",
"111 325 OFFCURVE",
"44 217 OFFCURVE",
"44 169 CURVE SMOOTH",
"44 133 OFFCURVE",
"62 117 OFFCURVE",
"62 105 CURVE SMOOTH",
"62 100 OFFCURVE",
"56 100 OFFCURVE",
"50 100 CURVE SMOOTH",
"0 100 LINE"
);
},
{
closed = 1;
nodes = (
"137 114 OFFCURVE",
"83 159 OFFCURVE",
"83 193 CURVE SMOOTH",
"83 215 OFFCURVE",
"97 224 OFFCURVE",
"129 224 CURVE SMOOTH",
"177 224 OFFCURVE",
"213 181 OFFCURVE",
"213 160 CURVE SMOOTH",
"213 141 OFFCURVE",
"175 114 OFFCURVE",
"163 114 CURVE SMOOTH"
);
}
);
width = 330;
}
);
},
{
color = 5;
glyphname = "fehDotless-ar.init";
layers = (
{
layerId = "98B9451C-6456-42E9-9BE3-FFE7D6D9360C";
paths = (
{
closed = 1;
nodes = (
"-20 50 LINE",
"0 100 LINE",
"237 102 OFFCURVE",
"262 108 OFFCURVE",
"262 194 CURVE SMOOTH",
"262 206 OFFCURVE",
"260 211 OFFCURVE",
"257 211 CURVE SMOOTH",
"249 211 OFFCURVE",
"229 155 OFFCURVE",
"152 155 CURVE SMOOTH",
"94 155 OFFCURVE",
"53 191 OFFCURVE",
"53 251 CURVE SMOOTH",
"53 342 OFFCURVE",
"134 420 OFFCURVE",
"179 420 CURVE SMOOTH",
"243 420 OFFCURVE",
"304 283 OFFCURVE",
"304 196 CURVE SMOOTH",
"304 53 OFFCURVE",
"210 0 OFFCURVE",
"0 0 CURVE"
);
},
{
closed = 1;
nodes = (
"138 325 OFFCURVE",
"90 290 OFFCURVE",
"90 274 CURVE SMOOTH",
"90 256 OFFCURVE",
"122 250 OFFCURVE",
"167 250 CURVE SMOOTH",
"209 250 OFFCURVE",
"239 262 OFFCURVE",
"239 272 CURVE SMOOTH",
"239 287 OFFCURVE",
"190 325 OFFCURVE",
"168 325 CURVE SMOOTH"
);
}
);
width = 304;
},
{
associatedMasterId = "98B9451C-6456-42E9-9BE3-FFE7D6D9360C";
layerId = "9ACA7E40-858A-4B14-8EBE-9C0BE0A801AB";
name = "Sep 8 20, 23:44";
paths = (
{
closed = 1;
nodes = (
"-20 50 LINE",
"0 100 LINE",
"56 100 OFFCURVE",
"223 135 OFFCURVE",
"223 179 CURVE SMOOTH",
"223 191 OFFCURVE",
"222 195 OFFCURVE",
"219 195 CURVE SMOOTH",
"214 195 OFFCURVE",
"160 138 OFFCURVE",
"103 138 CURVE SMOOTH",
"55 138 OFFCURVE",
"13 172 OFFCURVE",
"13 238 CURVE SMOOTH",
"13 329 OFFCURVE",
"99 420 OFFCURVE",
"140 420 CURVE SMOOTH",
"199 420 OFFCURVE",
"265 283 OFFCURVE",
"265 196 CURVE SMOOTH",
"265 119 OFFCURVE",
"129 0 OFFCURVE",
"0 0 CURVE"
);
},
{
closed = 1;
nodes = (
"99 323 OFFCURVE",
"50 283 OFFCURVE",
"50 267 CURVE SMOOTH",
"50 239 OFFCURVE",
"111 233 OFFCURVE",
"126 233 CURVE SMOOTH",
"158 233 OFFCURVE",
"199 245 OFFCURVE",
"199 255 CURVE SMOOTH",
"199 270 OFFCURVE",
"150 323 OFFCURVE",
"129 323 CURVE SMOOTH"
);
}
);
width = 274;
},
{
associatedMasterId = "98B9451C-6456-42E9-9BE3-FFE7D6D9360C";
layerId = "E056DBE0-45A9-402D-B37E-8E70C61FCFA0";
name = "Sep 8 20, 23:46";
paths = (
{
closed = 1;
nodes = (
"33 -154 OFFCURVE",
"-115 -72 OFFCURVE",
"-115 -36 CURVE SMOOTH",
"-115 -30 OFFCURVE",
"-113 -25 OFFCURVE",
"-102 -25 CURVE SMOOTH",
"-82 -25 OFFCURVE",
"33 -53 OFFCURVE",
"91 -53 CURVE SMOOTH",
"147 -53 OFFCURVE",
"248 137 OFFCURVE",
"248 181 CURVE SMOOTH",
"248 193 OFFCURVE",
"247 197 OFFCURVE",
"244 197 CURVE SMOOTH",
"239 197 OFFCURVE",
"185 140 OFFCURVE",
"128 140 CURVE SMOOTH",
"80 140 OFFCURVE",
"38 174 OFFCURVE",
"38 240 CURVE SMOOTH",
"38 331 OFFCURVE",
"124 422 OFFCURVE",
"165 422 CURVE SMOOTH",
"224 422 OFFCURVE",
"290 285 OFFCURVE",
"290 198 CURVE SMOOTH",
"290 121 OFFCURVE",
"231 -154 OFFCURVE",
"102 -154 CURVE SMOOTH"
);
},
{
closed = 1;
nodes = (
"124 325 OFFCURVE",
"75 285 OFFCURVE",
"75 269 CURVE SMOOTH",
"75 241 OFFCURVE",
"136 235 OFFCURVE",
"151 235 CURVE SMOOTH",
"183 235 OFFCURVE",
"224 247 OFFCURVE",
"224 257 CURVE SMOOTH",
"224 272 OFFCURVE",
"175 325 OFFCURVE",
"154 325 CURVE SMOOTH"
);
}
);
visible = 1;
width = 274;
}
);
},
{
color = 5;
glyphname = "qaf-ar";
layers = (
{
components = (
{
name = "twodotshorizontalabove-ar";
transform = "{1, 0, 0, 1, 378, -152}";
}
);
layerId = "98B9451C-6456-42E9-9BE3-FFE7D6D9360C";
paths = (
{
closed = 1;
nodes = (
"87 -300 OFFCURVE",
"0 -155 OFFCURVE",
"0 -9 CURVE SMOOTH",
"0 76 OFFCURVE",
"49 149 OFFCURVE",
"60 149 CURVE SMOOTH",
"76 149 OFFCURVE",
"82 134 OFFCURVE",
"82 116 CURVE SMOOTH",
"82 90 OFFCURVE",
"67 59 OFFCURVE",
"67 20 CURVE SMOOTH",
"67 -109 OFFCURVE",
"190 -176 OFFCURVE",
"358 -176 CURVE SMOOTH",
"582 -176 OFFCURVE",
"639 -62 OFFCURVE",
"639 -18 CURVE SMOOTH",
"639 -8 OFFCURVE",
"633 0 OFFCURVE",
"604 0 CURVE SMOOTH",
"503 0 OFFCURVE",
"439 37 OFFCURVE",
"439 100 CURVE SMOOTH",
"439 169 OFFCURVE",
"533 296 OFFCURVE",
"590 296 CURVE SMOOTH",
"640 296 OFFCURVE",
"691 225 OFFCURVE",
"691 46 CURVE SMOOTH",
"691 -101 OFFCURVE",
"626 -300 OFFCURVE",
"354 -300 CURVE SMOOTH"
);
},
{
closed = 1;
nodes = (
"524 195 OFFCURVE",
"486 143 OFFCURVE",
"486 127 CURVE SMOOTH",
"486 106 OFFCURVE",
"537 99 OFFCURVE",
"562 99 CURVE SMOOTH",
"616 99 OFFCURVE",
"645 106 OFFCURVE",
"645 119 CURVE SMOOTH",
"645 134 OFFCURVE",
"598 195 OFFCURVE",
"559 195 CURVE SMOOTH"
);
}
);
width = 691;
},
{
associatedMasterId = "98B9451C-6456-42E9-9BE3-FFE7D6D9360C";
components = (
{
name = "twodotshorizontalabove-ar";
transform = "{1, 0, 0, 1, 378, -152}";
}
);
layerId = "FB14D4DC-DB5B-48D5-BDBB-394E3B669A3D";
name = "Oct 4 20, 00:53";
paths = (
{
closed = 1;
nodes = (
"188 -300 OFFCURVE",
"104 -225 OFFCURVE",
"104 -61 CURVE SMOOTH",
"104 0 OFFCURVE",
"133 100 OFFCURVE",
"161 100 CURVE SMOOTH",
"173 100 OFFCURVE",
"179 92 OFFCURVE",
"179 73 CURVE SMOOTH",
"179 48 OFFCURVE",
"168 0 OFFCURVE",
"168 -32 CURVE SMOOTH",
"168 -144 OFFCURVE",
"223 -176 OFFCURVE",
"389 -176 CURVE SMOOTH",
"575 -176 OFFCURVE",
"639 -50 OFFCURVE",
"639 -8 CURVE SMOOTH",
"639 -2 OFFCURVE",
"635 0 OFFCURVE",
"627 0 CURVE SMOOTH",
"534 0 OFFCURVE",
"420 36 OFFCURVE",
"420 100 CURVE SMOOTH",
"420 168 OFFCURVE",
"513 296 OFFCURVE",
"571 296 CURVE SMOOTH",
"620 296 OFFCURVE",
"684 192 OFFCURVE",
"692 116 CURVE SMOOTH",
"693 106 OFFCURVE",
"695 100 OFFCURVE",
"704 100 CURVE SMOOTH",
"761 100 LINE",
"761 0 LINE",
"710 0 LINE SMOOTH",
"698 0 OFFCURVE",
"694 -4 OFFCURVE",
"689 -27 CURVE SMOOTH",
"654 -186 OFFCURVE",
"574 -300 OFFCURVE",
"325 -300 CURVE SMOOTH"
);
},
{
closed = 1;
nodes = (
"505 195 OFFCURVE",
"467 144 OFFCURVE",
"467 127 CURVE SMOOTH",
"467 107 OFFCURVE",
"502 99 OFFCURVE",
"543 99 CURVE SMOOTH",
"581 99 OFFCURVE",
"626 105 OFFCURVE",
"626 119 CURVE SMOOTH",
"626 133 OFFCURVE",
"579 195 OFFCURVE",
"540 195 CURVE SMOOTH"
);
}
);
visible = 1;
width = 691;
},
{
associatedMasterId = "98B9451C-6456-42E9-9BE3-FFE7D6D9360C";
components = (
{
name = "twodotshorizontalabove-ar";
transform = "{1, 0, 0, 1, 378, -152}";
}
);
layerId = "B8155114-B819-4ACE-AABE-2AFD77E97A99";
name = "Oct 4 20, 00:53";
paths = (
{
closed = 1;
nodes = (
"57 -372 OFFCURVE",
"0 -227 OFFCURVE",
"0 -81 CURVE SMOOTH",
"0 4 OFFCURVE",
"49 77 OFFCURVE",
"60 77 CURVE SMOOTH",
"76 77 OFFCURVE",
"82 62 OFFCURVE",
"82 44 CURVE SMOOTH",
"82 18 OFFCURVE",
"67 -13 OFFCURVE",
"67 -52 CURVE SMOOTH",
"67 -181 OFFCURVE",
"170 -228 OFFCURVE",
"338 -228 CURVE SMOOTH",
"562 -228 OFFCURVE",
"639 -62 OFFCURVE",
"639 -18 CURVE SMOOTH",
"639 -8 OFFCURVE",
"633 0 OFFCURVE",
"604 0 CURVE SMOOTH",
"503 0 OFFCURVE",
"439 37 OFFCURVE",
"439 100 CURVE SMOOTH",
"439 169 OFFCURVE",
"533 296 OFFCURVE",
"590 296 CURVE SMOOTH",
"640 296 OFFCURVE",
"691 225 OFFCURVE",
"691 46 CURVE SMOOTH",
"691 -101 OFFCURVE",
"596 -372 OFFCURVE",
"324 -372 CURVE SMOOTH"
);
},
{
closed = 1;
nodes = (
"524 195 OFFCURVE",
"486 143 OFFCURVE",
"486 127 CURVE SMOOTH",
"486 106 OFFCURVE",
"537 99 OFFCURVE",
"562 99 CURVE SMOOTH",
"616 99 OFFCURVE",
"645 106 OFFCURVE",
"645 119 CURVE SMOOTH",
"645 134 OFFCURVE",
"598 195 OFFCURVE",
"559 195 CURVE SMOOTH"
);
}
);
width = 691;
}
);
unicode = 0642;
},
{
color = 5;
glyphname = "qaf-ar.fina";
layers = (
{
components = (
{
name = "twodotshorizontalabove-ar";
transform = "{1, 0, 0, 1, 413, -135}";
}
);
layerId = "98B9451C-6456-42E9-9BE3-FFE7D6D9360C";
paths = (
{
closed = 1;
nodes = (
"287 -254 OFFCURVE",
"123 -225 OFFCURVE",
"123 -61 CURVE SMOOTH",
"123 9 OFFCURVE",
"153 100 OFFCURVE",
"180 100 CURVE SMOOTH",
"189 100 OFFCURVE",
"195 93 OFFCURVE",
"195 79 CURVE SMOOTH",
"195 51 OFFCURVE",
"187 28 OFFCURVE",
"187 0 CURVE SMOOTH",
"187 -112 OFFCURVE",
"262 -150 OFFCURVE",
"448 -150 CURVE SMOOTH",
"568 -150 OFFCURVE",
"658 -86 OFFCURVE",
"658 -8 CURVE SMOOTH",
"658 -2 OFFCURVE",
"654 0 OFFCURVE",
"646 0 CURVE SMOOTH",
"553 0 OFFCURVE",
"439 36 OFFCURVE",
"439 100 CURVE SMOOTH",
"439 168 OFFCURVE",
"532 296 OFFCURVE",
"590 296 CURVE SMOOTH",
"639 296 OFFCURVE",
"703 192 OFFCURVE",
"711 116 CURVE SMOOTH",
"712 106 OFFCURVE",
"714 100 OFFCURVE",
"723 100 CURVE SMOOTH",
"780 100 LINE",
"780 0 LINE",
"723 0 LINE SMOOTH",
"712 0 OFFCURVE",
"708 -2 OFFCURVE",
"708 -8 CURVE SMOOTH",
"708 -130 OFFCURVE",
"621 -254 OFFCURVE",
"384 -254 CURVE SMOOTH"
);
},
{
closed = 1;
nodes = (
"524 195 OFFCURVE",
"486 144 OFFCURVE",
"486 127 CURVE SMOOTH",
"486 107 OFFCURVE",
"521 99 OFFCURVE",
"562 99 CURVE SMOOTH",
"600 99 OFFCURVE",
"645 105 OFFCURVE",
"645 119 CURVE SMOOTH",
"645 133 OFFCURVE",
"598 195 OFFCURVE",
"559 195 CURVE SMOOTH"
);
}
);
width = 780;
}
);
unicode = FED6;
},
{
color = 5;
glyphname = "kaf-ar";
layers = (
{
layerId = "98B9451C-6456-42E9-9BE3-FFE7D6D9360C";
paths = (
{
closed = 1;
nodes = (
"0 42 OFFCURVE",
"128 0 OFFCURVE",
"360 0 CURVE SMOOTH",
"637 0 OFFCURVE",
"667 41 OFFCURVE",
"667 100 CURVE SMOOTH",
"667 137 OFFCURVE",
"623 497 OFFCURVE",
"621 516 CURVE SMOOTH",
"618 546 OFFCURVE",
"646 569 OFFCURVE",
"646 587 CURVE SMOOTH",
"646 606 OFFCURVE",
"625 621 OFFCURVE",
"610 640 CURVE SMOOTH",
"593 662 OFFCURVE",
"585 700 OFFCURVE",
"569 700 CURVE SMOOTH",
"547 700 OFFCURVE",
"524 662 OFFCURVE",
"540 565 CURVE SMOOTH",
"556 467 OFFCURVE",
"598 249 OFFCURVE",
"598 145 CURVE SMOOTH",
"598 109 OFFCURVE",
"569 98 OFFCURVE",
"337 100 CURVE SMOOTH",
"157 102 OFFCURVE",
"58 127 OFFCURVE",
"58 176 CURVE SMOOTH",
"58 228 OFFCURVE",
"81 249 OFFCURVE",
"81 267 CURVE SMOOTH",
"81 276 OFFCURVE",
"73 285 OFFCURVE",
"65 285 CURVE SMOOTH",
"49 285 OFFCURVE",
"0 214 OFFCURVE",
"0 131 CURVE SMOOTH"
);
},
{
closed = 1;
nodes = (
"454 208 OFFCURVE",
"489 256 OFFCURVE",
"489 285 CURVE SMOOTH",
"489 305 OFFCURVE",
"399 326 OFFCURVE",
"399 341 CURVE SMOOTH",
"399 350 OFFCURVE",
"408 358 OFFCURVE",
"415 358 CURVE SMOOTH",
"425 358 OFFCURVE",
"431 352 OFFCURVE",
"440 352 CURVE SMOOTH",
"452 352 OFFCURVE",
"471 376 OFFCURVE",
"471 393 CURVE SMOOTH",
"471 400 OFFCURVE",
"457 406 OFFCURVE",
"445 406 CURVE SMOOTH",
"425 406 OFFCURVE",
"333 343 OFFCURVE",
"333 308 CURVE SMOOTH",
"333 275 OFFCURVE",
"418 256 OFFCURVE",
"418 247 CURVE SMOOTH",
"418 240 OFFCURVE",
"387 223 OFFCURVE",
"295 223 CURVE SMOOTH",
"261 223 OFFCURVE",
"204 227 OFFCURVE",
"186 227 CURVE SMOOTH",
"177 227 OFFCURVE",
"172 223 OFFCURVE",
"172 215 CURVE SMOOTH",
"172 204 OFFCURVE",
"245 184 OFFCURVE",
"268 184 CURVE SMOOTH",
"312 184 OFFCURVE",
"388 189 OFFCURVE",
"413 196 CURVE SMOOTH"
);
}
);
width = 684;
},
{
associatedMasterId = "98B9451C-6456-42E9-9BE3-FFE7D6D9360C";
layerId = "A64E8CC3-A42C-4534-BFFC-97A6CFFD1543";
name = "Oct 6 20, 07:07";
paths = (
{
closed = 1;
nodes = (
"0 42 OFFCURVE",
"128 -6 OFFCURVE",
"360 -6 CURVE SMOOTH",
"637 -6 OFFCURVE",
"654 0 OFFCURVE",
"654 134 CURVE SMOOTH",
"654 171 OFFCURVE",
"619 588 OFFCURVE",
"619 604 CURVE SMOOTH",
"619 618 OFFCURVE",
"637 646 OFFCURVE",
"637 661 CURVE SMOOTH",
"637 671 OFFCURVE",
"616 685 OFFCURVE",
"600 707 CURVE SMOOTH",
"583 729 OFFCURVE",
"579 762 OFFCURVE",
"563 762 CURVE SMOOTH",
"546 762 OFFCURVE",
"515 714 OFFCURVE",
"515 692 CURVE SMOOTH",
"515 662 OFFCURVE",
"531 649 OFFCURVE",
"536 618 CURVE SMOOTH",
"552 520 OFFCURVE",
"585 299 OFFCURVE",
"585 145 CURVE SMOOTH",
"585 109 OFFCURVE",
"569 100 OFFCURVE",
"337 102 CURVE SMOOTH",
"157 104 OFFCURVE",
"72 127 OFFCURVE",
"72 176 CURVE SMOOTH",
"72 228 OFFCURVE",
"81 249 OFFCURVE",
"81 267 CURVE SMOOTH",
"81 276 OFFCURVE",
"73 285 OFFCURVE",
"65 285 CURVE SMOOTH",
"49 285 OFFCURVE",
"0 214 OFFCURVE",
"0 131 CURVE SMOOTH"
);
},
{
closed = 1;
nodes = (
"466 208 OFFCURVE",
"501 256 OFFCURVE",
"501 285 CURVE SMOOTH",
"501 305 OFFCURVE",
"411 326 OFFCURVE",
"411 341 CURVE SMOOTH",
"411 350 OFFCURVE",
"420 358 OFFCURVE",
"427 358 CURVE SMOOTH",
"437 358 OFFCURVE",
"443 352 OFFCURVE",
"452 352 CURVE SMOOTH",
"464 352 OFFCURVE",
"483 376 OFFCURVE",
"483 393 CURVE SMOOTH",
"483 400 OFFCURVE",
"469 406 OFFCURVE",
"457 406 CURVE SMOOTH",
"437 406 OFFCURVE",
"345 343 OFFCURVE",
"345 308 CURVE SMOOTH",
"345 275 OFFCURVE",
"430 256 OFFCURVE",
"430 247 CURVE SMOOTH",
"430 240 OFFCURVE",
"399 223 OFFCURVE",
"307 223 CURVE SMOOTH",
"273 223 OFFCURVE",
"216 227 OFFCURVE",
"198 227 CURVE SMOOTH",
"189 227 OFFCURVE",
"184 223 OFFCURVE",
"184 215 CURVE SMOOTH",
"184 204 OFFCURVE",
"257 184 OFFCURVE",
"280 184 CURVE SMOOTH",
"324 184 OFFCURVE",
"400 189 OFFCURVE",
"425 196 CURVE SMOOTH"
);
}
);
width = 684;
},
{
associatedMasterId = "98B9451C-6456-42E9-9BE3-FFE7D6D9360C";
layerId = "A526A1CC-38FE-42FD-8F40-B01B5A43E93E";
name = "Oct 6 20, 07:07";
paths = (
{
closed = 1;
nodes = (
"602 0 OFFCURVE",
"666 27 OFFCURVE",
"666 100 CURVE SMOOTH",
"666 182 OFFCURVE",
"620 500 OFFCURVE",
"620 526 CURVE SMOOTH",
"620 545 OFFCURVE",
"646 567 OFFCURVE",
"646 589 CURVE SMOOTH",
"646 608 OFFCURVE",
"625 620 OFFCURVE",
"611 639 CURVE SMOOTH",
"591 666 OFFCURVE",
"587 699 OFFCURVE",
"568 700 CURVE SMOOTH",
"546 701 OFFCURVE",
"533 648 OFFCURVE",
"533 627 CURVE SMOOTH",
"533 580 OFFCURVE",
"599 266 OFFCURVE",
"599 134 CURVE SMOOTH",
"599 111 OFFCURVE",
"557 100 OFFCURVE",
"508 100 CURVE",
"488 50 LINE",
"508 0 LINE"
);
}
);
visible = 1;
width = 684;
}
);
unicode = 0643;
},
{
color = 5;
glyphname = "kaf-ar.fina";
layers = (
{
layerId = "98B9451C-6456-42E9-9BE3-FFE7D6D9360C";
paths = (
{
closed = 1;
nodes = (
"664 0 OFFCURVE",
"622 204 OFFCURVE",
"642 204 CURVE SMOOTH",
"651 204 OFFCURVE",
"676 0 OFFCURVE",
"805 0 CURVE",
"805 100 LINE",
"681 100 OFFCURVE",
"650 440 OFFCURVE",
"650 669 CURVE SMOOTH",
"650 690 OFFCURVE",
"648 700 OFFCURVE",
"635 700 CURVE SMOOTH",
"617 700 OFFCURVE",
"579 604 OFFCURVE",
"579 578 CURVE SMOOTH",
"579 520 OFFCURVE",
"600 312 OFFCURVE",
"600 176 CURVE SMOOTH",
"600 135 OFFCURVE",
"379 100 OFFCURVE",
"291 100 CURVE SMOOTH",
"231 100 OFFCURVE",
"77 114 OFFCURVE",
"77 163 CURVE SMOOTH",
"77 195 OFFCURVE",
"86 217 OFFCURVE",
"86 235 CURVE SMOOTH",
"86 247 OFFCURVE",
"80 255 OFFCURVE",
"70 255 CURVE SMOOTH",
"54 255 OFFCURVE",
"20 202 OFFCURVE",
"20 112 CURVE SMOOTH",
"20 23 OFFCURVE",
"143 -8 OFFCURVE",
"275 -6 CURVE SMOOTH"
);
},
{
closed = 1;
nodes = (
"466 208 OFFCURVE",
"501 256 OFFCURVE",
"501 285 CURVE SMOOTH",
"501 305 OFFCURVE",
"411 326 OFFCURVE",
"411 341 CURVE SMOOTH",
"411 350 OFFCURVE",
"420 358 OFFCURVE",
"427 358 CURVE SMOOTH",
"437 358 OFFCURVE",
"443 352 OFFCURVE",
"452 352 CURVE SMOOTH",
"464 352 OFFCURVE",
"483 376 OFFCURVE",
"483 393 CURVE SMOOTH",
"483 400 OFFCURVE",
"469 406 OFFCURVE",
"457 406 CURVE SMOOTH",
"437 406 OFFCURVE",
"345 343 OFFCURVE",
"345 308 CURVE SMOOTH",
"345 275 OFFCURVE",
"430 256 OFFCURVE",
"430 247 CURVE SMOOTH",
"430 240 OFFCURVE",
"399 223 OFFCURVE",
"307 223 CURVE SMOOTH",
"273 223 OFFCURVE",
"216 227 OFFCURVE",
"198 227 CURVE SMOOTH",
"189 227 OFFCURVE",
"184 223 OFFCURVE",
"184 215 CURVE SMOOTH",
"184 204 OFFCURVE",
"257 184 OFFCURVE",
"280 184 CURVE SMOOTH",
"324 184 OFFCURVE",
"400 189 OFFCURVE",
"425 196 CURVE SMOOTH"
);
}
);
width = 805;
}
);
unicode = FEDA;
},
{
color = 5;
glyphname = "kaf-ar.medi";
layers = (
{
layerId = "98B9451C-6456-42E9-9BE3-FFE7D6D9360C";
paths = (
{
closed = 1;
nodes = (
"386 0 LINE SMOOTH",
"446 0 OFFCURVE",
"481 -8 OFFCURVE",
"533 -8 CURVE SMOOTH",
"606 -8 OFFCURVE",
"639 74 OFFCURVE",
"649 74 CURVE SMOOTH",
"659 74 OFFCURVE",
"680 0 OFFCURVE",
"779 0 CURVE",
"799 50 LINE",
"779 100 LINE",
"699 100 OFFCURVE",
"686 114 OFFCURVE",
"686 127 CURVE SMOOTH",
"686 147 OFFCURVE",
"692 159 OFFCURVE",
"692 183 CURVE SMOOTH",
"692 242 OFFCURVE",
"580 300 OFFCURVE",
"498 300 CURVE SMOOTH",
"362 300 OFFCURVE",
"282 271 OFFCURVE",
"216 271 CURVE SMOOTH",
"189 271 OFFCURVE",
"178 284 OFFCURVE",
"178 298 CURVE SMOOTH",
"178 336 OFFCURVE",
"331 412 OFFCURVE",
"394 412 CURVE SMOOTH",
"416 412 OFFCURVE",
"434 392 OFFCURVE",
"451 392 CURVE SMOOTH",
"470 392 OFFCURVE",
"519 432 OFFCURVE",
"519 449 CURVE SMOOTH",
"519 471 OFFCURVE",
"440 512 OFFCURVE",
"406 512 CURVE SMOOTH",
"339 512 OFFCURVE",
"181 374 OFFCURVE",
"125 325 CURVE SMOOTH",
"91 295 OFFCURVE",
"87 264 OFFCURVE",
"87 231 CURVE SMOOTH",
"87 213 OFFCURVE",
"115 177 OFFCURVE",
"147 177 CURVE SMOOTH",
"292 177 OFFCURVE",
"344 204 OFFCURVE",
"452 204 CURVE SMOOTH",
"586 204 OFFCURVE",
"608 150 OFFCURVE",
"608 112 CURVE SMOOTH",
"608 103 OFFCURVE",
"601 87 OFFCURVE",
"584 87 CURVE SMOOTH",
"504 87 OFFCURVE",
"452 100 OFFCURVE",
"338 100 CURVE SMOOTH",
"0 100 LINE",
"-20 50 LINE",
"0 0 LINE"
);
}
);
width = 779;
},
{
associatedMasterId = "98B9451C-6456-42E9-9BE3-FFE7D6D9360C";
layerId = "DE73B9C1-E327-44A2-9490-EEB73D01B07E";
name = "Aug 26 20, 07:18";
paths = (
{
closed = 1;
nodes = (
"0 0 LINE",
"79 0 OFFCURVE",
"127 8 OFFCURVE",
"206 8 CURVE SMOOTH",
"274 8 OFFCURVE",
"508 -8 OFFCURVE",
"576 -8 CURVE SMOOTH",
"624 -8 OFFCURVE",
"722 102 OFFCURVE",
"722 183 CURVE SMOOTH",
"722 240 OFFCURVE",
"610 300 OFFCURVE",
"528 300 CURVE SMOOTH",
"392 300 OFFCURVE",
"232 271 OFFCURVE",
"166 271 CURVE SMOOTH",
"139 271 OFFCURVE",
"128 284 OFFCURVE",
"128 298 CURVE SMOOTH",
"128 336 OFFCURVE",
"264 412 OFFCURVE",
"327 412 CURVE SMOOTH",
"349 412 OFFCURVE",
"367 392 OFFCURVE",
"384 392 CURVE SMOOTH",
"403 392 OFFCURVE",
"452 432 OFFCURVE",
"452 449 CURVE SMOOTH",
"452 471 OFFCURVE",
"373 512 OFFCURVE",
"339 512 CURVE SMOOTH",
"272 512 OFFCURVE",
"69 327 OFFCURVE",
"58 308 CURVE SMOOTH",
"47 288 OFFCURVE",
"37 264 OFFCURVE",
"37 231 CURVE SMOOTH",
"37 213 OFFCURVE",
"65 177 OFFCURVE",
"97 177 CURVE SMOOTH",
"242 177 OFFCURVE",
"374 204 OFFCURVE",
"482 204 CURVE SMOOTH",
"616 204 OFFCURVE",
"638 150 OFFCURVE",
"638 112 CURVE SMOOTH",
"638 103 OFFCURVE",
"619 97 OFFCURVE",
"604 97 CURVE SMOOTH",
"518 97 OFFCURVE",
"253 107 OFFCURVE",
"158 107 CURVE SMOOTH",
"73 107 OFFCURVE",
"79 99 OFFCURVE",
"0 100 CURVE"
);
},
{
closed = 1;
nodes = (
"676 165 OFFCURVE",
"658 142 OFFCURVE",
"658 94 CURVE SMOOTH",
"658 24 OFFCURVE",
"687 1 OFFCURVE",
"742 0 CURVE",
"742 100 LINE",
"722 100 OFFCURVE",
"701 125 OFFCURVE",
"701 147 CURVE SMOOTH",
"701 156 OFFCURVE",
"701 165 OFFCURVE",
"693 165 CURVE SMOOTH"
);
}
);
visible = 1;
width = 742;
},
{
associatedMasterId = "98B9451C-6456-42E9-9BE3-FFE7D6D9360C";
layerId = "53416F6C-745D-4BC1-905C-91900DFEE9B6";
name = "Oct 5 20, 22:38";
paths = (
{
closed = 1;
nodes = (
"-20 50 LINE",
"0 0 LINE",
"486 0 LINE SMOOTH",
"546 0 OFFCURVE",
"594 -8 OFFCURVE",
"646 -8 CURVE SMOOTH",
"694 -8 OFFCURVE",
"792 102 OFFCURVE",
"792 183 CURVE SMOOTH",
"792 240 OFFCURVE",
"680 300 OFFCURVE",
"598 300 CURVE SMOOTH",
"462 300 OFFCURVE",
"282 271 OFFCURVE",
"216 271 CURVE SMOOTH",
"189 271 OFFCURVE",
"178 284 OFFCURVE",
"178 298 CURVE SMOOTH",
"178 336 OFFCURVE",
"331 412 OFFCURVE",
"394 412 CURVE SMOOTH",
"416 412 OFFCURVE",
"434 392 OFFCURVE",
"451 392 CURVE SMOOTH",
"470 392 OFFCURVE",
"519 432 OFFCURVE",
"519 449 CURVE SMOOTH",
"519 471 OFFCURVE",
"440 512 OFFCURVE",
"406 512 CURVE SMOOTH",
"339 512 OFFCURVE",
"181 374 OFFCURVE",
"125 325 CURVE SMOOTH",
"91 295 OFFCURVE",
"87 264 OFFCURVE",
"87 231 CURVE SMOOTH",
"87 213 OFFCURVE",
"115 177 OFFCURVE",
"147 177 CURVE SMOOTH",
"292 177 OFFCURVE",
"444 204 OFFCURVE",
"552 204 CURVE SMOOTH",
"686 204 OFFCURVE",
"708 150 OFFCURVE",
"708 112 CURVE SMOOTH",
"708 103 OFFCURVE",
"701 87 OFFCURVE",
"684 87 CURVE SMOOTH",
"604 87 OFFCURVE",
"552 100 OFFCURVE",
"438 100 CURVE SMOOTH",
"0 100 LINE"
);
},
{
closed = 1;
nodes = (
"766 165 OFFCURVE",
"748 142 OFFCURVE",
"748 94 CURVE SMOOTH",
"748 24 OFFCURVE",
"792 0 OFFCURVE",
"879 0 CURVE",
"899 50 LINE",
"879 100 LINE",
"799 100 OFFCURVE",
"791 125 OFFCURVE",
"791 147 CURVE SMOOTH",
"791 156 OFFCURVE",
"791 165 OFFCURVE",
"783 165 CURVE SMOOTH"
);
}
);
width = 1292;
}
);
unicode = FEDC;
},
{
color = 5;
glyphname = "kaf-ar.medi.cringe";
layers = (
{
layerId = "98B9451C-6456-42E9-9BE3-FFE7D6D9360C";
paths = (
{
closed = 1;
nodes = (
"190 0 OFFCURVE",
"190 124 OFFCURVE",
"211 124 CURVE SMOOTH",
"239 124 OFFCURVE",
"297 0 OFFCURVE",
"456 0 CURVE",
"456 100 LINE",
"406 101 LINE SMOOTH",
"338 102 OFFCURVE",
"281 189 OFFCURVE",
"231 243 CURVE SMOOTH",
"154 327 OFFCURVE",
"76 442 OFFCURVE",
"76 459 CURVE SMOOTH",
"76 480 OFFCURVE",
"188 560 OFFCURVE",
"378 700 CURVE SMOOTH",
"420 731 OFFCURVE",
"456 795 OFFCURVE",
"456 810 CURVE SMOOTH",
"456 822 OFFCURVE",
"451 830 OFFCURVE",
"439 830 CURVE SMOOTH",
"424 830 OFFCURVE",
"301 722 OFFCURVE",
"63 551 CURVE SMOOTH",
"39 534 OFFCURVE",
"-17 442 OFFCURVE",
"-17 420 CURVE SMOOTH",
"-17 407 OFFCURVE",
"10 348 OFFCURVE",
"25 327 CURVE SMOOTH",
"39 308 OFFCURVE",
"47 346 OFFCURVE",
"51 341 CURVE SMOOTH",
"98 283 OFFCURVE",
"160 212 OFFCURVE",
"160 170 CURVE SMOOTH",
"160 119 OFFCURVE",
"131 100 OFFCURVE",
"87 100 CURVE SMOOTH",
"0 100 LINE",
"-21 50 LINE",
"0 0 LINE"
);
}
);
width = 456;
},
{
associatedMasterId = "98B9451C-6456-42E9-9BE3-FFE7D6D9360C";
layerId = "DE73B9C1-E327-44A2-9490-EEB73D01B07E";
name = "Aug 26 20, 07:18";
paths = (
{
closed = 1;
nodes = (
"0 0 LINE",
"79 0 OFFCURVE",
"127 8 OFFCURVE",
"206 8 CURVE SMOOTH",
"274 8 OFFCURVE",
"508 -8 OFFCURVE",
"576 -8 CURVE SMOOTH",
"624 -8 OFFCURVE",
"722 102 OFFCURVE",
"722 183 CURVE SMOOTH",
"722 240 OFFCURVE",
"610 300 OFFCURVE",
"528 300 CURVE SMOOTH",
"392 300 OFFCURVE",
"232 271 OFFCURVE",
"166 271 CURVE SMOOTH",
"139 271 OFFCURVE",
"128 284 OFFCURVE",
"128 298 CURVE SMOOTH",
"128 336 OFFCURVE",
"264 412 OFFCURVE",
"327 412 CURVE SMOOTH",
"349 412 OFFCURVE",
"367 392 OFFCURVE",
"384 392 CURVE SMOOTH",
"403 392 OFFCURVE",
"452 432 OFFCURVE",
"452 449 CURVE SMOOTH",
"452 471 OFFCURVE",
"373 512 OFFCURVE",
"339 512 CURVE SMOOTH",
"272 512 OFFCURVE",
"69 327 OFFCURVE",
"58 308 CURVE SMOOTH",
"47 288 OFFCURVE",
"37 264 OFFCURVE",
"37 231 CURVE SMOOTH",
"37 213 OFFCURVE",
"65 177 OFFCURVE",
"97 177 CURVE SMOOTH",
"242 177 OFFCURVE",
"374 204 OFFCURVE",
"482 204 CURVE SMOOTH",
"616 204 OFFCURVE",
"638 150 OFFCURVE",
"638 112 CURVE SMOOTH",
"638 103 OFFCURVE",
"619 97 OFFCURVE",
"604 97 CURVE SMOOTH",
"518 97 OFFCURVE",
"253 107 OFFCURVE",
"158 107 CURVE SMOOTH",
"73 107 OFFCURVE",
"79 99 OFFCURVE",
"0 100 CURVE"
);
},
{
closed = 1;
nodes = (
"676 165 OFFCURVE",
"658 142 OFFCURVE",
"658 94 CURVE SMOOTH",
"658 24 OFFCURVE",
"687 1 OFFCURVE",
"742 0 CURVE",
"742 100 LINE",
"722 100 OFFCURVE",
"701 125 OFFCURVE",
"701 147 CURVE SMOOTH",
"701 156 OFFCURVE",
"701 165 OFFCURVE",
"693 165 CURVE SMOOTH"
);
}
);
width = 742;
}
);
},
{
color = 5;
glyphname = "kaf-ar.init";
layers = (
{
layerId = "98B9451C-6456-42E9-9BE3-FFE7D6D9360C";
paths = (
{
closed = 1;
nodes = (
"-20 50 LINE",
"0 0 LINE",
"486 0 LINE SMOOTH",
"546 0 OFFCURVE",
"594 -8 OFFCURVE",
"646 -8 CURVE SMOOTH",
"694 -8 OFFCURVE",
"792 102 OFFCURVE",
"792 183 CURVE SMOOTH",
"792 240 OFFCURVE",
"680 300 OFFCURVE",
"598 300 CURVE SMOOTH",
"462 300 OFFCURVE",
"282 271 OFFCURVE",
"216 271 CURVE SMOOTH",
"189 271 OFFCURVE",
"178 284 OFFCURVE",
"178 298 CURVE SMOOTH",
"178 336 OFFCURVE",
"331 412 OFFCURVE",
"394 412 CURVE SMOOTH",
"416 412 OFFCURVE",
"434 392 OFFCURVE",
"451 392 CURVE SMOOTH",
"470 392 OFFCURVE",
"519 432 OFFCURVE",
"519 449 CURVE SMOOTH",
"519 471 OFFCURVE",
"440 512 OFFCURVE",
"406 512 CURVE SMOOTH",
"339 512 OFFCURVE",
"181 374 OFFCURVE",
"125 325 CURVE SMOOTH",
"91 295 OFFCURVE",
"87 264 OFFCURVE",
"87 231 CURVE SMOOTH",
"87 213 OFFCURVE",
"115 177 OFFCURVE",
"147 177 CURVE SMOOTH",
"292 177 OFFCURVE",
"444 204 OFFCURVE",
"552 204 CURVE SMOOTH",
"686 204 OFFCURVE",
"708 150 OFFCURVE",
"708 112 CURVE SMOOTH",
"708 103 OFFCURVE",
"701 87 OFFCURVE",
"684 87 CURVE SMOOTH",
"604 87 OFFCURVE",
"552 100 OFFCURVE",
"438 100 CURVE SMOOTH",
"0 100 LINE"
);
}
);
width = 792;
},
{
associatedMasterId = "98B9451C-6456-42E9-9BE3-FFE7D6D9360C";
layerId = "1CDFC5F2-A875-4D7D-8363-5B0B9AD9EA9B";
name = "Oct 5 20, 22:33";
paths = (
{
closed = 1;
nodes = (
"-20 50 LINE",
"0 0 LINE",
"129 0 OFFCURVE",
"357 8 OFFCURVE",
"436 8 CURVE SMOOTH",
"504 8 OFFCURVE",
"578 -8 OFFCURVE",
"646 -8 CURVE SMOOTH",
"694 -8 OFFCURVE",
"792 102 OFFCURVE",
"792 183 CURVE SMOOTH",
"792 240 OFFCURVE",
"680 300 OFFCURVE",
"598 300 CURVE SMOOTH",
"462 300 OFFCURVE",
"282 271 OFFCURVE",
"216 271 CURVE SMOOTH",
"189 271 OFFCURVE",
"178 284 OFFCURVE",
"178 298 CURVE SMOOTH",
"178 336 OFFCURVE",
"331 412 OFFCURVE",
"394 412 CURVE SMOOTH",
"416 412 OFFCURVE",
"434 392 OFFCURVE",
"451 392 CURVE SMOOTH",
"470 392 OFFCURVE",
"519 432 OFFCURVE",
"519 449 CURVE SMOOTH",
"519 471 OFFCURVE",
"440 512 OFFCURVE",
"406 512 CURVE SMOOTH",
"339 512 OFFCURVE",
"119 327 OFFCURVE",
"108 308 CURVE SMOOTH",
"97 288 OFFCURVE",
"87 264 OFFCURVE",
"87 231 CURVE SMOOTH",
"87 213 OFFCURVE",
"115 177 OFFCURVE",
"147 177 CURVE SMOOTH",
"292 177 OFFCURVE",
"444 204 OFFCURVE",
"552 204 CURVE SMOOTH",
"686 204 OFFCURVE",
"708 150 OFFCURVE",
"708 112 CURVE SMOOTH",
"708 103 OFFCURVE",
"699 97 OFFCURVE",
"684 97 CURVE SMOOTH",
"598 97 OFFCURVE",
"483 107 OFFCURVE",
"388 107 CURVE SMOOTH",
"303 107 OFFCURVE",
"129 99 OFFCURVE",
"0 100 CURVE"
);
}
);
visible = 1;
width = 792;
}
);
unicode = FEDB;
},
{
color = 5;
glyphname = "lam-ar";
layers = (
{
layerId = "98B9451C-6456-42E9-9BE3-FFE7D6D9360C";
paths = (
{
closed = 1;
nodes = (
"447 669 CURVE SMOOTH",
"447 683 OFFCURVE",
"440 700 OFFCURVE",
"433 700 CURVE SMOOTH",
"415 700 OFFCURVE",
"357 600 OFFCURVE",
"357 578 CURVE SMOOTH",
"357 520 OFFCURVE",
"435 93 OFFCURVE",
"435 -33 CURVE SMOOTH",
"435 -124 OFFCURVE",
"290 -148 OFFCURVE",
"197 -148 CURVE SMOOTH",
"97 -148 OFFCURVE",
"52 -63 OFFCURVE",
"52 36 CURVE SMOOTH",
"52 108 OFFCURVE",
"71 129 OFFCURVE",
"71 147 CURVE SMOOTH",
"71 156 OFFCURVE",
"63 165 OFFCURVE",
"55 165 CURVE SMOOTH",
"39 165 OFFCURVE",
"0 74 OFFCURVE",
"0 -29 CURVE SMOOTH",
"0 -118 OFFCURVE",
"28 -255 OFFCURVE",
"220 -256 CURVE SMOOTH",
"412 -257 OFFCURVE",
"498 -83 OFFCURVE",
"498 26 CURVE SMOOTH",
"498 83 OFFCURVE",
"443 562 OFFCURVE"
);
}
);
width = 518;
}
);
unicode = 0644;
},
{
color = 5;
glyphname = "lam-ar.fina";
layers = (
{
layerId = "98B9451C-6456-42E9-9BE3-FFE7D6D9360C";
paths = (
{
closed = 1;
nodes = (
"625 100 OFFCURVE",
"577 111 OFFCURVE",
"564 140 CURVE SMOOTH",
"520 241 OFFCURVE",
"497 510 OFFCURVE",
"497 669 CURVE SMOOTH",
"497 683 OFFCURVE",
"490 700 OFFCURVE",
"483 700 CURVE SMOOTH",
"465 700 OFFCURVE",
"407 600 OFFCURVE",
"407 578 CURVE SMOOTH",
"407 520 OFFCURVE",
"445 93 OFFCURVE",
"445 -33 CURVE SMOOTH",
"445 -124 OFFCURVE",
"290 -148 OFFCURVE",
"197 -148 CURVE SMOOTH",
"97 -148 OFFCURVE",
"52 -63 OFFCURVE",
"52 36 CURVE SMOOTH",
"52 108 OFFCURVE",
"71 129 OFFCURVE",
"71 147 CURVE SMOOTH",
"71 156 OFFCURVE",
"63 165 OFFCURVE",
"55 165 CURVE SMOOTH",
"39 165 OFFCURVE",
"0 74 OFFCURVE",
"0 -29 CURVE SMOOTH",
"0 -118 OFFCURVE",
"28 -255 OFFCURVE",
"220 -256 CURVE SMOOTH",
"412 -257 OFFCURVE",
"483 -108 OFFCURVE",
"491 -33 CURVE SMOOTH",
"499 38 OFFCURVE",
"481 204 OFFCURVE",
"490 204 CURVE SMOOTH",
"496 204 OFFCURVE",
"497 112 OFFCURVE",
"544 51 CURVE SMOOTH",
"567 22 OFFCURVE",
"609 0 OFFCURVE",
"653 0 CURVE",
"652 100 LINE"
);
}
);
width = 653;
}
);
unicode = FEDE;
},
{
color = 5;
glyphname = "lam-ar.medi";
layers = (
{
layerId = "98B9451C-6456-42E9-9BE3-FFE7D6D9360C";
paths = (
{
closed = 1;
nodes = (
"206 100 OFFCURVE",
"175 440 OFFCURVE",
"175 669 CURVE SMOOTH",
"175 690 OFFCURVE",
"173 700 OFFCURVE",
"160 700 CURVE SMOOTH",
"142 700 OFFCURVE",
"98 604 OFFCURVE",
"98 578 CURVE SMOOTH",
"98 520 OFFCURVE",
"122 302 OFFCURVE",
"122 166 CURVE SMOOTH",
"122 125 OFFCURVE",
"43 100 OFFCURVE",
"0 100 CURVE",
"-20 50 LINE",
"0 0 LINE",
"76 -1 OFFCURVE",
"101 24 OFFCURVE",
"128 76 CURVE SMOOTH",
"152 126 OFFCURVE",
"161 204 OFFCURVE",
"167 204 CURVE SMOOTH",
"176 204 OFFCURVE",
"215 0 OFFCURVE",
"330 0 CURVE",
"350 50 LINE",
"330 100 LINE"
);
}
);
width = 330;
}
);
unicode = FEE0;
},
{
color = 5;
glyphname = "lam-ar.init";
layers = (
{
layerId = "98B9451C-6456-42E9-9BE3-FFE7D6D9360C";
paths = (
{
closed = 1;
nodes = (
"94 0 OFFCURVE",
"158 27 OFFCURVE",
"158 100 CURVE SMOOTH",
"158 182 OFFCURVE",
"112 500 OFFCURVE",
"112 526 CURVE SMOOTH",
"112 545 OFFCURVE",
"138 567 OFFCURVE",
"138 589 CURVE SMOOTH",
"138 608 OFFCURVE",
"117 620 OFFCURVE",
"103 639 CURVE SMOOTH",
"83 666 OFFCURVE",
"79 699 OFFCURVE",
"60 700 CURVE SMOOTH",
"38 701 OFFCURVE",
"25 648 OFFCURVE",
"25 627 CURVE SMOOTH",
"25 580 OFFCURVE",
"91 266 OFFCURVE",
"91 134 CURVE SMOOTH",
"91 111 OFFCURVE",
"49 100 OFFCURVE",
"0 100 CURVE",
"-20 50 LINE",
"0 0 LINE"
);
}
);
width = 178;
},
{
associatedMasterId = "98B9451C-6456-42E9-9BE3-FFE7D6D9360C";
layerId = "BF7D73E3-95BE-488E-978D-DE1C8AD862EE";
name = "Sep 7 20, 20:19";
paths = (
{
closed = 1;
nodes = (
"97 -16 OFFCURVE",
"119 119 OFFCURVE",
"119 160 CURVE SMOOTH",
"119 300 OFFCURVE",
"106 574 OFFCURVE",
"74 686 CURVE SMOOTH",
"71 697 OFFCURVE",
"65 700 OFFCURVE",
"59 700 CURVE SMOOTH",
"44 700 OFFCURVE",
"7 627 OFFCURVE",
"7 604 CURVE SMOOTH",
"7 546 OFFCURVE",
"65 315 OFFCURVE",
"65 0 CURVE SMOOTH",
"65 -12 OFFCURVE",
"69 -16 OFFCURVE",
"79 -16 CURVE SMOOTH"
);
}
);
width = 160;
},
{
associatedMasterId = "98B9451C-6456-42E9-9BE3-FFE7D6D9360C";
layerId = "66981DC5-A30A-4BD5-B21D-CBBAF2D30719";
name = "Sep 7 20, 20:19";
paths = (
{
closed = 1;
nodes = (
"83 0 OFFCURVE",
"129 100 OFFCURVE",
"129 222 CURVE SMOOTH",
"129 256 OFFCURVE",
"96 526 OFFCURVE",
"96 542 CURVE SMOOTH",
"96 556 OFFCURVE",
"114 584 OFFCURVE",
"114 599 CURVE SMOOTH",
"114 609 OFFCURVE",
"93 623 OFFCURVE",
"77 645 CURVE SMOOTH",
"60 667 OFFCURVE",
"56 700 OFFCURVE",
"40 700 CURVE SMOOTH",
"23 700 OFFCURVE",
"-8 652 OFFCURVE",
"-8 630 CURVE SMOOTH",
"-8 600 OFFCURVE",
"8 587 OFFCURVE",
"13 556 CURVE SMOOTH",
"37 420 OFFCURVE",
"61 283 OFFCURVE",
"61 115 CURVE SMOOTH",
"61 102 OFFCURVE",
"52 100 OFFCURVE",
"45 100 CURVE SMOOTH",
"0 100 LINE",
"0 0 LINE"
);
}
);
width = 160;
},
{
associatedMasterId = "98B9451C-6456-42E9-9BE3-FFE7D6D9360C";
layerId = "E2FD8C2E-3D45-40C9-99FC-9F67F55A22EF";
name = "Oct 1 20, 17:28";
paths = (
{
closed = 1;
nodes = (
"86 0 OFFCURVE",
"121 73 OFFCURVE",
"121 169 CURVE SMOOTH",
"121 265 OFFCURVE",
"93 502 OFFCURVE",
"93 527 CURVE SMOOTH",
"93 547 OFFCURVE",
"108 571 OFFCURVE",
"108 595 CURVE SMOOTH",
"108 622 OFFCURVE",
"49 700 OFFCURVE",
"30 700 CURVE SMOOTH",
"16 700 OFFCURVE",
"-10 657 OFFCURVE",
"-10 637 CURVE SMOOTH",
"-10 597 OFFCURVE",
"61 402 OFFCURVE",
"61 134 CURVE SMOOTH",
"61 113 OFFCURVE",
"49 100 OFFCURVE",
"0 100 CURVE",
"-20 50 LINE",
"0 0 LINE"
);
}
);
visible = 1;
width = 160;
}
);
unicode = FEDF;
},
{
color = 5;
glyphname = "meem-ar";
layers = (
{
layerId = "98B9451C-6456-42E9-9BE3-FFE7D6D9360C";
paths = (
{
closed = 1;
nodes = (
"150 251 OFFCURVE",
"361 130 OFFCURVE",
"361 80 CURVE SMOOTH",
"361 55 OFFCURVE",
"332 0 OFFCURVE",
"313 0 CURVE SMOOTH",
"285 0 OFFCURVE",
"236 11 OFFCURVE",
"201 11 CURVE SMOOTH",
"98 11 OFFCURVE",
"69 -19 OFFCURVE",
"69 -63 CURVE SMOOTH",
"69 -104 OFFCURVE",
"120 -251 OFFCURVE",
"120 -300 CURVE SMOOTH",
"120 -351 OFFCURVE",
"64 -450 OFFCURVE",
"32 -450 CURVE SMOOTH",
"8 -450 OFFCURVE",
"0 -436 OFFCURVE",
"0 -418 CURVE SMOOTH",
"0 -383 OFFCURVE",
"33 -329 OFFCURVE",
"33 -254 CURVE SMOOTH",
"33 -209 OFFCURVE",
"0 -52 OFFCURVE",
"0 0 CURVE SMOOTH",
"0 90 OFFCURVE",
"194 75 OFFCURVE",
"194 97 CURVE SMOOTH",
"194 112 OFFCURVE",
"86 155 OFFCURVE",
"72 155 CURVE SMOOTH",
"54 155 OFFCURVE",
"32 125 OFFCURVE",
"20 125 CURVE SMOOTH",
"9 125 OFFCURVE",
"3 133 OFFCURVE",
"3 147 CURVE SMOOTH",
"3 166 OFFCURVE",
"63 251 OFFCURVE",
"119 251 CURVE SMOOTH"
);
}
);
width = 361;
},
{
associatedMasterId = "98B9451C-6456-42E9-9BE3-FFE7D6D9360C";
layerId = "E6E2F31A-FA53-4F40-8311-DC2DA36BCC62";
name = "Oct 4 20, 17:05";
paths = (
{
closed = 1;
nodes = (
"393 50 LINE",
"373 100 LINE",
"220 100 OFFCURVE",
"194 267 OFFCURVE",
"146 267 CURVE SMOOTH",
"117 267 OFFCURVE",
"-18 192 OFFCURVE",
"-18 100 CURVE SMOOTH",
"-18 46 OFFCURVE",
"38 -118 OFFCURVE",
"38 -227 CURVE SMOOTH",
"38 -293 OFFCURVE",
"3 -373 OFFCURVE",
"3 -412 CURVE SMOOTH",
"3 -435 OFFCURVE",
"15 -450 OFFCURVE",
"30 -450 CURVE SMOOTH",
"75 -450 OFFCURVE",
"132 -343 OFFCURVE",
"132 -286 CURVE SMOOTH",
"132 -163 OFFCURVE",
"30 0 OFFCURVE",
"66 0 CURVE SMOOTH",
"80 0 OFFCURVE",
"125 -30 OFFCURVE",
"155 -30 CURVE SMOOTH",
"203 -30 OFFCURVE",
"195 44 OFFCURVE",
"210 44 CURVE SMOOTH",
"222 44 OFFCURVE",
"287 0 OFFCURVE",
"373 0 CURVE"
);
},
{
closed = 1;
nodes = (
"111 73 OFFCURVE",
"41 119 OFFCURVE",
"41 139 CURVE SMOOTH",
"41 154 OFFCURVE",
"77 185 OFFCURVE",
"89 185 CURVE SMOOTH",
"112 185 OFFCURVE",
"155 107 OFFCURVE",
"155 88 CURVE SMOOTH",
"155 79 OFFCURVE",
"153 73 OFFCURVE",
"141 73 CURVE SMOOTH"
);
}
);
visible = 1;
width = 361;
}
);
unicode = 0645;
},
{
color = 5;
glyphname = "meem-ar.fina";
layers = (
{
layerId = "98B9451C-6456-42E9-9BE3-FFE7D6D9360C";
paths = (
{
closed = 1;
nodes = (
"483 50 LINE",
"463 100 LINE",
"310 100 OFFCURVE",
"284 267 OFFCURVE",
"236 267 CURVE SMOOTH",
"207 267 OFFCURVE",
"72 192 OFFCURVE",
"72 100 CURVE SMOOTH",
"72 46 OFFCURVE",
"128 -118 OFFCURVE",
"128 -227 CURVE SMOOTH",
"128 -293 OFFCURVE",
"93 -373 OFFCURVE",
"93 -412 CURVE SMOOTH",
"93 -435 OFFCURVE",
"105 -450 OFFCURVE",
"120 -450 CURVE SMOOTH",
"165 -450 OFFCURVE",
"222 -343 OFFCURVE",
"222 -286 CURVE SMOOTH",
"222 -163 OFFCURVE",
"120 0 OFFCURVE",
"156 0 CURVE SMOOTH",
"170 0 OFFCURVE",
"215 -30 OFFCURVE",
"245 -30 CURVE SMOOTH",
"293 -30 OFFCURVE",
"285 44 OFFCURVE",
"300 44 CURVE SMOOTH",
"312 44 OFFCURVE",
"377 0 OFFCURVE",
"463 0 CURVE"
);
},
{
closed = 1;
nodes = (
"201 73 OFFCURVE",
"131 119 OFFCURVE",
"131 139 CURVE SMOOTH",
"131 154 OFFCURVE",
"167 185 OFFCURVE",
"179 185 CURVE SMOOTH",
"202 185 OFFCURVE",
"245 107 OFFCURVE",
"245 88 CURVE SMOOTH",
"245 79 OFFCURVE",
"243 73 OFFCURVE",
"231 73 CURVE SMOOTH"
);
}
);
width = 463;
},
{
associatedMasterId = "98B9451C-6456-42E9-9BE3-FFE7D6D9360C";
layerId = "BADA4DBF-801C-40E8-B12F-75DA343F720B";
name = "Oct 2 20, 13:34";
paths = (
{
closed = 1;
nodes = (
"463 100 LINE",
"281 100 OFFCURVE",
"264 266 OFFCURVE",
"217 266 CURVE SMOOTH",
"182 266 OFFCURVE",
"40 206 OFFCURVE",
"40 129 CURVE SMOOTH",
"40 -25 OFFCURVE",
"80 -51 OFFCURVE",
"83 -166 CURVE SMOOTH",
"84 -219 OFFCURVE",
"59 -305 OFFCURVE",
"59 -360 CURVE SMOOTH",
"59 -385 OFFCURVE",
"55 -418 OFFCURVE",
"83 -418 CURVE SMOOTH",
"100 -418 OFFCURVE",
"162 -330 OFFCURVE",
"162 -275 CURVE SMOOTH",
"162 -187 OFFCURVE",
"71 26 OFFCURVE",
"103 26 CURVE SMOOTH",
"149 26 OFFCURVE",
"192 -49 OFFCURVE",
"247 -48 CURVE SMOOTH",
"302 -47 OFFCURVE",
"300 46 OFFCURVE",
"338 44 CURVE",
"379 30 OFFCURVE",
"386 -3 OFFCURVE",
"463 0 CURVE"
);
},
{
closed = 1;
nodes = (
"241 163 OFFCURVE",
"275 73 OFFCURVE",
"255 73 CURVE SMOOTH",
"219 73 OFFCURVE",
"162 110 OFFCURVE",
"162 128 CURVE SMOOTH",
"162 149 OFFCURVE",
"199 163 OFFCURVE",
"217 163 CURVE SMOOTH"
);
}
);
visible = 1;
width = 463;
}
);
unicode = FEE2;
},
{
color = 5;
glyphname = "meem-ar.medi";
layers = (
{
layerId = "98B9451C-6456-42E9-9BE3-FFE7D6D9360C";
paths = (
{
closed = 1;
nodes = (
"484 50 LINE",
"464 100 LINE",
"310 100 OFFCURVE",
"316 251 OFFCURVE",
"222 251 CURVE SMOOTH",
"161 251 OFFCURVE",
"141 169 OFFCURVE",
"128 146 CURVE SMOOTH",
"109 115 OFFCURVE",
"90 100 OFFCURVE",
"0 100 CURVE",
"-20 50 LINE",
"0 0 LINE",
"55 0 OFFCURVE",
"95 43 OFFCURVE",
"114 43 CURVE SMOOTH",
"139 43 OFFCURVE",
"163 -51 OFFCURVE",
"234 -48 CURVE SMOOTH",
"300 -46 OFFCURVE",
"304 65 OFFCURVE",
"322 65 CURVE SMOOTH",
"337 65 OFFCURVE",
"387 -3 OFFCURVE",
"464 0 CURVE"
);
},
{
closed = 1;
nodes = (
"206 59 OFFCURVE",
"167 94 OFFCURVE",
"167 118 CURVE SMOOTH",
"167 132 OFFCURVE",
"186 163 OFFCURVE",
"203 163 CURVE SMOOTH",
"225 163 OFFCURVE",
"271 121 OFFCURVE",
"271 100 CURVE SMOOTH",
"271 90 OFFCURVE",
"257 59 OFFCURVE",
"233 59 CURVE SMOOTH"
);
}
);
width = 464;
}
);
unicode = FEE4;
},
{
color = 5;
glyphname = "meem-ar.init";
layers = (
{
layerId = "98B9451C-6456-42E9-9BE3-FFE7D6D9360C";
paths = (
{
closed = 1;
nodes = (
"86 0 OFFCURVE",
"139 100 OFFCURVE",
"159 100 CURVE SMOOTH",
"172 100 OFFCURVE",
"208 0 OFFCURVE",
"320 0 CURVE SMOOTH",
"385 0 OFFCURVE",
"412 61 OFFCURVE",
"412 155 CURVE SMOOTH",
"412 248 OFFCURVE",
"315 325 OFFCURVE",
"289 325 CURVE SMOOTH",
"222 325 OFFCURVE",
"125 100 OFFCURVE",
"0 100 CURVE",
"-20 50 LINE",
"0 0 LINE"
);
},
{
closed = 1;
nodes = (
"295 100 OFFCURVE",
"179 127 OFFCURVE",
"179 143 CURVE SMOOTH",
"179 158 OFFCURVE",
"247 226 OFFCURVE",
"268 226 CURVE SMOOTH",
"289 226 OFFCURVE",
"377 139 OFFCURVE",
"377 118 CURVE SMOOTH",
"377 106 OFFCURVE",
"356 100 OFFCURVE",
"343 100 CURVE SMOOTH"
);
}
);
width = 462;
},
{
associatedMasterId = "98B9451C-6456-42E9-9BE3-FFE7D6D9360C";
layerId = "5DCFA9E9-62A8-41D3-8A14-3AD4DC0196FF";
name = "Sep 24 20, 07:26";
paths = (
{
closed = 1;
nodes = (
"133 0 OFFCURVE",
"181 100 OFFCURVE",
"208 100 CURVE SMOOTH",
"265 100 OFFCURVE",
"331 53 OFFCURVE",
"394 53 CURVE SMOOTH",
"448 53 OFFCURVE",
"462 106 OFFCURVE",
"462 155 CURVE SMOOTH",
"462 243 OFFCURVE",
"392 358 OFFCURVE",
"329 358 CURVE SMOOTH",
"266 358 OFFCURVE",
"245 232 OFFCURVE",
"196 232 CURVE SMOOTH",
"153 232 OFFCURVE",
"175 100 OFFCURVE",
"0 100 CURVE",
"0 0 LINE"
);
},
{
closed = 1;
nodes = (
"303 192 OFFCURVE",
"251 204 OFFCURVE",
"251 220 CURVE SMOOTH",
"251 240 OFFCURVE",
"279 257 OFFCURVE",
"291 257 CURVE SMOOTH",
"305 257 OFFCURVE",
"342 220 OFFCURVE",
"342 209 CURVE SMOOTH",
"342 197 OFFCURVE",
"339 192 OFFCURVE",
"321 192 CURVE SMOOTH"
);
}
);
visible = 1;
width = 462;
}
);
unicode = FEE3;
},
{
color = 5;
glyphname = "noon-ar.fina";
layers = (
{
components = (
{
name = "noonghunna-ar.fina";
},
{
name = "dotabove-ar";
transform = "{1, 0, 0, 1, 178, -371}";
}
);
layerId = "98B9451C-6456-42E9-9BE3-FFE7D6D9360C";
width = 573;
},
{
associatedMasterId = "98B9451C-6456-42E9-9BE3-FFE7D6D9360C";
layerId = "92FA4CB3-DA40-45FF-81EC-2E082FE4B31E";
name = "Sep 23 20, 22:50";
paths = (
{
closed = 1;
nodes = (
"153 -300 OFFCURVE",
"96 -203 OFFCURVE",
"96 -88 CURVE SMOOTH",
"96 6 OFFCURVE",
"136 100 OFFCURVE",
"158 100 CURVE SMOOTH",
"168 100 OFFCURVE",
"173 87 OFFCURVE",
"173 76 CURVE SMOOTH",
"173 58 OFFCURVE",
"157 9 OFFCURVE",
"157 -37 CURVE SMOOTH",
"157 -101 OFFCURVE",
"216 -192 OFFCURVE",
"313 -192 CURVE SMOOTH",
"473 -192 OFFCURVE",
"553 -87 OFFCURVE",
"553 -30 CURVE SMOOTH",
"553 0 OFFCURVE",
"477 72 OFFCURVE",
"477 109 CURVE SMOOTH",
"477 133 OFFCURVE",
"507 211 OFFCURVE",
"529 211 CURVE SMOOTH",
"554 211 OFFCURVE",
"610 68 OFFCURVE",
"610 0 CURVE SMOOTH",
"610 -139 OFFCURVE",
"507 -300 OFFCURVE",
"331 -300 CURVE SMOOTH"
);
}
);
visible = 1;
width = 656;
}
);
unicode = FEE6;
},
{
color = 5;
glyphname = "noonghunna-ar";
layers = (
{
layerId = "98B9451C-6456-42E9-9BE3-FFE7D6D9360C";
paths = (
{
closed = 1;
nodes = (
"57 -300 OFFCURVE",
"0 -203 OFFCURVE",
"0 -88 CURVE SMOOTH",
"0 6 OFFCURVE",
"40 100 OFFCURVE",
"62 100 CURVE SMOOTH",
"72 100 OFFCURVE",
"77 87 OFFCURVE",
"77 76 CURVE SMOOTH",
"77 58 OFFCURVE",
"61 9 OFFCURVE",
"61 -37 CURVE SMOOTH",
"61 -101 OFFCURVE",
"120 -192 OFFCURVE",
"217 -192 CURVE SMOOTH",
"377 -192 OFFCURVE",
"457 -87 OFFCURVE",
"457 -30 CURVE SMOOTH",
"457 0 OFFCURVE",
"381 72 OFFCURVE",
"381 109 CURVE SMOOTH",
"381 133 OFFCURVE",
"411 211 OFFCURVE",
"433 211 CURVE SMOOTH",
"458 211 OFFCURVE",
"514 68 OFFCURVE",
"514 0 CURVE SMOOTH",
"514 -139 OFFCURVE",
"411 -300 OFFCURVE",
"235 -300 CURVE SMOOTH"
);
}
);
width = 514;
},
{
associatedMasterId = "98B9451C-6456-42E9-9BE3-FFE7D6D9360C";
layerId = "46B45A6D-7AF5-4196-B01A-EBD5EFEFE25E";
name = "Jul 19 20, 17:11";
paths = (
{
closed = 1;
nodes = (
"87 -350 OFFCURVE",
"30 -219 OFFCURVE",
"30 -100 CURVE SMOOTH",
"30 38 OFFCURVE",
"99 178 OFFCURVE",
"113 178 CURVE SMOOTH",
"125 178 OFFCURVE",
"130 168 OFFCURVE",
"130 158 CURVE SMOOTH",
"130 148 OFFCURVE",
"98 90 OFFCURVE",
"98 -10 CURVE SMOOTH",
"98 -104 OFFCURVE",
"137 -230 OFFCURVE",
"286 -230 CURVE SMOOTH",
"596 -230 OFFCURVE",
"640 -111 OFFCURVE",
"640 -42 CURVE SMOOTH",
"640 6 OFFCURVE",
"518 168 OFFCURVE",
"518 214 CURVE SMOOTH",
"518 251 OFFCURVE",
"563 331 OFFCURVE",
"590 331 CURVE SMOOTH",
"611 331 OFFCURVE",
"684 161 OFFCURVE",
"698 140 CURVE SMOOTH",
"719 107 OFFCURVE",
"742 100 OFFCURVE",
"816 100 CURVE",
"816 0 LINE",
"750 0 OFFCURVE",
"736 -12 OFFCURVE",
"724 -42 CURVE SMOOTH",
"664 -188 OFFCURVE",
"532 -350 OFFCURVE",
"302 -350 CURVE SMOOTH"
);
}
);
width = 746;
},
{
associatedMasterId = "98B9451C-6456-42E9-9BE3-FFE7D6D9360C";
layerId = "D939A21F-4A69-4058-AA1D-C5E404E1BB67";
name = "Sep 16 20, 00:54";
paths = (
{
closed = 1;
nodes = (
"138 -321 OFFCURVE",
"90 -183 OFFCURVE",
"90 -84 CURVE SMOOTH",
"90 55 OFFCURVE",
"147 145 OFFCURVE",
"159 145 CURVE SMOOTH",
"169 145 OFFCURVE",
"173 137 OFFCURVE",
"173 129 CURVE SMOOTH",
"173 121 OFFCURVE",
"147 73 OFFCURVE",
"147 -10 CURVE SMOOTH",
"147 -88 OFFCURVE",
"179 -192 OFFCURVE",
"302 -192 CURVE SMOOTH",
"558 -192 OFFCURVE",
"595 -69 OFFCURVE",
"595 -36 CURVE SMOOTH",
"595 3 OFFCURVE",
"494 137 OFFCURVE",
"494 175 CURVE SMOOTH",
"494 206 OFFCURVE",
"531 272 OFFCURVE",
"553 272 CURVE SMOOTH",
"595 272 OFFCURVE",
"666 35 OFFCURVE",
"666 -2 CURVE SMOOTH",
"666 -74 OFFCURVE",
"555 -321 OFFCURVE",
"315 -321 CURVE SMOOTH"
);
}
);
width = 686;
}
);
unicode = 06BA;
},
{
color = 5;
glyphname = "noonghunna-ar.fina";
layers = (
{
layerId = "98B9451C-6456-42E9-9BE3-FFE7D6D9360C";
paths = (
{
closed = 1;
nodes = (
"71 -300 OFFCURVE",
"10 -203 OFFCURVE",
"10 -88 CURVE SMOOTH",
"10 8 OFFCURVE",
"53 100 OFFCURVE",
"77 100 CURVE SMOOTH",
"86 100 OFFCURVE",
"92 91 OFFCURVE",
"92 76 CURVE SMOOTH",
"92 58 OFFCURVE",
"75 20 OFFCURVE",
"75 -38 CURVE SMOOTH",
"75 -103 OFFCURVE",
"134 -192 OFFCURVE",
"234 -192 CURVE SMOOTH",
"385 -192 OFFCURVE",
"471 -89 OFFCURVE",
"471 -32 CURVE SMOOTH",
"471 0 OFFCURVE",
"394 74 OFFCURVE",
"394 108 CURVE SMOOTH",
"394 132 OFFCURVE",
"425 211 OFFCURVE",
"448 211 CURVE SMOOTH",
"495 211 OFFCURVE",
"475 100 OFFCURVE",
"573 100 CURVE",
"573 0 LINE",
"547 0 LINE",
"536 0 OFFCURVE",
"529 -4 OFFCURVE",
"528 -15 CURVE SMOOTH",
"517 -146 OFFCURVE",
"425 -300 OFFCURVE",
"252 -300 CURVE SMOOTH"
);
}
);
width = 573;
},
{
associatedMasterId = "98B9451C-6456-42E9-9BE3-FFE7D6D9360C";
layerId = "6AA31461-3F12-4A1A-9267-A1A92B59994C";
name = "Sep 23 20, 22:51";
paths = (
{
closed = 1;
nodes = (
"154 -300 OFFCURVE",
"97 -203 OFFCURVE",
"97 -88 CURVE SMOOTH",
"97 6 OFFCURVE",
"137 100 OFFCURVE",
"159 100 CURVE SMOOTH",
"169 100 OFFCURVE",
"174 87 OFFCURVE",
"174 76 CURVE SMOOTH",
"174 58 OFFCURVE",
"158 9 OFFCURVE",
"158 -37 CURVE SMOOTH",
"158 -101 OFFCURVE",
"217 -192 OFFCURVE",
"314 -192 CURVE SMOOTH",
"474 -192 OFFCURVE",
"554 -87 OFFCURVE",
"554 -30 CURVE SMOOTH",
"554 0 OFFCURVE",
"478 72 OFFCURVE",
"478 109 CURVE SMOOTH",
"478 133 OFFCURVE",
"508 211 OFFCURVE",
"530 211 CURVE SMOOTH",
"555 211 OFFCURVE",
"611 68 OFFCURVE",
"611 0 CURVE SMOOTH",
"611 -139 OFFCURVE",
"508 -300 OFFCURVE",
"332 -300 CURVE SMOOTH"
);
}
);
visible = 1;
width = 656;
}
);
unicode = FB9F;
},
{
color = 5;
glyphname = "heh-ar";
layers = (
{
anchors = (
{
name = bottom;
position = "{190, -17}";
},
{
name = top;
position = "{208, 482}";
}
);
layerId = "98B9451C-6456-42E9-9BE3-FFE7D6D9360C";
paths = (
{
closed = 1;
nodes = (
"85 0 OFFCURVE",
"40 47 OFFCURVE",
"40 131 CURVE SMOOTH",
"40 216 OFFCURVE",
"139 304 OFFCURVE",
"139 326 CURVE SMOOTH",
"139 334 OFFCURVE",
"132 341 OFFCURVE",
"132 351 CURVE SMOOTH",
"132 369 OFFCURVE",
"154 420 OFFCURVE",
"173 420 CURVE SMOOTH",
"220 420 OFFCURVE",
"371 241 OFFCURVE",
"371 131 CURVE SMOOTH",
"371 30 OFFCURVE",
"303 0 OFFCURVE",
"155 0 CURVE SMOOTH"
);
},
{
closed = 1;
nodes = (
"247 100 OFFCURVE",
"278 119 OFFCURVE",
"278 147 CURVE SMOOTH",
"278 177 OFFCURVE",
"198 277 OFFCURVE",
"176 277 CURVE SMOOTH",
"149 277 OFFCURVE",
"95 182 OFFCURVE",
"95 147 CURVE SMOOTH",
"95 117 OFFCURVE",
"106 100 OFFCURVE",
"169 100 CURVE"
);
}
);
width = 395;
},
{
anchors = (
{
name = bottom;
position = "{200, -17}";
},
{
name = top;
position = "{218, 482}";
}
);
associatedMasterId = "98B9451C-6456-42E9-9BE3-FFE7D6D9360C";
layerId = "F75D1D90-7626-45C2-B290-9068D02F0B14";
name = "Sep 24 20, 07:43";
paths = (
{
closed = 1;
nodes = (
"52 0 OFFCURVE",
"30 70 OFFCURVE",
"30 131 CURVE SMOOTH",
"30 243 OFFCURVE",
"135 340 OFFCURVE",
"135 362 CURVE SMOOTH",
"135 377 OFFCURVE",
"125 387 OFFCURVE",
"125 400 CURVE SMOOTH",
"125 418 OFFCURVE",
"176 462 OFFCURVE",
"199 462 CURVE SMOOTH",
"234 462 OFFCURVE",
"384 275 OFFCURVE",
"384 198 CURVE SMOOTH",
"384 56 OFFCURVE",
"305 0 OFFCURVE",
"134 0 CURVE SMOOTH"
);
},
{
closed = 1;
nodes = (
"307 183 OFFCURVE",
"206 317 OFFCURVE",
"169 317 CURVE SMOOTH",
"146 317 OFFCURVE",
"98 232 OFFCURVE",
"98 188 CURVE SMOOTH",
"98 131 OFFCURVE",
"144 100 OFFCURVE",
"179 100 CURVE SMOOTH",
"251 100 OFFCURVE",
"307 125 OFFCURVE",
"307 153 CURVE SMOOTH"
);
}
);
width = 431;
}
);
unicode = 0647;
},
{
color = 5;
glyphname = "heh-ar.fina";
layers = (
{
anchors = (
{
name = bottom;
position = "{177, -35}";
},
{
name = top;
position = "{326, 390}";
}
);
layerId = "98B9451C-6456-42E9-9BE3-FFE7D6D9360C";
paths = (
{
closed = 1;
nodes = (
"297 100 OFFCURVE",
"320 109 OFFCURVE",
"325 140 CURVE SMOOTH",
"327 152 OFFCURVE",
"333 198 OFFCURVE",
"335 211 CURVE SMOOTH",
"337 222 OFFCURVE",
"330 227 OFFCURVE",
"321 227 CURVE SMOOTH",
"288 227 OFFCURVE",
"137 139 OFFCURVE",
"137 118 CURVE SMOOTH",
"137 104 OFFCURVE",
"143 100 OFFCURVE",
"157 100 CURVE SMOOTH"
);
},
{
closed = 1;
nodes = (
"354 0 OFFCURVE",
"350 69 OFFCURVE",
"328 69 CURVE SMOOTH",
"306 69 OFFCURVE",
"187 0 OFFCURVE",
"93 0 CURVE SMOOTH",
"60 0 OFFCURVE",
"10 32 OFFCURVE",
"10 70 CURVE SMOOTH",
"10 155 OFFCURVE",
"263 245 OFFCURVE",
"325 280 CURVE SMOOTH",
"334 285 OFFCURVE",
"345 288 OFFCURVE",
"348 299 CURVE SMOOTH",
"350 310 OFFCURVE",
"352 327 OFFCURVE",
"360 341 CURVE SMOOTH",
"366 352 OFFCURVE",
"409 390 OFFCURVE",
"423 390 CURVE SMOOTH",
"431 390 OFFCURVE",
"436 386 OFFCURVE",
"436 368 CURVE SMOOTH",
"436 336 OFFCURVE",
"410 254 OFFCURVE",
"410 167 CURVE SMOOTH",
"410 100 OFFCURVE",
"453 100 OFFCURVE",
"471 100 CURVE",
"491 50 LINE",
"471 0 LINE"
);
}
);
width = 471;
},
{
anchors = (
{
name = bottom;
position = "{137, -35}";
},
{
name = top;
position = "{286, 390}";
}
);
associatedMasterId = "98B9451C-6456-42E9-9BE3-FFE7D6D9360C";
layerId = "E90A40D9-32EA-4CFD-8847-DB6F327C01E6";
name = "Oct 4 20, 16:04";
paths = (
{
closed = 1;
nodes = (
"398 100 OFFCURVE",
"370 107 OFFCURVE",
"370 167 CURVE SMOOTH",
"370 297 OFFCURVE",
"376 344 OFFCURVE",
"376 380 CURVE SMOOTH",
"376 394 OFFCURVE",
"368 402 OFFCURVE",
"357 402 CURVE SMOOTH",
"350 402 OFFCURVE",
"312 363 OFFCURVE",
"306 352 CURVE SMOOTH",
"298 338 OFFCURVE",
"293 322 OFFCURVE",
"293 300 CURVE SMOOTH",
"293 246 OFFCURVE",
"0 183 OFFCURVE",
"0 70 CURVE SMOOTH",
"0 40 OFFCURVE",
"41 -10 OFFCURVE",
"83 -10 CURVE SMOOTH",
"229 -10 OFFCURVE",
"267 69 OFFCURVE",
"308 69 CURVE SMOOTH",
"331 69 OFFCURVE",
"340 1 OFFCURVE",
"431 0 CURVE",
"431 100 LINE"
);
},
{
closed = 1;
nodes = (
"142 90 OFFCURVE",
"127 104 OFFCURVE",
"127 118 CURVE SMOOTH",
"127 140 OFFCURVE",
"238 208 OFFCURVE",
"259 208 CURVE SMOOTH",
"278 208 OFFCURVE",
"286 200 OFFCURVE",
"286 167 CURVE SMOOTH",
"286 119 OFFCURVE",
"269 90 OFFCURVE",
"182 90 CURVE"
);
}
);
width = 431;
}
);
unicode = FEEA;
},
{
color = 5;
glyphname = "heh-ar.medi";
layers = (
{
layerId = "98B9451C-6456-42E9-9BE3-FFE7D6D9360C";
paths = (
{
closed = 1;
nodes = (
"-20 50 LINE",
"0 0 LINE",
"25 0 LINE SMOOTH",
"32 0 OFFCURVE",
"36 -4 OFFCURVE",
"36 -8 CURVE SMOOTH",
"45 -176 OFFCURVE",
"124 -273 OFFCURVE",
"208 -273 CURVE SMOOTH",
"311 -273 OFFCURVE",
"336 -152 OFFCURVE",
"336 -86 CURVE SMOOTH",
"336 -55 OFFCURVE",
"302 -21 OFFCURVE",
"302 -14 CURVE SMOOTH",
"302 -1 OFFCURVE",
"321 0 OFFCURVE",
"372 0 CURVE",
"392 50 LINE",
"372 100 LINE",
"213 100 LINE SMOOTH",
"207 100 OFFCURVE",
"203 103 OFFCURVE",
"203 108 CURVE SMOOTH",
"203 115 OFFCURVE",
"258 167 OFFCURVE",
"258 203 CURVE SMOOTH",
"258 290 OFFCURVE",
"178 401 OFFCURVE",
"141 401 CURVE SMOOTH",
"97 401 OFFCURVE",
"48 290 OFFCURVE",
"37 111 CURVE SMOOTH",
"37 104 OFFCURVE",
"32 100 OFFCURVE",
"25 100 CURVE SMOOTH",
"0 100 LINE"
);
},
{
closed = 1;
nodes = (
"78 99 OFFCURVE",
"73 102 OFFCURVE",
"73 110 CURVE SMOOTH",
"73 201 OFFCURVE",
"100 277 OFFCURVE",
"115 277 CURVE SMOOTH",
"131 277 OFFCURVE",
"186 204 OFFCURVE",
"186 180 CURVE SMOOTH",
"186 152 OFFCURVE",
"110 99 OFFCURVE",
"87 99 CURVE SMOOTH"
);
},
{
closed = 1;
nodes = (
"147 -166 OFFCURVE",
"85 -32 OFFCURVE",
"85 -15 CURVE SMOOTH",
"85 -12 OFFCURVE",
"86 -10 OFFCURVE",
"90 -10 CURVE SMOOTH",
"241 -10 OFFCURVE",
"305 -111 OFFCURVE",
"305 -128 CURVE SMOOTH",
"305 -144 OFFCURVE",
"275 -166 OFFCURVE",
"238 -166 CURVE SMOOTH"
);
}
);
width = 372;
},
{
associatedMasterId = "98B9451C-6456-42E9-9BE3-FFE7D6D9360C";
layerId = "19716840-797A-4F73-B0FE-DA14944C1CBF";
name = "Sep 7 20, 22:09";
paths = (
{
closed = 1;
nodes = (
"170 258 OFFCURVE",
"223 312 OFFCURVE",
"223 328 CURVE SMOOTH",
"223 345 OFFCURVE",
"170 398 OFFCURVE",
"153 398 CURVE SMOOTH",
"136 398 OFFCURVE",
"83 345 OFFCURVE",
"83 328 CURVE SMOOTH",
"83 312 OFFCURVE",
"136 258 OFFCURVE",
"153 258 CURVE SMOOTH"
);
},
{
closed = 1;
nodes = (
"233 -289 OFFCURVE",
"286 -235 OFFCURVE",
"286 -219 CURVE SMOOTH",
"286 -202 OFFCURVE",
"233 -149 OFFCURVE",
"216 -149 CURVE SMOOTH",
"199 -149 OFFCURVE",
"146 -202 OFFCURVE",
"146 -219 CURVE SMOOTH",
"146 -235 OFFCURVE",
"199 -289 OFFCURVE",
"216 -289 CURVE SMOOTH"
);
}
);
visible = 1;
width = 352;
},
{
associatedMasterId = "98B9451C-6456-42E9-9BE3-FFE7D6D9360C";
layerId = "206B9CE8-730D-45C8-B4AF-6827D37D929D";
name = "Oct 1 20, 16:49";
paths = (
{
closed = 1;
nodes = (
"-20 50 LINE",
"0 0 LINE",
"25 0 LINE SMOOTH",
"32 0 OFFCURVE",
"36 -4 OFFCURVE",
"36 -8 CURVE SMOOTH",
"45 -176 OFFCURVE",
"124 -273 OFFCURVE",
"208 -273 CURVE SMOOTH",
"311 -273 OFFCURVE",
"336 -152 OFFCURVE",
"336 -86 CURVE SMOOTH",
"336 -55 OFFCURVE",
"302 -21 OFFCURVE",
"302 -14 CURVE SMOOTH",
"302 -1 OFFCURVE",
"321 0 OFFCURVE",
"372 0 CURVE",
"392 50 LINE",
"372 100 LINE",
"213 100 LINE SMOOTH",
"207 100 OFFCURVE",
"203 103 OFFCURVE",
"203 108 CURVE SMOOTH",
"203 115 OFFCURVE",
"258 167 OFFCURVE",
"258 203 CURVE SMOOTH",
"258 290 OFFCURVE",
"178 401 OFFCURVE",
"141 401 CURVE SMOOTH",
"97 401 OFFCURVE",
"48 290 OFFCURVE",
"37 111 CURVE SMOOTH",
"37 104 OFFCURVE",
"32 100 OFFCURVE",
"25 100 CURVE SMOOTH",
"0 100 LINE"
);
},
{
closed = 1;
nodes = (
"78 99 OFFCURVE",
"73 102 OFFCURVE",
"73 110 CURVE SMOOTH",
"73 201 OFFCURVE",
"100 277 OFFCURVE",
"115 277 CURVE SMOOTH",
"131 277 OFFCURVE",
"186 204 OFFCURVE",
"186 180 CURVE SMOOTH",
"186 152 OFFCURVE",
"110 99 OFFCURVE",
"87 99 CURVE SMOOTH"
);
},
{
closed = 1;
nodes = (
"147 -166 OFFCURVE",
"85 -32 OFFCURVE",
"85 -15 CURVE SMOOTH",
"85 -12 OFFCURVE",
"86 -10 OFFCURVE",
"90 -10 CURVE SMOOTH",
"241 -10 OFFCURVE",
"305 -111 OFFCURVE",
"305 -128 CURVE SMOOTH",
"305 -144 OFFCURVE",
"275 -166 OFFCURVE",
"238 -166 CURVE SMOOTH"
);
}
);
visible = 1;
width = 372;
}
);
unicode = FEEC;
},
{
color = 5;
glyphname = "heh-ar.init";
layers = (
{
layerId = "98B9451C-6456-42E9-9BE3-FFE7D6D9360C";
paths = (
{
closed = 1;
nodes = (
"318 420 OFFCURVE",
"430 243 OFFCURVE",
"430 170 CURVE SMOOTH",
"430 143 OFFCURVE",
"369 37 OFFCURVE",
"333 37 CURVE SMOOTH",
"263 37 OFFCURVE",
"203 81 OFFCURVE",
"191 81 CURVE SMOOTH",
"175 81 OFFCURVE",
"57 0 OFFCURVE",
"0 0 CURVE",
"-20 50 LINE",
"0 100 LINE",
"36 100 OFFCURVE",
"119 106 OFFCURVE",
"119 120 CURVE SMOOTH",
"119 130 OFFCURVE",
"67 167 OFFCURVE",
"67 189 CURVE SMOOTH",
"67 258 OFFCURVE",
"206 347 OFFCURVE",
"206 356 CURVE SMOOTH",
"206 363 OFFCURVE",
"195 369 OFFCURVE",
"195 380 CURVE SMOOTH",
"195 392 OFFCURVE",
"239 420 OFFCURVE",
"277 420 CURVE SMOOTH"
);
},
{
closed = 1;
nodes = (
"171 284 OFFCURVE",
"138 256 OFFCURVE",
"138 227 CURVE SMOOTH",
"138 218 OFFCURVE",
"183 181 OFFCURVE",
"198 181 CURVE SMOOTH",
"223 181 OFFCURVE",
"244 186 OFFCURVE",
"245 205 CURVE SMOOTH",
"246 233 OFFCURVE",
"215 284 OFFCURVE",
"199 284 CURVE SMOOTH"
);
},
{
closed = 1;
nodes = (
"354 130 OFFCURVE",
"365 135 OFFCURVE",
"365 148 CURVE SMOOTH",
"365 164 OFFCURVE",
"336 240 OFFCURVE",
"314 240 CURVE SMOOTH",
"305 240 OFFCURVE",
"254 172 OFFCURVE",
"254 163 CURVE SMOOTH",
"254 150 OFFCURVE",
"304 128 OFFCURVE",
"348 130 CURVE SMOOTH"
);
}
);
width = 430;
}
);
unicode = FEEB;
},
{
color = 5;
glyphname = "waw-ar";
layers = (
{
layerId = "98B9451C-6456-42E9-9BE3-FFE7D6D9360C";
paths = (
{
closed = 1;
nodes = (
"131 -254 OFFCURVE",
"0 -169 OFFCURVE",
"0 -136 CURVE SMOOTH",
"0 -130 OFFCURVE",
"2 -125 OFFCURVE",
"13 -125 CURVE SMOOTH",
"33 -125 OFFCURVE",
"121 -153 OFFCURVE",
"179 -153 CURVE SMOOTH",
"235 -153 OFFCURVE",
"359 1 OFFCURVE",
"359 45 CURVE SMOOTH",
"359 53 OFFCURVE",
"357 57 OFFCURVE",
"354 57 CURVE SMOOTH",
"349 57 OFFCURVE",
"296 0 OFFCURVE",
"239 0 CURVE SMOOTH",
"191 0 OFFCURVE",
"149 34 OFFCURVE",
"149 100 CURVE SMOOTH",
"149 191 OFFCURVE",
"235 282 OFFCURVE",
"276 282 CURVE SMOOTH",
"335 282 OFFCURVE",
"401 145 OFFCURVE",
"401 58 CURVE SMOOTH",
"401 -19 OFFCURVE",
"319 -254 OFFCURVE",
"190 -254 CURVE SMOOTH"
);
},
{
closed = 1;
nodes = (
"235 185 OFFCURVE",
"186 145 OFFCURVE",
"186 129 CURVE SMOOTH",
"186 101 OFFCURVE",
"247 100 OFFCURVE",
"262 100 CURVE SMOOTH",
"294 100 OFFCURVE",
"335 107 OFFCURVE",
"335 117 CURVE SMOOTH",
"335 132 OFFCURVE",
"286 185 OFFCURVE",
"265 185 CURVE SMOOTH"
);
}
);
width = 401;
},
{
associatedMasterId = "98B9451C-6456-42E9-9BE3-FFE7D6D9360C";
layerId = "FD6A6885-A06B-488F-B8D4-8FB48D5EEE97";
name = "Sep 14 20, 22:39";
paths = (
{
closed = 1;
nodes = (
"-12 -294 OFFCURVE",
"-160 -212 OFFCURVE",
"-160 -176 CURVE SMOOTH",
"-160 -170 OFFCURVE",
"-158 -165 OFFCURVE",
"-147 -165 CURVE SMOOTH",
"-127 -165 OFFCURVE",
"-12 -193 OFFCURVE",
"46 -193 CURVE SMOOTH",
"102 -193 OFFCURVE",
"203 -3 OFFCURVE",
"203 41 CURVE SMOOTH",
"203 53 OFFCURVE",
"202 57 OFFCURVE",
"199 57 CURVE SMOOTH",
"194 57 OFFCURVE",
"140 0 OFFCURVE",
"83 0 CURVE SMOOTH",
"35 0 OFFCURVE",
"-7 34 OFFCURVE",
"-7 100 CURVE SMOOTH",
"-7 191 OFFCURVE",
"79 282 OFFCURVE",
"120 282 CURVE SMOOTH",
"179 282 OFFCURVE",
"245 145 OFFCURVE",
"245 58 CURVE SMOOTH",
"245 -19 OFFCURVE",
"186 -294 OFFCURVE",
"57 -294 CURVE SMOOTH"
);
},
{
closed = 1;
nodes = (
"79 185 OFFCURVE",
"30 145 OFFCURVE",
"30 129 CURVE SMOOTH",
"30 101 OFFCURVE",
"91 95 OFFCURVE",
"106 95 CURVE SMOOTH",
"138 95 OFFCURVE",
"179 107 OFFCURVE",
"179 117 CURVE SMOOTH",
"179 132 OFFCURVE",
"130 185 OFFCURVE",
"109 185 CURVE SMOOTH"
);
}
);
visible = 1;
width = 245;
}
);
unicode = 0648;
},
{
color = 5;
glyphname = "waw-ar.001";
layers = (
{
layerId = "98B9451C-6456-42E9-9BE3-FFE7D6D9360C";
paths = (
{
closed = 1;
nodes = (
"353 122 OFFCURVE",
"349 86 OFFCURVE",
"276 93 CURVE SMOOTH",
"203 100 OFFCURVE",
"148 156 OFFCURVE",
"141 203 CURVE SMOOTH",
"134 250 OFFCURVE",
"253 443 OFFCURVE",
"301 441 CURVE SMOOTH",
"349 439 OFFCURVE",
"472 182 OFFCURVE",
"467 141 CURVE SMOOTH",
"462 100 OFFCURVE",
"377 -344 OFFCURVE",
"201 -341 CURVE SMOOTH",
"25 -338 OFFCURVE",
"-207 -216 OFFCURVE",
"-205 -128 CURVE",
"-119 -25 LINE",
"-69 -60 LINE",
"-2 -116 OFFCURVE",
"15 -239 OFFCURVE",
"132 -229 CURVE SMOOTH",
"249 -219 OFFCURVE",
"348 7 OFFCURVE",
"359 38 CURVE SMOOTH",
"391 136 LINE"
);
},
{
closed = 1;
nodes = (
"314 216 OFFCURVE",
"336 237 OFFCURVE",
"336 264 CURVE SMOOTH",
"336 291 OFFCURVE",
"314 312 OFFCURVE",
"288 312 CURVE SMOOTH",
"261 312 OFFCURVE",
"239 291 OFFCURVE",
"239 264 CURVE SMOOTH",
"239 237 OFFCURVE",
"261 216 OFFCURVE",
"288 216 CURVE SMOOTH"
);
}
);
width = 600;
}
);
},
{
color = 5;
glyphname = "waw-ar.fina";
layers = (
{
layerId = "98B9451C-6456-42E9-9BE3-FFE7D6D9360C";
paths = (
{
closed = 1;
nodes = (
"127 -254 OFFCURVE",
"4 -167 OFFCURVE",
"4 -137 CURVE SMOOTH",
"4 -129 OFFCURVE",
"8 -125 OFFCURVE",
"16 -125 CURVE SMOOTH",
"41 -125 OFFCURVE",
"120 -153 OFFCURVE",
"185 -153 CURVE SMOOTH",
"232 -153 OFFCURVE",
"343 -24 OFFCURVE",
"343 -4 CURVE SMOOTH",
"343 -1 OFFCURVE",
"341 0 OFFCURVE",
"337 0 CURVE SMOOTH",
"181 0 OFFCURVE",
"152 33 OFFCURVE",
"152 101 CURVE SMOOTH",
"152 178 OFFCURVE",
"230 282 OFFCURVE",
"282 282 CURVE SMOOTH",
"327 282 OFFCURVE",
"383 188 OFFCURVE",
"400 105 CURVE SMOOTH",
"401 101 OFFCURVE",
"403 100 OFFCURVE",
"405 100 CURVE SMOOTH",
"477 100 LINE",
"477 0 LINE",
"404 0 LINE SMOOTH",
"399 0 OFFCURVE",
"396 -2 OFFCURVE",
"395 -6 CURVE SMOOTH",
"356 -151 OFFCURVE",
"275 -254 OFFCURVE",
"194 -254 CURVE SMOOTH"
);
},
{
closed = 1;
nodes = (
"337 100 LINE SMOOTH",
"342 100 OFFCURVE",
"343 102 OFFCURVE",
"343 105 CURVE SMOOTH",
"343 118 OFFCURVE",
"301 185 OFFCURVE",
"266 185 CURVE SMOOTH",
"232 185 OFFCURVE",
"189 140 OFFCURVE",
"189 124 CURVE SMOOTH",
"189 108 OFFCURVE",
"212 100 OFFCURVE",
"253 100 CURVE SMOOTH"
);
}
);
width = 477;
},
{
associatedMasterId = "98B9451C-6456-42E9-9BE3-FFE7D6D9360C";
layerId = "F221B964-6EC9-4C4F-9D28-901E2BD5D168";
name = "Sep 14 20, 23:38";
paths = (
{
closed = 1;
nodes = (
"135 -254 OFFCURVE",
"4 -169 OFFCURVE",
"4 -136 CURVE SMOOTH",
"4 -130 OFFCURVE",
"6 -125 OFFCURVE",
"17 -125 CURVE SMOOTH",
"37 -125 OFFCURVE",
"125 -153 OFFCURVE",
"183 -153 CURVE SMOOTH",
"239 -153 OFFCURVE",
"363 -3 OFFCURVE",
"363 41 CURVE SMOOTH",
"363 53 OFFCURVE",
"362 57 OFFCURVE",
"359 57 CURVE SMOOTH",
"354 57 OFFCURVE",
"300 0 OFFCURVE",
"243 0 CURVE SMOOTH",
"195 0 OFFCURVE",
"153 34 OFFCURVE",
"153 100 CURVE SMOOTH",
"153 191 OFFCURVE",
"239 282 OFFCURVE",
"280 282 CURVE SMOOTH",
"339 282 OFFCURVE",
"405 145 OFFCURVE",
"405 58 CURVE SMOOTH",
"405 -19 OFFCURVE",
"323 -254 OFFCURVE",
"194 -254 CURVE SMOOTH"
);
},
{
closed = 1;
nodes = (
"239 185 OFFCURVE",
"190 145 OFFCURVE",
"190 129 CURVE SMOOTH",
"190 101 OFFCURVE",
"251 100 OFFCURVE",
"266 100 CURVE SMOOTH",
"298 100 OFFCURVE",
"339 107 OFFCURVE",
"339 117 CURVE SMOOTH",
"339 132 OFFCURVE",
"290 185 OFFCURVE",
"269 185 CURVE SMOOTH"
);
}
);
visible = 1;
width = 477;
}
);
unicode = FEEE;
},
{
color = 5;
glyphname = "alefMaksura-ar";
layers = (
{
layerId = "98B9451C-6456-42E9-9BE3-FFE7D6D9360C";
paths = (
{
closed = 1;
nodes = (
"634 283 OFFCURVE",
"652 357 OFFCURVE",
"652 382 CURVE SMOOTH",
"652 403 OFFCURVE",
"638 420 OFFCURVE",
"605 420 CURVE SMOOTH",
"536 420 OFFCURVE",
"352 261 OFFCURVE",
"352 120 CURVE SMOOTH",
"352 32 OFFCURVE",
"584 30 OFFCURVE",
"584 0 CURVE SMOOTH",
"584 -49 OFFCURVE",
"400 -137 OFFCURVE",
"274 -137 CURVE SMOOTH",
"186 -137 OFFCURVE",
"93 -143 OFFCURVE",
"93 -35 CURVE SMOOTH",
"93 -5 OFFCURVE",
"107 52 OFFCURVE",
"107 77 CURVE SMOOTH",
"107 90 OFFCURVE",
"99 100 OFFCURVE",
"86 100 CURVE SMOOTH",
"70 100 OFFCURVE",
"30 4 OFFCURVE",
"30 -94 CURVE SMOOTH",
"30 -209 OFFCURVE",
"122 -254 OFFCURVE",
"239 -254 CURVE SMOOTH",
"427 -254 OFFCURVE",
"660 -81 OFFCURVE",
"660 55 CURVE SMOOTH",
"660 142 OFFCURVE",
"416 116 OFFCURVE",
"416 195 CURVE SMOOTH",
"416 229 OFFCURVE",
"518 312 OFFCURVE",
"555 312 CURVE SMOOTH",
"576 312 OFFCURVE",
"588 283 OFFCURVE",
"610 283 CURVE SMOOTH"
);
}
);
width = 690;
}
);
unicode = 0649;
},
{
color = 5;
glyphname = "alefMaksura-ar.fina";
layers = (
{
anchors = (
{
name = bottom;
position = "{267, -320}";
},
{
name = top;
position = "{236, 184}";
}
);
layerId = "98B9451C-6456-42E9-9BE3-FFE7D6D9360C";
paths = (
{
closed = 1;
nodes = (
"464 -254 OFFCURVE",
"539 -121 OFFCURVE",
"539 -52 CURVE SMOOTH",
"539 -32 OFFCURVE",
"529 -17 OFFCURVE",
"529 -5 CURVE SMOOTH",
"529 -2 OFFCURVE",
"531 0 OFFCURVE",
"535 0 CURVE SMOOTH",
"571 0 LINE",
"591 50 LINE",
"571 100 LINE",
"370 100 OFFCURVE",
"346 137 OFFCURVE",
"315 137 CURVE SMOOTH",
"298 137 OFFCURVE",
"272 102 OFFCURVE",
"272 71 CURVE SMOOTH",
"272 53 OFFCURVE",
"284 48 OFFCURVE",
"375 6 CURVE SMOOTH",
"448 -28 OFFCURVE",
"488 -54 OFFCURVE",
"488 -81 CURVE SMOOTH",
"488 -129 OFFCURVE",
"315 -154 OFFCURVE",
"241 -154 CURVE SMOOTH",
"95 -154 OFFCURVE",
"67 -124 OFFCURVE",
"67 -20 CURVE SMOOTH",
"67 16 OFFCURVE",
"77 44 OFFCURVE",
"77 59 CURVE SMOOTH",
"77 69 OFFCURVE",
"73 75 OFFCURVE",
"64 75 CURVE SMOOTH",
"49 75 OFFCURVE",
"20 -12 OFFCURVE",
"20 -81 CURVE SMOOTH",
"20 -181 OFFCURVE",
"87 -254 OFFCURVE",
"206 -254 CURVE SMOOTH"
);
}
);
width = 571;
},
{
anchors = (
{
name = bottom;
position = "{285, -303}";
},
{
name = top;
position = "{256, 184}";
}
);
associatedMasterId = "98B9451C-6456-42E9-9BE3-FFE7D6D9360C";
layerId = "8099EFB6-1E88-4667-855D-25E1B6C2A1DC";
name = "Sep 7 20, 13:08";
paths = (
{
closed = 1;
nodes = (
"424 -300 OFFCURVE",
"539 -120 OFFCURVE",
"539 -52 CURVE SMOOTH",
"539 18 OFFCURVE",
"373 -8 OFFCURVE",
"373 46 CURVE SMOOTH",
"373 81 OFFCURVE",
"445 131 OFFCURVE",
"475 131 CURVE SMOOTH",
"532 131 OFFCURVE",
"526 0 OFFCURVE",
"631 0 CURVE",
"631 100 LINE",
"582 100 OFFCURVE",
"537 227 OFFCURVE",
"504 227 CURVE SMOOTH",
"440 227 OFFCURVE",
"321 91 OFFCURVE",
"321 0 CURVE SMOOTH",
"321 -90 OFFCURVE",
"465 -68 OFFCURVE",
"465 -106 CURVE SMOOTH",
"465 -142 OFFCURVE",
"295 -200 OFFCURVE",
"221 -200 CURVE SMOOTH",
"75 -200 OFFCURVE",
"50 -89 OFFCURVE",
"50 -58 CURVE SMOOTH",
"50 20 OFFCURVE",
"80 72 OFFCURVE",
"80 83 CURVE SMOOTH",
"80 91 OFFCURVE",
"75 100 OFFCURVE",
"66 100 CURVE SMOOTH",
"55 100 OFFCURVE",
"0 0 OFFCURVE",
"0 -111 CURVE SMOOTH",
"0 -201 OFFCURVE",
"67 -300 OFFCURVE",
"186 -300 CURVE SMOOTH"
);
}
);
width = 631;
}
);
unicode = FEF0;
},
{
color = 5;
glyphname = "kashida-ar";
layers = (
{
layerId = "98B9451C-6456-42E9-9BE3-FFE7D6D9360C";
paths = (
{
closed = 1;
nodes = (
"160 0 LINE",
"160 100 LINE",
"-10 100 LINE",
"-10 0 LINE"
);
}
);
width = 150;
}
);
unicode = 0640;
},
{
color = 5;
glyphname = "lam_alef-ar";
layers = (
{
layerId = "98B9451C-6456-42E9-9BE3-FFE7D6D9360C";
paths = (
{
closed = 1;
nodes = (
"187 0 LINE SMOOTH",
"155 0 OFFCURVE",
"136 9 OFFCURVE",
"136 32 CURVE SMOOTH",
"136 84 OFFCURVE",
"142 96 OFFCURVE",
"182 112 CURVE SMOOTH",
"254 142 OFFCURVE",
"332 187 OFFCURVE",
"332 202 CURVE SMOOTH",
"332 241 OFFCURVE",
"122 577 OFFCURVE",
"97 577 CURVE SMOOTH",
"89 577 OFFCURVE",
"45 566 OFFCURVE",
"26 566 CURVE SMOOTH",
"11 566 OFFCURVE",
"0 578 OFFCURVE",
"0 595 CURVE SMOOTH",
"0 636 OFFCURVE",
"68 700 OFFCURVE",
"93 700 CURVE SMOOTH",
"109 700 OFFCURVE",
"118 692 OFFCURVE",
"156 640 CURVE SMOOTH",
"332 399 OFFCURVE",
"375 272 OFFCURVE",
"389 272 CURVE SMOOTH",
"396 272 OFFCURVE",
"420 325 OFFCURVE",
"420 421 CURVE SMOOTH",
"420 575 OFFCURVE",
"353 612 OFFCURVE",
"353 649 CURVE SMOOTH",
"353 670 OFFCURVE",
"373 700 OFFCURVE",
"396 700 CURVE SMOOTH",
"440 700 OFFCURVE",
"470 605 OFFCURVE",
"470 473 CURVE SMOOTH",
"470 284 OFFCURVE",
"415 228 OFFCURVE",
"415 211 CURVE SMOOTH",
"415 198 OFFCURVE",
"443 151 OFFCURVE",
"443 100 CURVE SMOOTH",
"443 28 OFFCURVE",
"400 0 OFFCURVE",
"357 0 CURVE"
);
},
{
closed = 1;
nodes = (
"357 100 OFFCURVE",
"364 103 OFFCURVE",
"364 113 CURVE SMOOTH",
"364 123 OFFCURVE",
"359 148 OFFCURVE",
"351 148 CURVE SMOOTH",
"346 148 OFFCURVE",
"333 136 OFFCURVE",
"325 131 CURVE SMOOTH",
"301 117 OFFCURVE",
"289 114 OFFCURVE",
"289 107 CURVE SMOOTH",
"289 102 OFFCURVE",
"299 100 OFFCURVE",
"341 100 CURVE SMOOTH"
);
}
);
width = 490;
},
{
associatedMasterId = "98B9451C-6456-42E9-9BE3-FFE7D6D9360C";
layerId = "45BBF8BF-7D19-427A-8A92-E96642A328DB";
name = "Oct 6 20, 13:12";
paths = (
{
closed = 1;
nodes = (
"377 283 OFFCURVE",
"352 194 OFFCURVE",
"125 109 CURVE",
"169 83 LINE",
"377 160 OFFCURVE",
"419 283 OFFCURVE",
"419 416 CURVE",
"377 416 LINE"
);
},
{
closed = 1;
nodes = (
"50 594 LINE",
"218 364 OFFCURVE",
"275 271 OFFCURVE",
"330 100 CURVE",
"404 100 LINE",
"329 325 OFFCURVE",
"257 421 OFFCURVE",
"119 603 CURVE"
);
},
{
closed = 1;
nodes = (
"360 620 OFFCURVE",
"378 638 OFFCURVE",
"378 660 CURVE SMOOTH",
"378 682 OFFCURVE",
"360 700 OFFCURVE",
"338 700 CURVE SMOOTH",
"316 700 OFFCURVE",
"298 682 OFFCURVE",
"298 660 CURVE SMOOTH",
"298 638 OFFCURVE",
"316 620 OFFCURVE",
"338 620 CURVE SMOOTH"
);
},
{
closed = 1;
nodes = (
"44 620 OFFCURVE",
"62 638 OFFCURVE",
"62 660 CURVE SMOOTH",
"62 682 OFFCURVE",
"44 700 OFFCURVE",
"22 700 CURVE SMOOTH",
"0 700 OFFCURVE",
"-18 682 OFFCURVE",
"-18 660 CURVE SMOOTH",
"-18 638 OFFCURVE",
"0 620 OFFCURVE",
"22 620 CURVE SMOOTH"
);
}
);
visible = 1;
width = 411;
},
{
associatedMasterId = "98B9451C-6456-42E9-9BE3-FFE7D6D9360C";
backgroundImage = {
crop = "{{0, 0}, {211, 200}}";
imagePath = "../../../../Desktop/Screen Shot 2020-10-06 at 12.40.34 PM.png";
locked = "1";
transform = "{6, 0, 0, 6, -257, -293}";
};
layerId = "6F4DA375-F1D1-4635-934D-862D775E8222";
name = "Oct 6 20, 14:06";
paths = (
{
closed = 1;
nodes = (
"167 0 LINE SMOOTH",
"146 0 OFFCURVE",
"136 9 OFFCURVE",
"136 22 CURVE SMOOTH",
"136 80 OFFCURVE",
"153 120 OFFCURVE",
"182 129 CURVE SMOOTH",
"211 138 OFFCURVE",
"319 188 OFFCURVE",
"319 212 CURVE SMOOTH",
"319 246 OFFCURVE",
"101 580 OFFCURVE",
"79 580 CURVE SMOOTH",
"63 580 OFFCURVE",
"55 566 OFFCURVE",
"36 566 CURVE SMOOTH",
"21 566 OFFCURVE",
"10 579 OFFCURVE",
"10 605 CURVE SMOOTH",
"10 637 OFFCURVE",
"79 700 OFFCURVE",
"101 700 CURVE SMOOTH",
"120 700 OFFCURVE",
"132 679 OFFCURVE",
"156 640 CURVE SMOOTH",
"342 346 OFFCURVE",
"367 252 OFFCURVE",
"379 252 CURVE SMOOTH",
"386 252 OFFCURVE",
"406 276 OFFCURVE",
"406 325 CURVE SMOOTH",
"406 605 LINE SMOOTH",
"406 623 OFFCURVE",
"378 629 OFFCURVE",
"378 663 CURVE SMOOTH",
"378 680 OFFCURVE",
"390 700 OFFCURVE",
"418 700 CURVE SMOOTH",
"452 700 OFFCURVE",
"461 672 OFFCURVE",
"461 653 CURVE SMOOTH",
"461 369 LINE SMOOTH",
"461 228 OFFCURVE",
"419 203 OFFCURVE",
"419 190 CURVE SMOOTH",
"419 167 OFFCURVE",
"447 142 OFFCURVE",
"447 100 CURVE SMOOTH",
"447 24 OFFCURVE",
"440 0 OFFCURVE",
"397 0 CURVE"
);
},
{
closed = 1;
nodes = (
"363 100 OFFCURVE",
"367 102 OFFCURVE",
"367 108 CURVE SMOOTH",
"367 117 OFFCURVE",
"356 147 OFFCURVE",
"348 147 CURVE SMOOTH",
"342 147 OFFCURVE",
"291 113 OFFCURVE",
"291 107 CURVE SMOOTH",
"291 100 OFFCURVE",
"302 100 OFFCURVE",
"333 100 CURVE SMOOTH"
);
}
);
width = 481;
},
{
associatedMasterId = "98B9451C-6456-42E9-9BE3-FFE7D6D9360C";
layerId = "101DBCFD-EA1E-443E-AC68-D403E0D6ADE4";
name = "Oct 6 20, 14:26";
paths = (
{
closed = 1;
nodes = (
"167 0 LINE SMOOTH",
"146 0 OFFCURVE",
"136 9 OFFCURVE",
"136 22 CURVE SMOOTH",
"136 80 OFFCURVE",
"153 100 OFFCURVE",
"182 112 CURVE SMOOTH",
"222 128 OFFCURVE",
"330 184 OFFCURVE",
"330 205 CURVE SMOOTH",
"330 242 OFFCURVE",
"109 587 OFFCURVE",
"87 587 CURVE SMOOTH",
"71 587 OFFCURVE",
"55 566 OFFCURVE",
"36 566 CURVE SMOOTH",
"21 566 OFFCURVE",
"10 579 OFFCURVE",
"10 605 CURVE SMOOTH",
"10 637 OFFCURVE",
"71 700 OFFCURVE",
"93 700 CURVE SMOOTH",
"112 700 OFFCURVE",
"129 679 OFFCURVE",
"156 640 CURVE SMOOTH",
"345 373 OFFCURVE",
"375 272 OFFCURVE",
"387 272 CURVE SMOOTH",
"400 272 OFFCURVE",
"420 295 OFFCURVE",
"420 421 CURVE SMOOTH",
"420 545 OFFCURVE",
"353 610 OFFCURVE",
"353 649 CURVE SMOOTH",
"353 668 OFFCURVE",
"375 700 OFFCURVE",
"396 700 CURVE SMOOTH",
"442 700 OFFCURVE",
"470 586 OFFCURVE",
"470 473 CURVE SMOOTH",
"470 265 OFFCURVE",
"409 228 OFFCURVE",
"409 211 CURVE SMOOTH",
"409 198 OFFCURVE",
"443 142 OFFCURVE",
"443 100 CURVE SMOOTH",
"443 24 OFFCURVE",
"400 0 OFFCURVE",
"357 0 CURVE"
);
},
{
closed = 1;
nodes = (
"357 100 OFFCURVE",
"364 102 OFFCURVE",
"364 113 CURVE SMOOTH",
"364 122 OFFCURVE",
"357 149 OFFCURVE",
"351 149 CURVE SMOOTH",
"345 149 OFFCURVE",
"335 140 OFFCURVE",
"324 132 CURVE SMOOTH",
"302 117 OFFCURVE",
"286 112 OFFCURVE",
"286 107 CURVE SMOOTH",
"286 100 OFFCURVE",
"291 100 OFFCURVE",
"341 100 CURVE SMOOTH"
);
}
);
width = 500;
}
);
unicode = FEFB;
},
{
color = 5;
glyphname = "lam_alef-ar.fina";
layers = (
{
layerId = "98B9451C-6456-42E9-9BE3-FFE7D6D9360C";
paths = (
{
closed = 1;
nodes = (
"455 100 OFFCURVE",
"419 440 OFFCURVE",
"419 669 CURVE SMOOTH",
"419 690 OFFCURVE",
"417 700 OFFCURVE",
"404 700 CURVE SMOOTH",
"386 700 OFFCURVE",
"337 604 OFFCURVE",
"337 578 CURVE SMOOTH",
"337 520 OFFCURVE",
"371 302 OFFCURVE",
"371 166 CURVE SMOOTH",
"371 20 OFFCURVE",
"62 68 OFFCURVE",
"62 37 CURVE SMOOTH",
"62 13 OFFCURVE",
"188 8 OFFCURVE",
"249 0 CURVE",
"325 -1 OFFCURVE",
"350 24 OFFCURVE",
"377 76 CURVE SMOOTH",
"401 126 OFFCURVE",
"410 204 OFFCURVE",
"416 204 CURVE SMOOTH",
"425 204 OFFCURVE",
"464 0 OFFCURVE",
"579 0 CURVE",
"599 50 LINE",
"579 100 LINE"
);
},
{
closed = 1;
nodes = (
"308 150 OFFCURVE",
"309 197 OFFCURVE",
"309 270 CURVE SMOOTH",
"309 462 OFFCURVE",
"152 700 OFFCURVE",
"102 700 CURVE SMOOTH",
"72 700 OFFCURVE",
"-1 640 OFFCURVE",
"-1 598 CURVE SMOOTH",
"-1 590 OFFCURVE",
"7 564 OFFCURVE",
"26 564 CURVE SMOOTH",
"43 564 OFFCURVE",
"67 575 OFFCURVE",
"92 575 CURVE SMOOTH",
"133 575 OFFCURVE",
"256 419 OFFCURVE",
"281 166 CURVE SMOOTH",
"282 154 OFFCURVE",
"284 150 OFFCURVE",
"294 150 CURVE SMOOTH"
);
}
);
width = 579;
},
{
associatedMasterId = "98B9451C-6456-42E9-9BE3-FFE7D6D9360C";
layerId = "3C52E95B-3EB9-491C-8519-15425410FE09";
name = "Oct 6 20, 14:49";
paths = (
{
closed = 1;
nodes = (
"187 0 LINE SMOOTH",
"155 0 OFFCURVE",
"136 9 OFFCURVE",
"136 32 CURVE SMOOTH",
"136 84 OFFCURVE",
"142 96 OFFCURVE",
"182 112 CURVE SMOOTH",
"254 142 OFFCURVE",
"332 187 OFFCURVE",
"332 202 CURVE SMOOTH",
"332 241 OFFCURVE",
"122 577 OFFCURVE",
"97 577 CURVE SMOOTH",
"89 577 OFFCURVE",
"45 566 OFFCURVE",
"26 566 CURVE SMOOTH",
"11 566 OFFCURVE",
"0 578 OFFCURVE",
"0 595 CURVE SMOOTH",
"0 636 OFFCURVE",
"68 700 OFFCURVE",
"93 700 CURVE SMOOTH",
"109 700 OFFCURVE",
"118 692 OFFCURVE",
"156 640 CURVE SMOOTH",
"332 399 OFFCURVE",
"375 272 OFFCURVE",
"389 272 CURVE SMOOTH",
"396 272 OFFCURVE",
"420 325 OFFCURVE",
"420 421 CURVE SMOOTH",
"420 575 OFFCURVE",
"353 612 OFFCURVE",
"353 649 CURVE SMOOTH",
"353 670 OFFCURVE",
"373 700 OFFCURVE",
"396 700 CURVE SMOOTH",
"440 700 OFFCURVE",
"470 605 OFFCURVE",
"470 473 CURVE SMOOTH",
"470 284 OFFCURVE",
"415 228 OFFCURVE",
"415 211 CURVE SMOOTH",
"415 198 OFFCURVE",
"443 151 OFFCURVE",
"443 100 CURVE SMOOTH",
"443 28 OFFCURVE",
"400 0 OFFCURVE",
"357 0 CURVE"
);
},
{
closed = 1;
nodes = (
"357 100 OFFCURVE",
"364 103 OFFCURVE",
"364 113 CURVE SMOOTH",
"364 123 OFFCURVE",
"359 148 OFFCURVE",
"351 148 CURVE SMOOTH",
"346 148 OFFCURVE",
"333 136 OFFCURVE",
"325 131 CURVE SMOOTH",
"301 117 OFFCURVE",
"289 114 OFFCURVE",
"289 107 CURVE SMOOTH",
"289 102 OFFCURVE",
"299 100 OFFCURVE",
"341 100 CURVE SMOOTH"
);
}
);
visible = 1;
width = 579;
}
);
leftMetricsKey = "alef-ar.fina";
rightMetricsKey = "lam-ar.medi";
unicode = FEFC;
},
{
color = 5;
glyphname = "lam_alefWasla-ar";
layers = (
{
layerId = "98B9451C-6456-42E9-9BE3-FFE7D6D9360C";
paths = (
{
closed = 1;
nodes = (
"361 447 LINE",
"294 326 LINE",
"342 200 LINE",
"390 58 LINE",
"376 -3 LINE",
"-60 3 LINE",
"8 123 LINE",
"164 276 LINE",
"38 436 LINE",
"-40 766 LINE",
"38 767 LINE",
"120 464 LINE",
"224 352 LINE",
"273 509 LINE",
"284 773 LINE",
"362 790 LINE"
);
},
{
closed = 1;
nodes = (
"87 77 LINE",
"298 75 LINE",
"233 203 LINE"
);
}
);
width = 420;
}
);
leftMetricsKey = "alefWasla-ar.fina";
rightMetricsKey = "lam-ar.init";
},
{
glyphname = "lam_lam-ar.init.liga";
layers = (
{
layerId = "98B9451C-6456-42E9-9BE3-FFE7D6D9360C";
paths = (
{
closed = 1;
nodes = (
"113 -1 OFFCURVE",
"134 121 OFFCURVE",
"167 121 CURVE SMOOTH",
"181 121 OFFCURVE",
"215 0 OFFCURVE",
"330 0 CURVE SMOOTH",
"424 0 OFFCURVE",
"458 27 OFFCURVE",
"458 100 CURVE SMOOTH",
"458 211 OFFCURVE",
"419 371 OFFCURVE",
"398 421 CURVE SMOOTH",
"386 449 OFFCURVE",
"379 472 OFFCURVE",
"360 473 CURVE SMOOTH",
"338 474 OFFCURVE",
"325 421 OFFCURVE",
"325 400 CURVE SMOOTH",
"325 353 OFFCURVE",
"391 266 OFFCURVE",
"391 134 CURVE SMOOTH",
"391 111 OFFCURVE",
"379 100 OFFCURVE",
"330 100 CURVE SMOOTH",
"206 100 OFFCURVE",
"175 213 OFFCURVE",
"175 442 CURVE SMOOTH",
"175 463 OFFCURVE",
"173 473 OFFCURVE",
"160 473 CURVE SMOOTH",
"142 473 OFFCURVE",
"98 377 OFFCURVE",
"98 351 CURVE SMOOTH",
"98 293 OFFCURVE",
"122 302 OFFCURVE",
"122 166 CURVE SMOOTH",
"122 125 OFFCURVE",
"43 100 OFFCURVE",
"0 100 CURVE",
"-20 50 LINE",
"0 0 LINE"
);
}
);
width = 478;
}
);
},
{
glyphname = "lam_lam_heh-ar.liga";
layers = (
{
layerId = "98B9451C-6456-42E9-9BE3-FFE7D6D9360C";
paths = (
{
closed = 1;
nodes = (
"153 100 OFFCURVE",
"147 104 OFFCURVE",
"147 118 CURVE SMOOTH",
"147 139 OFFCURVE",
"298 227 OFFCURVE",
"331 227 CURVE SMOOTH",
"340 227 OFFCURVE",
"347 222 OFFCURVE",
"345 211 CURVE SMOOTH",
"343 198 OFFCURVE",
"337 152 OFFCURVE",
"335 140 CURVE SMOOTH",
"330 109 OFFCURVE",
"307 100 OFFCURVE",
"167 100 CURVE SMOOTH"
);
},
{
closed = 1;
nodes = (
"506 527 OFFCURVE",
"483 561 OFFCURVE",
"483 591 CURVE SMOOTH",
"483 615 OFFCURVE",
"494 638 OFFCURVE",
"505 638 CURVE SMOOTH",
"512 638 OFFCURVE",
"515 632 OFFCURVE",
"515 621 CURVE SMOOTH",
"515 603 OFFCURVE",
"526 592 OFFCURVE",
"544 592 CURVE SMOOTH",
"587 592 OFFCURVE",
"599 647 OFFCURVE",
"618 647 CURVE SMOOTH",
"625 647 OFFCURVE",
"628 640 OFFCURVE",
"628 632 CURVE SMOOTH",
"628 617 OFFCURVE",
"639 601 OFFCURVE",
"661 601 CURVE SMOOTH",
"690 601 OFFCURVE",
"704 625 OFFCURVE",
"704 653 CURVE SMOOTH",
"704 668 OFFCURVE",
"706 687 OFFCURVE",
"718 687 CURVE SMOOTH",
"730 687 OFFCURVE",
"748 661 OFFCURVE",
"748 622 CURVE SMOOTH",
"748 569 OFFCURVE",
"711 534 OFFCURVE",
"668 534 CURVE SMOOTH",
"630 534 OFFCURVE",
"615 574 OFFCURVE",
"605 574 CURVE SMOOTH",
"594 574 OFFCURVE",
"577 527 OFFCURVE",
"538 527 CURVE SMOOTH"
);
},
{
closed = 1;
nodes = (
"630 684 OFFCURVE",
"642 714 OFFCURVE",
"642 739 CURVE SMOOTH",
"642 780 OFFCURVE",
"633 820 OFFCURVE",
"619 848 CURVE SMOOTH",
"615 855 OFFCURVE",
"609 865 OFFCURVE",
"604 865 CURVE SMOOTH",
"596 865 OFFCURVE",
"565 837 OFFCURVE",
"565 826 CURVE SMOOTH",
"565 810 OFFCURVE",
"604 776 OFFCURVE",
"604 700 CURVE SMOOTH",
"604 689 OFFCURVE",
"611 684 OFFCURVE",
"620 684 CURVE SMOOTH"
);
},
{
closed = 1;
nodes = (
"197 0 OFFCURVE",
"316 69 OFFCURVE",
"338 69 CURVE SMOOTH",
"360 69 OFFCURVE",
"365 1 OFFCURVE",
"451 0 CURVE SMOOTH",
"589 -2 OFFCURVE",
"604 121 OFFCURVE",
"615 121 CURVE SMOOTH",
"626 121 OFFCURVE",
"616 0 OFFCURVE",
"746 0 CURVE SMOOTH",
"825 0 OFFCURVE",
"909 1 OFFCURVE",
"909 100 CURVE SMOOTH",
"909 168 OFFCURVE",
"876 358 OFFCURVE",
"849 421 CURVE SMOOTH",
"843 436 OFFCURVE",
"827 473 OFFCURVE",
"811 473 CURVE SMOOTH",
"798 473 OFFCURVE",
"776 408 OFFCURVE",
"776 387 CURVE SMOOTH",
"776 343 OFFCURVE",
"842 201 OFFCURVE",
"842 134 CURVE SMOOTH",
"842 100 OFFCURVE",
"793 100 OFFCURVE",
"771 100 CURVE SMOOTH",
"644 99 OFFCURVE",
"651 295 OFFCURVE",
"651 421 CURVE SMOOTH",
"651 456 OFFCURVE",
"650 473 OFFCURVE",
"639 473 CURVE SMOOTH",
"626 473 OFFCURVE",
"576 405 OFFCURVE",
"576 374 CURVE SMOOTH",
"576 346 OFFCURVE",
"583 263 OFFCURVE",
"583 211 CURVE SMOOTH",
"583 98 OFFCURVE",
"533 100 OFFCURVE",
"481 100 CURVE SMOOTH",
"463 100 OFFCURVE",
"420 100 OFFCURVE",
"420 167 CURVE SMOOTH",
"420 254 OFFCURVE",
"446 366 OFFCURVE",
"446 398 CURVE SMOOTH",
"446 416 OFFCURVE",
"441 420 OFFCURVE",
"433 420 CURVE SMOOTH",
"419 420 OFFCURVE",
"376 352 OFFCURVE",
"370 341 CURVE SMOOTH",
"362 327 OFFCURVE",
"360 310 OFFCURVE",
"358 299 CURVE SMOOTH",
"355 288 OFFCURVE",
"344 285 OFFCURVE",
"335 280 CURVE SMOOTH",
"273 245 OFFCURVE",
"20 155 OFFCURVE",
"20 70 CURVE SMOOTH",
"20 32 OFFCURVE",
"70 0 OFFCURVE",
"103 0 CURVE SMOOTH"
);
}
);
width = 929;
}
);
},
{
glyphname = "allah-ar";
layers = (
{
components = (
{
alignment = -1;
name = "alef-ar";
transform = "{1, 0, 0, 1, 939, 0}";
},
{
name = "lam_lam_heh-ar.liga";
transform = "{1, 0, 0, 1, 20, 0}";
}
);
layerId = "98B9451C-6456-42E9-9BE3-FFE7D6D9360C";
width = 1121;
},
{
associatedMasterId = "98B9451C-6456-42E9-9BE3-FFE7D6D9360C";
components = (
{
alignment = -1;
name = "alef-ar";
transform = "{1, 0, 0, 1, 919, 0}";
}
);
layerId = "FA593068-CF46-4855-AF82-C87DC2D5CFFF";
name = "Oct 3 20, 23:30";
paths = (
{
closed = 1;
nodes = (
"135 100 OFFCURVE",
"127 107 OFFCURVE",
"127 118 CURVE SMOOTH",
"127 140 OFFCURVE",
"292 236 OFFCURVE",
"310 236 CURVE SMOOTH",
"320 236 OFFCURVE",
"326 232 OFFCURVE",
"324 220 CURVE SMOOTH",
"321 198 OFFCURVE",
"317 163 OFFCURVE",
"315 140 CURVE SMOOTH",
"312 107 OFFCURVE",
"234 100 OFFCURVE",
"147 100 CURVE"
);
},
{
closed = 1;
nodes = (
"481 540 OFFCURVE",
"463 568 OFFCURVE",
"463 591 CURVE SMOOTH",
"463 620 OFFCURVE",
"476 638 OFFCURVE",
"485 638 CURVE SMOOTH",
"492 638 OFFCURVE",
"495 633 OFFCURVE",
"495 621 CURVE SMOOTH",
"495 603 OFFCURVE",
"501 592 OFFCURVE",
"524 592 CURVE SMOOTH",
"566 592 OFFCURVE",
"579 647 OFFCURVE",
"598 647 CURVE SMOOTH",
"605 647 OFFCURVE",
"608 639 OFFCURVE",
"608 632 CURVE SMOOTH",
"608 616 OFFCURVE",
"620 601 OFFCURVE",
"641 601 CURVE SMOOTH",
"671 601 OFFCURVE",
"684 629 OFFCURVE",
"684 653 CURVE SMOOTH",
"684 672 OFFCURVE",
"688 687 OFFCURVE",
"698 687 CURVE SMOOTH",
"712 687 OFFCURVE",
"722 665 OFFCURVE",
"722 635 CURVE SMOOTH",
"722 583 OFFCURVE",
"683 545 OFFCURVE",
"642 545 CURVE SMOOTH",
"602 545 OFFCURVE",
"596 574 OFFCURVE",
"585 574 CURVE SMOOTH",
"575 574 OFFCURVE",
"556 540 OFFCURVE",
"518 540 CURVE SMOOTH"
);
},
{
closed = 1;
nodes = (
"610 684 OFFCURVE",
"613 722 OFFCURVE",
"613 739 CURVE SMOOTH",
"613 788 OFFCURVE",
"605 811 OFFCURVE",
"589 850 CURVE SMOOTH",
"586 857 OFFCURVE",
"582 861 OFFCURVE",
"576 861 CURVE SMOOTH",
"569 861 OFFCURVE",
"554 834 OFFCURVE",
"554 826 CURVE SMOOTH",
"554 807 OFFCURVE",
"584 802 OFFCURVE",
"584 700 CURVE SMOOTH",
"584 689 OFFCURVE",
"591 684 OFFCURVE",
"600 684 CURVE SMOOTH"
);
},
{
closed = 1;
nodes = (
"0 40 OFFCURVE",
"41 0 OFFCURVE",
"83 0 CURVE SMOOTH",
"206 0 OFFCURVE",
"297 69 OFFCURVE",
"318 69 CURVE SMOOTH",
"341 69 OFFCURVE",
"350 1 OFFCURVE",
"461 0 CURVE SMOOTH",
"574 -1 OFFCURVE",
"582 121 OFFCURVE",
"595 121 CURVE SMOOTH",
"604 121 OFFCURVE",
"611 0 OFFCURVE",
"726 0 CURVE SMOOTH",
"820 0 OFFCURVE",
"889 44 OFFCURVE",
"889 100 CURVE SMOOTH",
"889 211 OFFCURVE",
"850 371 OFFCURVE",
"829 421 CURVE SMOOTH",
"817 449 OFFCURVE",
"810 472 OFFCURVE",
"791 473 CURVE SMOOTH",
"774 474 OFFCURVE",
"756 417 OFFCURVE",
"756 399 CURVE SMOOTH",
"756 352 OFFCURVE",
"822 216 OFFCURVE",
"822 134 CURVE SMOOTH",
"822 111 OFFCURVE",
"800 100 OFFCURVE",
"751 100 CURVE SMOOTH",
"627 100 OFFCURVE",
"631 286 OFFCURVE",
"631 421 CURVE SMOOTH",
"631 462 OFFCURVE",
"626 473 OFFCURVE",
"613 473 CURVE SMOOTH",
"595 473 OFFCURVE",
"555 425 OFFCURVE",
"555 399 CURVE SMOOTH",
"555 341 OFFCURVE",
"563 311 OFFCURVE",
"563 211 CURVE SMOOTH",
"563 116 OFFCURVE",
"504 100 OFFCURVE",
"461 100 CURVE SMOOTH",
"428 100 OFFCURVE",
"400 107 OFFCURVE",
"400 167 CURVE SMOOTH",
"400 297 OFFCURVE",
"426 362 OFFCURVE",
"426 398 CURVE SMOOTH",
"426 412 OFFCURVE",
"418 420 OFFCURVE",
"407 420 CURVE SMOOTH",
"400 420 OFFCURVE",
"362 381 OFFCURVE",
"356 370 CURVE SMOOTH",
"348 356 OFFCURVE",
"342 316 OFFCURVE",
"338 299 CURVE SMOOTH",
"337 294 OFFCURVE",
"332 288 OFFCURVE",
"322 283 CURVE SMOOTH",
"243 247 OFFCURVE",
"0 143 OFFCURVE",
"0 70 CURVE SMOOTH"
);
}
);
width = 1101;
}
);
unicode = FDF2;
},
{
color = 5;
glyphname = "zero-ar";
layers = (
{
layerId = "98B9451C-6456-42E9-9BE3-FFE7D6D9360C";
paths = (
{
closed = 1;
nodes = (
"148 211 OFFCURVE",
"226 290 OFFCURVE",
"226 314 CURVE SMOOTH",
"226 339 OFFCURVE",
"148 420 OFFCURVE",
"123 420 CURVE SMOOTH",
"98 420 OFFCURVE",
"20 339 OFFCURVE",
"20 314 CURVE SMOOTH",
"20 290 OFFCURVE",
"98 211 OFFCURVE",
"123 211 CURVE SMOOTH"
);
}
);
width = 246;
}
);
unicode = 0660;
},
{
color = 5;
glyphname = "one-ar";
layers = (
{
layerId = "98B9451C-6456-42E9-9BE3-FFE7D6D9360C";
paths = (
{
closed = 1;
nodes = (
"202 0 OFFCURVE",
"210 100 OFFCURVE",
"210 148 CURVE SMOOTH",
"210 384 OFFCURVE",
"100 640 OFFCURVE",
"56 640 CURVE SMOOTH",
"31 640 OFFCURVE",
"20 569 OFFCURVE",
"20 534 CURVE SMOOTH",
"20 493 OFFCURVE",
"119 421 OFFCURVE",
"147 211 CURVE SMOOTH",
"160 115 OFFCURVE",
"165 56 OFFCURVE",
"165 16 CURVE SMOOTH",
"165 5 OFFCURVE",
"170 0 OFFCURVE",
"180 0 CURVE SMOOTH"
);
}
);
width = 230;
},
{
associatedMasterId = "98B9451C-6456-42E9-9BE3-FFE7D6D9360C";
layerId = "363F1FA6-54F2-4C19-B8D1-71FA997CF232";
name = "Oct 5 20, 20:42";
paths = (
{
closed = 1;
nodes = (
"140 -16 OFFCURVE",
"162 119 OFFCURVE",
"162 160 CURVE SMOOTH",
"162 300 OFFCURVE",
"149 574 OFFCURVE",
"117 686 CURVE SMOOTH",
"114 697 OFFCURVE",
"108 700 OFFCURVE",
"102 700 CURVE SMOOTH",
"87 700 OFFCURVE",
"50 627 OFFCURVE",
"50 604 CURVE SMOOTH",
"50 546 OFFCURVE",
"108 315 OFFCURVE",
"108 0 CURVE SMOOTH",
"108 -12 OFFCURVE",
"112 -16 OFFCURVE",
"122 -16 CURVE SMOOTH"
);
}
);
visible = 1;
width = 218;
}
);
unicode = 0661;
},
{
color = 5;
glyphname = "two-ar";
layers = (
{
layerId = "98B9451C-6456-42E9-9BE3-FFE7D6D9360C";
paths = (
{
closed = 1;
nodes = (
"201 0 OFFCURVE",
"210 46 OFFCURVE",
"210 148 CURVE SMOOTH",
"210 229 OFFCURVE",
"188 346 OFFCURVE",
"173 402 CURVE SMOOTH",
"170 413 OFFCURVE",
"174 420 OFFCURVE",
"185 420 CURVE SMOOTH",
"302 420 OFFCURVE",
"397 466 OFFCURVE",
"397 614 CURVE SMOOTH",
"397 632 OFFCURVE",
"389 640 OFFCURVE",
"382 640 CURVE SMOOTH",
"374 640 OFFCURVE",
"370 632 OFFCURVE",
"366 616 CURVE SMOOTH",
"359 588 OFFCURVE",
"314 517 OFFCURVE",
"227 517 CURVE SMOOTH",
"112 517 OFFCURVE",
"107 640 OFFCURVE",
"70 640 CURVE SMOOTH",
"44 640 OFFCURVE",
"20 542 OFFCURVE",
"20 512 CURVE SMOOTH",
"20 454 OFFCURVE",
"113 396 OFFCURVE",
"148 211 CURVE SMOOTH",
"163 132 OFFCURVE",
"165 33 OFFCURVE",
"165 21 CURVE SMOOTH",
"165 5 OFFCURVE",
"173 0 OFFCURVE",
"180 0 CURVE SMOOTH"
);
}
);
width = 417;
},
{
associatedMasterId = "98B9451C-6456-42E9-9BE3-FFE7D6D9360C";
layerId = "BAEB4E78-C5CE-4E49-A2A8-FE6711AFFC58";
name = "Oct 6 20, 09:32";
paths = (
{
closed = 1;
nodes = (
"198 0 OFFCURVE",
"210 58 OFFCURVE",
"210 148 CURVE SMOOTH",
"210 183 OFFCURVE",
"206 303 OFFCURVE",
"173 409 CURVE SMOOTH",
"169 421 OFFCURVE",
"171 426 OFFCURVE",
"180 426 CURVE SMOOTH",
"192 426 OFFCURVE",
"222 420 OFFCURVE",
"250 420 CURVE SMOOTH",
"338 420 OFFCURVE",
"397 512 OFFCURVE",
"397 614 CURVE SMOOTH",
"397 633 OFFCURVE",
"393 640 OFFCURVE",
"382 640 CURVE SMOOTH",
"370 640 OFFCURVE",
"369 631 OFFCURVE",
"366 616 CURVE SMOOTH",
"359 582 OFFCURVE",
"323 517 OFFCURVE",
"227 517 CURVE SMOOTH",
"121 517 OFFCURVE",
"98 640 OFFCURVE",
"70 640 CURVE SMOOTH",
"44 640 OFFCURVE",
"20 541 OFFCURVE",
"20 512 CURVE SMOOTH",
"20 453 OFFCURVE",
"112 401 OFFCURVE",
"148 211 CURVE SMOOTH",
"162 137 OFFCURVE",
"165 42 OFFCURVE",
"165 21 CURVE SMOOTH",
"165 8 OFFCURVE",
"171 0 OFFCURVE",
"180 0 CURVE SMOOTH"
);
}
);
width = 417;
}
);
unicode = 0662;
},
{
color = 5;
glyphname = "three-ar";
layers = (
{
layerId = "98B9451C-6456-42E9-9BE3-FFE7D6D9360C";
paths = (
{
closed = 1;
nodes = (
"198 0 OFFCURVE",
"210 59 OFFCURVE",
"210 148 CURVE SMOOTH",
"210 225 OFFCURVE",
"198 304 OFFCURVE",
"177 373 CURVE SMOOTH",
"173 385 OFFCURVE",
"175 392 OFFCURVE",
"183 392 CURVE SMOOTH",
"283 394 OFFCURVE",
"296 446 OFFCURVE",
"306 446 CURVE SMOOTH",
"314 446 OFFCURVE",
"339 420 OFFCURVE",
"378 420 CURVE SMOOTH",
"445 420 OFFCURVE",
"489 496 OFFCURVE",
"489 615 CURVE SMOOTH",
"489 628 OFFCURVE",
"486 640 OFFCURVE",
"474 640 CURVE SMOOTH",
"462 640 OFFCURVE",
"457 627 OFFCURVE",
"454 610 CURVE SMOOTH",
"445 558 OFFCURVE",
"424 525 OFFCURVE",
"381 525 CURVE SMOOTH",
"350 525 OFFCURVE",
"334 543 OFFCURVE",
"337 558 CURVE SMOOTH",
"340 575 OFFCURVE",
"343 595 OFFCURVE",
"343 614 CURVE SMOOTH",
"343 633 OFFCURVE",
"338 640 OFFCURVE",
"328 640 CURVE SMOOTH",
"319 640 OFFCURVE",
"313 634 OFFCURVE",
"311 620 CURVE SMOOTH",
"306 583 OFFCURVE",
"285 518 OFFCURVE",
"212 518 CURVE SMOOTH",
"113 518 OFFCURVE",
"89 640 OFFCURVE",
"70 640 CURVE SMOOTH",
"39 640 OFFCURVE",
"20 541 OFFCURVE",
"20 512 CURVE SMOOTH",
"20 453 OFFCURVE",
"112 401 OFFCURVE",
"148 211 CURVE SMOOTH",
"162 137 OFFCURVE",
"165 42 OFFCURVE",
"165 21 CURVE SMOOTH",
"165 8 OFFCURVE",
"171 0 OFFCURVE",
"180 0 CURVE SMOOTH"
);
}
);
width = 499;
}
);
unicode = 0663;
},
{
color = 5;
glyphname = "four-ar";
layers = (
{
layerId = "98B9451C-6456-42E9-9BE3-FFE7D6D9360C";
paths = (
{
closed = 1;
nodes = (
"143 0 OFFCURVE",
"29 35 OFFCURVE",
"29 100 CURVE SMOOTH",
"29 240 OFFCURVE",
"143 284 OFFCURVE",
"143 310 CURVE SMOOTH",
"143 332 OFFCURVE",
"20 348 OFFCURVE",
"20 403 CURVE SMOOTH",
"20 468 OFFCURVE",
"126 640 OFFCURVE",
"176 640 CURVE SMOOTH",
"193 640 OFFCURVE",
"199 632 OFFCURVE",
"199 616 CURVE SMOOTH",
"199 560 OFFCURVE",
"94 523 OFFCURVE",
"94 480 CURVE SMOOTH",
"94 442 OFFCURVE",
"248 437 OFFCURVE",
"248 382 CURVE SMOOTH",
"248 293 OFFCURVE",
"99 238 OFFCURVE",
"99 188 CURVE SMOOTH",
"99 134 OFFCURVE",
"214 110 OFFCURVE",
"289 100 CURVE SMOOTH",
"304 98 OFFCURVE",
"311 91 OFFCURVE",
"311 78 CURVE SMOOTH",
"311 53 OFFCURVE",
"287 0 OFFCURVE",
"264 0 CURVE SMOOTH"
);
}
);
width = 331;
}
);
unicode = 0664;
},
{
color = 5;
glyphname = "five-ar";
layers = (
{
layerId = "98B9451C-6456-42E9-9BE3-FFE7D6D9360C";
paths = (
{
closed = 1;
nodes = (
"70 100 OFFCURVE",
"20 136 OFFCURVE",
"20 211 CURVE SMOOTH",
"20 313 OFFCURVE",
"98 529 OFFCURVE",
"197 529 CURVE SMOOTH",
"268 529 OFFCURVE",
"373 432 OFFCURVE",
"373 325 CURVE SMOOTH",
"373 200 OFFCURVE",
"345 100 OFFCURVE",
"170 100 CURVE SMOOTH"
);
},
{
closed = 1;
nodes = (
"245 211 OFFCURVE",
"314 245 OFFCURVE",
"314 282 CURVE SMOOTH",
"314 325 OFFCURVE",
"240 394 OFFCURVE",
"153 394 CURVE SMOOTH",
"110 394 OFFCURVE",
"88 355 OFFCURVE",
"88 298 CURVE SMOOTH",
"88 242 OFFCURVE",
"119 211 OFFCURVE",
"183 211 CURVE SMOOTH"
);
}
);
width = 393;
}
);
unicode = 0665;
},
{
color = 5;
glyphname = "six-ar";
layers = (
{
layerId = "98B9451C-6456-42E9-9BE3-FFE7D6D9360C";
paths = (
{
closed = 1;
nodes = (
"409 0 OFFCURVE",
"436 80 OFFCURVE",
"436 127 CURVE SMOOTH",
"436 172 OFFCURVE",
"324 295 OFFCURVE",
"324 488 CURVE SMOOTH",
"324 511 OFFCURVE",
"329 544 OFFCURVE",
"329 563 CURVE SMOOTH",
"329 583 OFFCURVE",
"319 591 OFFCURVE",
"304 591 CURVE SMOOTH",
"282 591 OFFCURVE",
"256 575 OFFCURVE",
"191 575 CURVE SMOOTH",
"101 575 OFFCURVE",
"64 640 OFFCURVE",
"48 640 CURVE SMOOTH",
"35 640 OFFCURVE",
"20 607 OFFCURVE",
"20 537 CURVE SMOOTH",
"20 493 OFFCURVE",
"74 453 OFFCURVE",
"146 453 CURVE SMOOTH",
"218 453 OFFCURVE",
"243 473 OFFCURVE",
"257 473 CURVE SMOOTH",
"267 473 OFFCURVE",
"272 467 OFFCURVE",
"272 456 CURVE SMOOTH",
"272 345 OFFCURVE",
"331 0 OFFCURVE",
"394 0 CURVE SMOOTH"
);
}
);
width = 446;
}
);
unicode = 0666;
},
{
color = 5;
glyphname = "seven-ar";
layers = (
{
layerId = "98B9451C-6456-42E9-9BE3-FFE7D6D9360C";
paths = (
{
closed = 1;
nodes = (
"262 0 OFFCURVE",
"267 10 OFFCURVE",
"272 31 CURVE SMOOTH",
"315 232 OFFCURVE",
"372 342 OFFCURVE",
"417 421 CURVE SMOOTH",
"439 459 OFFCURVE",
"470 486 OFFCURVE",
"470 525 CURVE SMOOTH",
"470 630 OFFCURVE",
"463 640 OFFCURVE",
"450 640 CURVE SMOOTH",
"427 640 OFFCURVE",
"318 402 OFFCURVE",
"278 242 CURVE SMOOTH",
"270 211 OFFCURVE",
"264 195 OFFCURVE",
"259 195 CURVE SMOOTH",
"252 195 OFFCURVE",
"245 211 OFFCURVE",
"238 238 CURVE SMOOTH",
"201 380 OFFCURVE",
"70 640 OFFCURVE",
"50 640 CURVE SMOOTH",
"26 640 OFFCURVE",
"20 607 OFFCURVE",
"20 529 CURVE SMOOTH",
"20 490 OFFCURVE",
"42 473 OFFCURVE",
"50 459 CURVE SMOOTH",
"116 343 OFFCURVE",
"176 229 OFFCURVE",
"221 31 CURVE SMOOTH",
"226 10 OFFCURVE",
"232 0 OFFCURVE",
"246 0 CURVE SMOOTH"
);
}
);
width = 490;
}
);
unicode = 0667;
},
{
color = 5;
glyphname = "eight-ar";
layers = (
{
layerId = "98B9451C-6456-42E9-9BE3-FFE7D6D9360C";
paths = (
{
closed = 1;
nodes = (
"272 640 OFFCURVE",
"268 629 OFFCURVE",
"263 608 CURVE SMOOTH",
"199 364 OFFCURVE",
"130 252 OFFCURVE",
"94 186 CURVE SMOOTH",
"73 147 OFFCURVE",
"65 126 OFFCURVE",
"65 100 CURVE SMOOTH",
"65 47 OFFCURVE",
"65 15 OFFCURVE",
"84 15 CURVE SMOOTH",
"114 15 OFFCURVE",
"206 252 OFFCURVE",
"258 421 CURVE SMOOTH",
"264 441 OFFCURVE",
"267 446 OFFCURVE",
"273 446 CURVE SMOOTH",
"280 446 OFFCURVE",
"285 441 OFFCURVE",
"292 421 CURVE SMOOTH",
"339 286 OFFCURVE",
"455 0 OFFCURVE",
"487 0 CURVE SMOOTH",
"510 0 OFFCURVE",
"514 59 OFFCURVE",
"514 119 CURVE SMOOTH",
"514 154 OFFCURVE",
"481 192 OFFCURVE",
"472 211 CURVE SMOOTH",
"424 313 OFFCURVE",
"354 421 OFFCURVE",
"312 608 CURVE SMOOTH",
"307 628 OFFCURVE",
"301 640 OFFCURVE",
"287 640 CURVE SMOOTH"
);
}
);
width = 616;
}
);
unicode = 0668;
},
{
color = 5;
glyphname = "nine-ar";
layers = (
{
layerId = "98B9451C-6456-42E9-9BE3-FFE7D6D9360C";
paths = (
{
closed = 1;
nodes = (
"363 0 OFFCURVE",
"383 62 OFFCURVE",
"383 124 CURVE SMOOTH",
"383 158 OFFCURVE",
"363 175 OFFCURVE",
"349 211 CURVE SMOOTH",
"321 284 OFFCURVE",
"315 353 OFFCURVE",
"303 473 CURVE SMOOTH",
"293 577 OFFCURVE",
"255 640 OFFCURVE",
"187 640 CURVE SMOOTH",
"119 640 OFFCURVE",
"20 500 OFFCURVE",
"20 421 CURVE SMOOTH",
"20 334 OFFCURVE",
"64 305 OFFCURVE",
"152 305 CURVE SMOOTH",
"209 305 OFFCURVE",
"227 325 OFFCURVE",
"244 325 CURVE SMOOTH",
"255 325 OFFCURVE",
"260 303 OFFCURVE",
"262 288 CURVE SMOOTH",
"270 211 OFFCURVE",
"305 0 OFFCURVE",
"342 0 CURVE SMOOTH"
);
},
{
closed = 1;
nodes = (
"120 403 OFFCURVE",
"82 412 OFFCURVE",
"82 448 CURVE SMOOTH",
"82 480 OFFCURVE",
"108 519 OFFCURVE",
"143 519 CURVE SMOOTH",
"191 519 OFFCURVE",
"232 457 OFFCURVE",
"232 433 CURVE SMOOTH",
"232 407 OFFCURVE",
"223 403 OFFCURVE",
"170 403 CURVE SMOOTH"
);
}
);
width = 403;
}
);
unicode = 0669;
},
{
color = 5;
glyphname = period;
layers = (
{
layerId = "98B9451C-6456-42E9-9BE3-FFE7D6D9360C";
paths = (
{
closed = 1;
nodes = (
"116 30 OFFCURVE",
"170 85 OFFCURVE",
"170 100 CURVE SMOOTH",
"170 116 OFFCURVE",
"116 170 OFFCURVE",
"100 170 CURVE SMOOTH",
"84 170 OFFCURVE",
"30 116 OFFCURVE",
"30 100 CURVE SMOOTH",
"30 85 OFFCURVE",
"84 30 OFFCURVE",
"100 30 CURVE SMOOTH"
);
}
);
width = 210;
}
);
unicode = 002E;
},
{
glyphname = "dotcenter-ar";
layers = (
{
layerId = "98B9451C-6456-42E9-9BE3-FFE7D6D9360C";
paths = (
{
closed = 1;
nodes = (
"97 233 OFFCURVE",
"150 287 OFFCURVE",
"150 303 CURVE SMOOTH",
"150 320 OFFCURVE",
"97 373 OFFCURVE",
"80 373 CURVE SMOOTH",
"63 373 OFFCURVE",
"10 320 OFFCURVE",
"10 303 CURVE SMOOTH",
"10 287 OFFCURVE",
"63 233 OFFCURVE",
"80 233 CURVE SMOOTH"
);
}
);
width = 160;
}
);
},
{
glyphname = "twodotsverticalabove-ar";
layers = (
{
layerId = "98B9451C-6456-42E9-9BE3-FFE7D6D9360C";
paths = (
{
closed = 1;
nodes = (
"10 575 OFFCURVE",
"64 520 OFFCURVE",
"80 520 CURVE SMOOTH",
"102 520 OFFCURVE",
"145 575 OFFCURVE",
"160 575 CURVE SMOOTH",
"175 575 OFFCURVE",
"218 520 OFFCURVE",
"240 520 CURVE SMOOTH",
"256 520 OFFCURVE",
"310 575 OFFCURVE",
"310 590 CURVE SMOOTH",
"310 606 OFFCURVE",
"256 660 OFFCURVE",
"240 660 CURVE SMOOTH",
"218 660 OFFCURVE",
"175 605 OFFCURVE",
"160 605 CURVE SMOOTH",
"145 605 OFFCURVE",
"102 660 OFFCURVE",
"80 660 CURVE SMOOTH",
"64 660 OFFCURVE",
"10 606 OFFCURVE",
"10 590 CURVE SMOOTH"
);
}
);
width = 320;
},
{
associatedMasterId = "98B9451C-6456-42E9-9BE3-FFE7D6D9360C";
layerId = "2F967A87-7E48-4328-8BE5-8C3F5904F165";
name = "Sep 7 20, 21:11";
paths = (
{
closed = 1;
nodes = (
"97 520 OFFCURVE",
"150 574 OFFCURVE",
"150 590 CURVE SMOOTH",
"150 607 OFFCURVE",
"97 660 OFFCURVE",
"80 660 CURVE SMOOTH",
"63 660 OFFCURVE",
"10 607 OFFCURVE",
"10 590 CURVE SMOOTH",
"10 574 OFFCURVE",
"63 520 OFFCURVE",
"80 520 CURVE SMOOTH"
);
},
{
closed = 1;
nodes = (
"257 520 OFFCURVE",
"310 574 OFFCURVE",
"310 590 CURVE SMOOTH",
"310 607 OFFCURVE",
"257 660 OFFCURVE",
"240 660 CURVE SMOOTH",
"223 660 OFFCURVE",
"170 607 OFFCURVE",
"170 590 CURVE SMOOTH",
"170 574 OFFCURVE",
"223 520 OFFCURVE",
"240 520 CURVE SMOOTH"
);
}
);
visible = 1;
width = 320;
}
);
},
{
glyphname = "twodotshorizontalabove-ar";
layers = (
{
anchors = (
{
name = _top;
position = "{185, 476}";
},
{
name = top;
position = "{160, 700}";
}
);
layerId = "98B9451C-6456-42E9-9BE3-FFE7D6D9360C";
paths = (
{
closed = 1;
nodes = (
"10 575 OFFCURVE",
"64 520 OFFCURVE",
"80 520 CURVE SMOOTH",
"102 520 OFFCURVE",
"145 575 OFFCURVE",
"160 575 CURVE SMOOTH",
"175 575 OFFCURVE",
"218 520 OFFCURVE",
"240 520 CURVE SMOOTH",
"256 520 OFFCURVE",
"310 575 OFFCURVE",
"310 590 CURVE SMOOTH",
"310 606 OFFCURVE",
"256 660 OFFCURVE",
"240 660 CURVE SMOOTH",
"218 660 OFFCURVE",
"175 605 OFFCURVE",
"160 605 CURVE SMOOTH",
"145 605 OFFCURVE",
"102 660 OFFCURVE",
"80 660 CURVE SMOOTH",
"64 660 OFFCURVE",
"10 606 OFFCURVE",
"10 590 CURVE SMOOTH"
);
}
);
width = 320;
},
{
anchors = (
{
name = _top;
position = "{185, 476}";
},
{
name = top;
position = "{160, 700}";
}
);
associatedMasterId = "98B9451C-6456-42E9-9BE3-FFE7D6D9360C";
layerId = "E3E3AEC1-04A7-434E-8A21-D8312D4FCC0D";
name = "Sep 7 20, 21:13";
paths = (
{
closed = 1;
nodes = (
"111 506 OFFCURVE",
"135 575 OFFCURVE",
"160 575 CURVE SMOOTH",
"185 575 OFFCURVE",
"210 528 OFFCURVE",
"240 528 CURVE SMOOTH",
"265 528 OFFCURVE",
"311 575 OFFCURVE",
"311 600 CURVE SMOOTH",
"311 624 OFFCURVE",
"267 671 OFFCURVE",
"240 671 CURVE SMOOTH",
"212 671 OFFCURVE",
"185 605 OFFCURVE",
"160 605 CURVE",
"135 605 OFFCURVE",
"109 646 OFFCURVE",
"80 646 CURVE SMOOTH",
"53 646 OFFCURVE",
"13 596 OFFCURVE",
"13 570 CURVE SMOOTH",
"13 536 OFFCURVE",
"53 506 OFFCURVE",
"80 506 CURVE SMOOTH"
);
}
);
visible = 1;
width = 320;
}
);
},
{
color = 5;
glyphname = "wasla-ar";
layers = (
{
layerId = "98B9451C-6456-42E9-9BE3-FFE7D6D9360C";
paths = (
{
closed = 1;
nodes = (
"184 757 LINE",
"207 767 LINE",
"213 780 LINE",
"199 792 LINE",
"178 786 LINE",
"157 756 LINE"
);
},
{
closed = 1;
nodes = (
"161 809 LINE",
"211 825 LINE",
"264 786 LINE",
"250 716 LINE",
"177 675 LINE",
"91 691 LINE",
"42 703 LINE",
"26 682 LINE",
"0 683 LINE",
"0 704 LINE",
"31 770 LINE",
"114 766 LINE",
"128 774 LINE"
);
}
);
width = 264;
}
);
},
{
color = 5;
glyphname = "hamzaabove-ar";
layers = (
{
layerId = "98B9451C-6456-42E9-9BE3-FFE7D6D9360C";
paths = (
{
closed = 1;
nodes = (
"34 731 OFFCURVE",
"175 771 OFFCURVE",
"183 779 CURVE SMOOTH",
"189 785 OFFCURVE",
"193 822 OFFCURVE",
"183 822 CURVE SMOOTH",
"173 822 OFFCURVE",
"153 812 OFFCURVE",
"140 812 CURVE SMOOTH",
"127 812 OFFCURVE",
"77 831 OFFCURVE",
"77 846 CURVE SMOOTH",
"77 857 OFFCURVE",
"85 866 OFFCURVE",
"98 866 CURVE SMOOTH",
"108 866 OFFCURVE",
"124 842 OFFCURVE",
"137 842 CURVE SMOOTH",
"148 842 OFFCURVE",
"172 865 OFFCURVE",
"172 874 CURVE SMOOTH",
"172 890 OFFCURVE",
"150 912 OFFCURVE",
"123 912 CURVE SMOOTH",
"94 912 OFFCURVE",
"28 857 OFFCURVE",
"28 827 CURVE SMOOTH",
"28 801 OFFCURVE",
"48 795 OFFCURVE",
"48 788 CURVE SMOOTH",
"48 781 OFFCURVE",
"28 771 OFFCURVE",
"24 765 CURVE SMOOTH",
"21 761 OFFCURVE",
"15 746 OFFCURVE",
"15 737 CURVE SMOOTH",
"15 733 OFFCURVE",
"19 731 OFFCURVE",
"22 731 CURVE SMOOTH"
);
}
);
width = 200;
}
);
unicode = 0654;
},
{
color = 5;
glyphname = "madda-ar";
layers = (
{
layerId = "98B9451C-6456-42E9-9BE3-FFE7D6D9360C";
paths = (
{
closed = 1;
nodes = (
"270 700 OFFCURVE",
"316 728 OFFCURVE",
"316 751 CURVE SMOOTH",
"316 758 OFFCURVE",
"311 763 OFFCURVE",
"304 763 CURVE SMOOTH",
"291 763 OFFCURVE",
"271 754 OFFCURVE",
"241 754 CURVE SMOOTH",
"170 754 OFFCURVE",
"144 780 OFFCURVE",
"135 780 CURVE SMOOTH",
"123 780 OFFCURVE",
"93 719 OFFCURVE",
"93 710 CURVE SMOOTH",
"93 705 OFFCURVE",
"101 699 OFFCURVE",
"107 699 CURVE SMOOTH",
"118 700 OFFCURVE",
"122 719 OFFCURVE",
"128 719 CURVE SMOOTH",
"136 719 OFFCURVE",
"162 700 OFFCURVE",
"203 700 CURVE SMOOTH"
);
}
);
width = 387;
}
);
unicode = 0653;
},
